<svg width="253" height="208" viewBox="0 0 253 208" fill="none" xmlns="http://www.w3.org/2000/svg">
<path d="M63.2614 162.416L65.6477 172.317L76.3864 174.693L81.1591 164.396L89.5114 174.693L99.4545 167.96L109.795 179.049H117.352L118.148 187.762H129.682L131.273 179.842L126.5 164.396L144 156.871L150.364 172.317L163.886 167.96L171.045 169.545V177.069H181.784L191.33 170.733L197.295 182.218L204.057 178.653L211.216 182.218L210.023 190.139L211.216 198.851L217.58 204L221.955 186.574H229.114L233.091 178.653L229.114 174.693L235.477 167.96L245.023 162.416L241.841 154.099L249 135.485L229.114 130.337L211.216 118.851L197.295 120.436L211.216 90.3366L204.057 81.2277L184.568 78.0594L169.057 56.6733L150.761 48.7525L159.511 24.5941L138.432 4L128.886 10.3366L138.432 18.2574L121.727 30.1386L110.591 21.8218L103.83 34.4951L92.2955 39.6436L78.7727 38.4554V17.4653H68.0341L69.625 28.9505L60.0795 30.1386L63.2614 39.6436L47.75 38.4554L40.9886 52.7129L47.75 62.2178L44.1705 66.9703L27.4659 56.2772L13.1477 65.7822L14.3409 70.1386L24.2841 66.9703L21.8977 85.9802L15.5341 85.1881L11.1591 107.762L21.1023 106.574L31.8409 112.515L14.3409 133.109L11.1591 146.97L19.1136 153.307L4 165.188L5.59091 172.317L11.1591 170.337L19.1136 179.842L31.8409 174.693L54.1136 163.604L63.2614 162.416Z" stroke="url(#paint0_linear_444:567)" stroke-width="8" stroke-linecap="round" stroke-linejoin="round"/>
<defs>
<linearGradient id="paint0_linear_444:567" x1="4" y1="4" x2="113.352" y2="13.563" gradientUnits="userSpaceOnUse">
<stop stop-color="#80FF98"/>
<stop offset="1" stop-color="#FFC700"/>
</linearGradient>
</defs>
</svg>
