<svg width="208" height="40" fill="none" xmlns="http://www.w3.org/2000/svg"><g clip-path="url(#a)" fill="#fff"><path d="M188.003 40a19.998 19.998 0 0 1-18.486-12.345 20.007 20.007 0 0 1 4.335-21.803A20.004 20.004 0 0 1 208 20.003 20.022 20.022 0 0 1 188.003 40Zm0-38.182a18.186 18.186 0 1 0 18.179 18.185 18.203 18.203 0 0 0-18.179-18.185Z"/><path d="M184.341 22.51h-4.055l-.933 3.38h-2.155l3.946-12.807h2.467l3.953 12.84h-2.298l-.925-3.413Zm-3.582-1.703h3.109l-1.507-5.494h-.088l-1.514 5.494ZM191.545 21.004v4.872h-2.143V13.07h4.508c2.703 0 4.359 1.514 4.359 3.98a3.668 3.668 0 0 1-2.325 3.568l2.581 5.258h-2.412l-2.305-4.872h-2.263Zm0-1.69h2.074c1.561 0 2.467-.824 2.467-2.237 0-1.412-.885-2.21-2.406-2.21h-2.135v4.447Z"/></g><g clip-path="url(#b)" fill="#fff"><path d="M20.003 40A20.003 20.003 0 1 1 40 20.003 20.024 20.024 0 0 1 20.003 40Zm0-38.182a18.186 18.186 0 1 0 18.18 18.185 18.205 18.205 0 0 0-18.18-18.185Z"/><path d="M12.583 29.647V10.353l13.354 9.65-13.354 9.644Zm1.818-15.74v12.165l8.434-6.082-8.434-6.082Z"/><path d="M26.809 12.13H24.99v15.733h1.818V12.13Z"/></g><g clip-path="url(#c)" fill="#fff"><path d="m77.118 30.708-7.764-6.38h-3.819v-8.67h3.819l7.764-6.366v21.416Zm-9.994-7.961h2.797l5.602 4.595V12.657l-5.602 4.596h-2.797v5.494Zm15.232 6.535-1.081-1.163a10.927 10.927 0 0 0 0-16.219l1.08-1.189a12.515 12.515 0 0 1 0 18.57Zm-2.028-3.028-1.08-1.162a7.021 7.021 0 0 0 0-10.441l1.08-1.135a8.597 8.597 0 0 1 0 12.765v-.027Z"/><path d="M75.997 40A20.003 20.003 0 1 1 96 20.003 20.017 20.017 0 0 1 75.997 40Zm0-38.182a18.186 18.186 0 1 0 18.185 18.185A18.205 18.205 0 0 0 75.997 1.818Z"/></g><g clip-path="url(#d)" fill="#fff"><path d="M132.003 40a19.998 19.998 0 0 1-18.486-12.345 20.007 20.007 0 0 1 4.335-21.803A20.004 20.004 0 0 1 152 20.003 20.022 20.022 0 0 1 132.003 40Zm0-38.182a18.186 18.186 0 1 0 18.179 18.185 18.203 18.203 0 0 0-18.179-18.185Z"/><path d="M124.624 19.693a.851.851 0 0 0 .378-.115.78.78 0 0 0 .25-1.041 6.643 6.643 0 0 1 2.291-8.961 6.315 6.315 0 0 1 7.152.442 6.306 6.306 0 0 1 1.633 1.923c.295.511.523 1.059.676 1.629a.74.74 0 0 0 .892.554.758.758 0 0 0 .541-.919 7.868 7.868 0 0 0-9.59-5.839 8.11 8.11 0 0 0-5.703 9.8c.188.755.481 1.48.872 2.155a.758.758 0 0 0 .608.372Zm6.163-7.529a3.378 3.378 0 0 1 2.892 1.65.723.723 0 0 0 1.034.169.766.766 0 0 0 .264-.96 4.82 4.82 0 1 0-8.36 4.798.733.733 0 0 0 .636.371.756.756 0 0 0 .642-1.142 3.155 3.155 0 0 1-.446-1.628 3.314 3.314 0 0 1 3.311-3.258h.027Zm8.866 12.367v.061a.111.111 0 0 1 0 .068l-1.02 6.082a.743.743 0 0 1-.676.621h-.149a.757.757 0 0 1-.594-.879l1-5.993v-4.535a.784.784 0 0 0-1.568 0v4.541a.737.737 0 0 1-.19.571.742.742 0 0 1-1.29-.57v-6.563a.788.788 0 0 0-.791-.79.793.793 0 0 0-.79.79v6.562a.737.737 0 0 1-.19.571.746.746 0 0 1-1.256-.265.753.753 0 0 1-.034-.306v-8.575a.792.792 0 0 0-1.582 0v8.65a.578.578 0 0 1 0 .155.503.503 0 0 1-.054.129.604.604 0 0 1-.081.121.368.368 0 0 1-.101.102l-.061.054-1.473.966h-.088l-.061.034a.6.6 0 0 1-.466 0h-.054a.839.839 0 0 1-.216-.142l-1.609-1.494a.837.837 0 0 0-1.149 0 .76.76 0 0 0 .014 1.061l4.21 4.467a.762.762 0 0 1 0 1.068.722.722 0 0 1-.798.15.743.743 0 0 1-.243-.17l-4.217-4.447a2.266 2.266 0 0 1 3.197-3.21l1.115 1.081.615-.405v-8.17a2.27 2.27 0 0 1 4.534-.102 2.238 2.238 0 0 1 3.048 2.014c.258-.096.53-.146.804-.148a2.249 2.249 0 0 1 2.086 1.366c.115.27.176.562.178.857v4.622Z"/></g><defs><clipPath id="a"><path fill="#fff" transform="translate(168)" d="M0 0h40v40H0z"/></clipPath><clipPath id="b"><path fill="#fff" d="M0 0h40v40H0z"/></clipPath><clipPath id="c"><path fill="#fff" transform="translate(56)" d="M0 0h40v40H0z"/></clipPath><clipPath id="d"><path fill="#fff" transform="translate(112)" d="M0 0h40v40H0z"/></clipPath></defs></svg>