<svg width="460" height="320" viewBox="0 0 460 320" fill="none" xmlns="http://www.w3.org/2000/svg">
<path d="M219.08 0H16C7.16344 0 0 7.16344 0 16V304C0 312.837 7.16344 320 16 320H444C452.837 320 460 312.837 460 304V16C460 7.16345 452.837 0 444 0H219.08ZM297 143.41L297.17 143.21L329.72 232.63L313.72 238.44L297 143.41ZM307 240L292 242.61V155.77L292.18 155.62L307 240ZM300.09 129L300.23 128.74L353.1 220.31L336.75 229.75L300.09 129ZM300.7 112.54L300.81 112.23L376.32 202.23L360.3 215.63L300.7 112.54ZM298.19 94.41L298.25 94.05L398.25 177.96L383.25 195.81L298.19 94.41ZM292 75V74.6L417.6 147.11L404.66 169.53L292 75ZM281.42 55L281.35 54.56L432.78 109.67L422.94 136.67L281.42 55ZM163 176.59L162.83 176.8L130.27 87.38L146.27 81.57L163 176.59ZM153 80.05L168 77.39V164.24L167.82 164.39L153 80.05ZM159.91 191.05L159.77 191.3L106.86 99.78L123.21 90.34L159.91 191.05ZM159.3 207.51L159.19 207.81L83.68 117.81L99.7 104.38L159.3 207.51ZM161.81 225.63L161.75 225.99L61.75 142.09L76.75 124.24L161.81 225.63ZM168 245V245.4L42.41 172.91L55.35 150.49L168 245ZM178.57 265L178.64 265.44L27.22 210.32L37.06 183.32L178.57 265ZM194.1 177.32L186.1 155.32L189.51 151.26L194.1 177.32ZM191.83 149L195.48 145.94V169.72L191.83 149ZM194.06 185.85L181.06 163.36L184 158.3L194.06 185.85ZM195.67 195.22L177.13 173.12L179.36 166.98L195.67 195.22ZM199.24 205.17L174.68 184.56L175.94 177.41L199.24 205.17ZM204 134L236.91 94.79L243.82 100.59L204 134ZM246.31 103.28L251.53 109.5L211 132.92L246.31 103.28ZM208.61 139.37L214.26 138.37H262.1V175.67L257.34 178.42L251.34 180.6L245.69 181.6H197.88V144.31L202.64 141.57L208.61 139.37ZM256 186L223.07 225.2L216.16 219.4L256 186ZM213.69 216.73L208.47 210.5L249 187.09L213.69 216.73ZM199 189.85L198 184H232.1L199 189.85ZM236.91 185.85L201.84 198.61L199.59 192.43L236.91 185.85ZM242.56 186.95L206.65 207.68L203 201.38L242.56 186.95ZM213.4 225.43L176.21 211.89L174.65 203.05L213.4 225.43ZM224.46 234.79L181.15 227.16L177.74 217.79L224.46 234.79ZM238.36 242.91H189.5L184 233.32L238.36 242.91ZM235 232.68L226.32 227.68L262.94 184H263.1L235 232.68ZM270.68 179.93H270.85L249.49 238.59L239 234.75L270.68 179.93ZM264.52 174V150.26L268.17 171L264.52 174ZM270.52 168.66L265.93 142.66L273.93 164.66L270.52 168.66ZM265.98 134.08L278.98 156.57L276.04 161.67L265.98 134.08ZM264.37 124.71L282.91 146.81L280.64 153L264.37 124.71ZM260.8 114.77L285.36 135.37L284.1 142.53L260.8 114.77ZM261.02 130.12L262.02 135.95H227.9L261.02 130.12ZM223.11 134.12L258.18 121.36L260.43 127.54L223.11 134.12ZM217.46 133.02L253.37 112.29L257.03 118.62L217.46 133.02ZM246.6 94.58L283.79 108.12L285.35 116.95L246.6 94.58ZM235.54 85.21L278.85 92.85L282.26 102.22L235.54 85.21ZM221.64 77.1H270.5L276 86.69L221.64 77.1ZM225 87.33L233.68 92.33L197.06 136H196.9L225 87.33ZM189.32 140.08H189.15L210.51 81.41L221 85.25L189.32 140.08ZM181.65 146.08L181.46 146.15L193.46 77.83L205.7 80L181.65 146.08ZM174.4 154.08L174.21 154.18V77.1H188L174.4 154.08ZM205.06 215.4L174.21 197.59V189.52L205.06 215.4ZM194 284.81L194.17 285.28L17.82 254.19L23.37 222.71L194 284.81ZM193.78 249.11H255.16L201.69 258.54L193.78 249.11ZM254.31 240.06L278.35 174L278.54 173.94L266.49 242.26L254.31 240.06ZM285.61 165.94L285.8 165.83V242.91H272L285.61 165.94ZM254.95 104.61L285.8 122.42V130.5L254.95 104.61ZM266 35.19L265.83 34.72L442.17 65.82L436.62 97.29L266 35.19ZM266.22 70.9H204.85L258.32 61.47L266.22 70.9ZM185.28 67.35L242 46.72L252.47 55.51L185.28 67.35ZM221.28 33.73L234.44 41.33L163.2 67.25L221.28 33.73ZM196.06 23.52L211.92 29.3L139 71.4L196.06 23.52ZM185 20.47L113.34 80.6L166.53 17.21L185 20.47ZM153.84 16L87 95.63L133 16H153.84ZM119.53 16L61.13 117.15L98 16H119.53ZM59.82 16H84.16L37 145.69L59.82 16ZM16 16H45.2L16 181.59V16ZM16 304V268.49L214.68 303.49L214.95 303.97L16 304ZM218 273.29L207.53 264.5L274.69 252.65L218 273.29ZM238.73 286.29L225.57 278.7L296.78 252.78L238.73 286.29ZM263.92 296.5L248.06 290.73L321 248.61L263.92 296.5ZM275 299.54L346.66 239.4L293.47 302.79L275 299.54ZM306.16 304L373 224.38L327 304H306.16ZM340.47 304L398.87 202.86L362.05 304H340.47ZM400.18 304H375.84L423.05 174.31L400.18 304ZM444 304H414.8L444 138.41V304ZM444 51.52L245.32 16.52L245.05 16.04H444V51.52Z" fill="url(#paint0_linear_886_350)"/>
<defs>
<linearGradient id="paint0_linear_886_350" x1="0" y1="0" x2="204.727" y2="21.0096" gradientUnits="userSpaceOnUse">
<stop stop-color="#80FF98"/>
<stop offset="1" stop-color="#FFC700"/>
</linearGradient>
</defs>
</svg>
