<svg width="240" height="201" fill="none" xmlns="http://www.w3.org/2000/svg"><path fill-rule="evenodd" clip-rule="evenodd" d="M210.104 6.644c-12.842 0-23.253 10.41-23.253 23.252 0 12.842 10.411 23.253 23.253 23.253s23.252-10.41 23.252-23.253c0-12.842-10.41-23.252-23.252-23.252Zm-29.896 23.252c0-2.881.407-5.668 1.168-8.304H29.896c-12.842 0-23.252 10.41-23.252 23.252v155.294H0V44.844c0-16.51 13.385-29.896 29.896-29.896h154.311C189.376 6.012 199.038 0 210.104 0 226.615 0 240 13.385 240 29.896c0 10.72-5.642 20.121-14.118 25.398v144.844h-6.643V58.371a29.88 29.88 0 0 1-9.135 1.421c-16.511 0-29.896-13.385-29.896-29.896ZM42.353 53.15a3.322 3.322 0 1 0 0 6.643h141.176a3.322 3.322 0 1 0 0-6.643H42.353Zm115.332 73.334c3.844 0 6.788 2.704 6.788 7.446 0 4.742-2.944 7.446-6.788 7.446-3.864 0-6.787-2.725-6.787-7.446 0-4.742 2.923-7.446 6.787-7.446Zm0 12.181c2.223 0 3.681-1.663 3.681-4.735s-1.458-4.735-3.681-4.735c-2.229 0-3.68 1.663-3.68 4.735s1.451 4.735 3.68 4.735Zm-119.577 2.513v-14.496h3.78l3.991 9.739h.17l3.992-9.739h3.78v14.496h-2.973v-9.435h-.12l-3.752 9.364h-2.024l-3.751-9.399h-.12v9.47h-2.973Zm31.777-3.306-1.076 3.306h-3.284l5.004-14.496h3.95l4.996 14.496h-3.284l-1.076-3.306h-5.23Zm2.562-7.877-1.784 5.485h3.68l-1.783-5.485h-.113Zm21.803-3.313h-3.065v14.496h3.065v-14.496Zm21.766 14.496h-9.279v-14.496h3.064v11.969h6.215v2.527Zm11.994 0h6.193c3.256 0 4.99-1.699 4.99-4.006 0-2.145-1.536-3.44-3.185-3.518v-.142c1.508-.339 2.619-1.408 2.619-3.114 0-2.173-1.614-3.716-4.813-3.716h-5.804v14.496Zm3.065-2.506v-3.85h2.569c1.472 0 2.385.849 2.385 2.045 0 1.09-.743 1.805-2.455 1.805h-2.499Zm0-5.924v-3.588h2.329c1.359 0 2.13.7 2.13 1.748 0 1.146-.934 1.84-2.187 1.84h-2.272Zm47.845-6.066h-3.475l4.452 7.248-4.537 7.248h3.511l2.972-4.948h.114l2.972 4.948h3.525l-4.523-7.248 4.424-7.248h-3.461l-2.937 4.941h-.114l-2.923-4.941Zm30.909-104.636h2.88V36.54h-3.064V24.954h-.085l-3.32 2.08v-2.717l3.589-2.272Z" fill="url(#a)"/><defs><linearGradient id="a" x1="0" y1="0" x2="107.154" y2="9.173" gradientUnits="userSpaceOnUse"><stop stop-color="#80FF98"/><stop offset="1" stop-color="#FFC700"/></linearGradient></defs></svg>