<svg width="23" height="23" viewBox="0 0 23 23" fill="none" xmlns="http://www.w3.org/2000/svg">
<path d="M11.5008 0C8.37638 0 7.98544 0.0124602 6.75811 0.0685312C5.80413 0.0878986 4.86036 0.269069 3.96702 0.60432C3.19975 0.892958 2.50455 1.34526 1.92978 1.92978C1.34526 2.50455 0.892958 3.19975 0.60432 3.96702C0.269069 4.86036 0.0878986 5.80413 0.0685312 6.75811C0.0124602 7.98544 0 8.37638 0 11.5008C0 14.6252 0.0124602 15.0161 0.0685312 16.2419C0.0875066 17.1959 0.268689 18.1397 0.60432 19.033C0.892193 19.8006 1.3446 20.496 1.92978 21.0702C2.50449 21.6552 3.19967 22.108 3.96702 22.3972C4.86069 22.7311 5.80431 22.9117 6.75811 22.9315C7.98544 22.9875 8.37638 23 11.5008 23C14.6252 23 15.0161 22.9875 16.2419 22.9315C17.1957 22.9121 18.1394 22.7314 19.033 22.3972C19.797 22.1015 20.4909 21.6495 21.0702 21.0702C21.6495 20.4909 22.1015 19.797 22.3972 19.033C22.7314 18.1394 22.9121 17.1957 22.9315 16.2419C22.9875 15.0161 23 14.6236 23 11.5008C23 8.37794 22.9875 7.98544 22.9315 6.75811C22.9117 5.80431 22.7311 4.86069 22.3972 3.96702C22.108 3.19967 21.6552 2.50449 21.0702 1.92978C20.496 1.3446 19.8006 0.892193 19.033 0.60432C18.1397 0.268689 17.1959 0.0875066 16.2419 0.0685312C15.0161 0.0124602 14.6236 0 11.5008 0ZM11.5008 2.07151C14.5707 2.07151 14.9273 2.08397 16.1469 2.13848C17.2683 2.18988 17.8773 2.37834 18.2822 2.53565C18.7818 2.71978 19.2336 3.01357 19.6046 3.39541C19.9874 3.76591 20.2818 4.21787 20.4659 4.71775C20.6217 5.12271 20.8101 5.7317 20.8615 6.85312C20.9176 8.06643 20.9285 8.42933 20.9285 11.5008C20.9285 14.5722 20.9176 14.9273 20.8615 16.1469C20.8101 17.2683 20.6232 17.8773 20.4659 18.2822C20.274 18.7773 19.981 19.2269 19.6055 19.6024C19.2301 19.9778 18.7804 20.2709 18.2854 20.4628C17.8804 20.6185 17.2714 20.807 16.15 20.8584C14.9382 20.9145 14.5738 20.9254 11.5039 20.9254C8.43401 20.9254 8.06955 20.9145 6.85623 20.8584C5.73481 20.807 5.12582 20.6201 4.72086 20.4628C4.22099 20.2786 3.76902 19.9842 3.39852 19.6015C3.01668 19.2305 2.72289 18.7786 2.53877 18.2791C2.38302 17.8742 2.193 17.2652 2.1416 16.1438C2.08709 14.932 2.07463 14.5675 2.07463 11.4977C2.07463 8.42778 2.08709 8.06332 2.1416 6.85C2.193 5.72858 2.38146 5.11959 2.53877 4.71463C2.7224 4.21653 3.01508 3.76579 3.39541 3.39541C3.76637 3.01357 4.21824 2.71978 4.71775 2.53565C5.12271 2.3799 5.7317 2.18988 6.85312 2.13848C8.06643 2.08397 8.42933 2.07151 11.5008 2.07151Z" fill="white"/>
<path d="M11.5008 15.3339C10.7422 15.3343 10.0006 15.1096 9.36979 14.6883C8.73895 14.2671 8.24721 13.6682 7.95678 12.9675C7.66636 12.2667 7.59029 11.4956 7.7382 10.7516C7.88611 10.0076 8.25135 9.3242 8.78773 8.78782C9.32411 8.25144 10.0075 7.8862 10.7515 7.73829C11.4955 7.59038 12.2666 7.66645 12.9674 7.95687C13.6681 8.2473 14.267 8.73904 14.6883 9.36988C15.1095 10.0007 15.3342 10.7423 15.3339 11.5009C15.3339 12.5175 14.93 13.4924 14.2112 14.2113C13.4923 14.9301 12.5174 15.3339 11.5008 15.3339ZM11.5008 5.59473C10.3326 5.59442 9.19055 5.94055 8.21908 6.58933C7.24762 7.23812 6.49037 8.16043 6.04311 9.23961C5.59585 10.3188 5.47866 11.5064 5.70638 12.6521C5.93409 13.7979 6.49647 14.8505 7.3224 15.6766C8.14833 16.5027 9.2007 17.0654 10.3464 17.2934C11.4921 17.5214 12.6798 17.4046 13.759 16.9576C14.8383 16.5106 15.7609 15.7536 16.4099 14.7823C17.0589 13.811 17.4054 12.6691 17.4054 11.5009C17.4054 9.93473 16.7833 8.43272 15.676 7.32515C14.5688 6.21757 13.0669 5.59514 11.5008 5.59473Z" fill="white"/>
<path d="M19.0189 5.36093C19.0189 5.63386 18.938 5.90066 18.7864 6.12759C18.6347 6.35453 18.4192 6.5314 18.1671 6.63585C17.9149 6.7403 17.6374 6.76762 17.3698 6.71438C17.1021 6.66113 16.8562 6.5297 16.6632 6.33671C16.4702 6.14372 16.3388 5.89783 16.2855 5.63014C16.2323 5.36246 16.2596 5.08499 16.364 4.83283C16.4685 4.58068 16.6454 4.36516 16.8723 4.21352C17.0992 4.06189 17.366 3.98096 17.639 3.98096C17.8202 3.98075 17.9998 4.01631 18.1673 4.08558C18.3348 4.15486 18.487 4.2565 18.6152 4.38468C18.7434 4.51287 18.845 4.66507 18.9143 4.83259C18.9836 5.00011 19.0191 5.17965 19.0189 5.36093Z" fill="white"/>
</svg>
