<svg width="101" height="101" viewBox="0 0 101 101" fill="none" xmlns="http://www.w3.org/2000/svg">
<path d="M50.2948 24.0645C36.0661 24.0645 24.4825 35.6991 24.4825 50.0059C24.4825 56.9659 27.162 63.491 32.0194 68.3727C36.8768 73.2544 43.3694 75.9473 50.2948 75.9473C64.5235 75.9473 76.1071 64.3126 76.1071 50.0059C76.1071 43.1425 73.407 36.6519 68.4946 31.715C63.5823 26.785 57.1241 24.0645 50.2948 24.0645ZM66.5434 50.0059C66.5434 59.0097 59.2539 66.3427 50.2948 66.3427C41.3358 66.3427 34.0462 59.0097 34.0462 50.0059C34.0462 41.002 41.3358 33.676 50.2948 33.676C59.2539 33.676 66.5434 41.002 66.5434 50.0059Z" fill="white"/>
<path d="M76.9312 17.623C73.6334 17.623 70.9539 20.3162 70.9539 23.6309C70.9539 26.9455 73.6334 29.6387 76.9312 29.6387C80.2291 29.6387 82.9086 26.9455 82.9086 23.6309C82.9086 20.3162 80.2291 17.623 76.9312 17.623Z" fill="white"/>
<path d="M92.0738 8.42138C86.866 2.98752 79.549 0.115234 70.9197 0.115234H29.6625C12.191 0.115234 0.449341 11.9151 0.449341 29.4733V70.7347C0.449341 79.538 3.37616 87.0294 8.91375 92.3942C14.2521 97.5588 21.4936 100.293 29.8618 100.293H70.7204C79.2123 100.293 86.5225 97.5588 91.8677 92.3942C97.2748 87.1606 100.133 79.7382 100.133 70.9349V29.4733C100.14 20.9945 97.3503 13.7171 92.0738 8.42138ZM85.224 85.5104C81.6513 88.9074 76.6359 90.6957 70.7204 90.6957H29.8618C23.9463 90.6957 18.9309 88.9005 15.3651 85.5104C11.8131 81.9407 10.0062 76.9695 10.0062 70.7347V29.4733C10.0062 23.3766 11.8062 18.4744 15.3651 14.9047C18.6904 11.5629 23.8433 9.71943 29.8618 9.71943H71.1189C77.1855 9.71943 82.0636 11.5284 85.6156 15.0981C89.0714 18.7782 90.9745 23.8806 90.9745 29.4733V70.9349C90.9814 76.9004 88.989 81.9338 85.224 85.5104Z" fill="white"/>
</svg>
