<svg width="30" height="31" fill="#fff" xmlns="http://www.w3.org/2000/svg"><path d="M22.29 31c3.793 0 6.966-3.015 6.966-6.61 0-3.208-2.051-5.798-5.534-9.857l-1.587-1.855c-1.935-2.243-3.637-4.33-3.637-6.765 0-2.165 1.16-4.02 2.98-4.02 2.36 0 4.295 3.13 5.185 8.31l.542 3.093h.232l1.277-12.1-.348-.076-.968 2.667c-1.47-2.165-4.14-2.9-5.96-2.9-3.908 0-6.23 3.596-6.191 7.19.039 2.938 1.819 5.412 3.676 7.577l1.626 1.894c3.753 4.407 4.837 6.34 4.798 9.084-.039 1.508-.89 3.208-2.593 3.208-2.902 0-6.423-5.14-6.772-10.205l-.116-1.74h-.232l-3.057 11.559h-5.03V2.51l2.785-1.082v-.232H.348v.27L3.173 2.55l-.077 26.672L0 30.342v.233h15.518l.27-2.745c1.084 1.663 3.6 3.17 6.502 3.17Z"/></svg>