<svg width="460" height="133" fill="none" xmlns="http://www.w3.org/2000/svg"><path fill-rule="evenodd" clip-rule="evenodd" d="M96.785 87.455a14.782 14.782 0 0 1 7.115-5.985v-.745H52.668v.758c4.197.993 7.19 2.793 8.99 5.388 1.8 2.596 2.694 6.494 2.694 11.685v29.092c-.695.608-1.9.906-3.6.906-4.694 0-8.99-2.52-12.889-7.561-3.899-5.042-6.966-11.933-9.213-20.674a115.786 115.786 0 0 1-3.378-28.993c0-27.963 8.146-41.609 24.424-41.609 7.686 0 13.51 2.235 17.458 7.376 3.949 5.153 6.27 13.161 6.966 24.05h.745l11.088-30.271a70.933 70.933 0 0 0-34.605-8.692c-12.28 0-23.046 2.335-32.284 7.016A50.94 50.94 0 0 0 7.633 49.199C2.59 57.816.07 67.824.07 79.235c0 10.877 2.173 20.364 6.519 28.447a45.335 45.335 0 0 0 18.5 18.724C33.088 130.802 42.525 133 53.414 133a85.324 85.324 0 0 0 22.475-3.08c7.487-2.048 13.633-4.768 18.426-8.17V97.028a18.08 18.08 0 0 1 2.471-9.573Zm31.178-11.945c0-6.804.82-12.094 2.471-15.843 1.652-3.738 4.023-5.6 7.128-5.575 3.091-.013 5.388 1.887 6.891 5.686 1.49 3.8 2.247 10.443 2.247 19.93h-18.588a39.653 39.653 0 0 1-.149-4.198Zm42.242 26.461a17.497 17.497 0 0 1-7.189 6.071 23.74 23.74 0 0 1-9.859 1.875c-6.817 0-12.342-2.173-16.589-6.518-4.246-4.334-6.928-10.704-8.021-19.097h43.161c.012-8.792-1.59-15.807-4.793-21.047-3.204-5.24-7.103-8.915-11.684-11.014A34.305 34.305 0 0 0 140.84 49.1a31.029 31.029 0 0 0-18.054 5.538c-5.352 3.7-9.549 8.816-12.591 15.36-3.042 6.543-4.569 13.956-4.569 22.25 0 8.382 1.589 15.596 4.793 21.643 3.203 6.047 7.425 10.616 12.665 13.708a32.18 32.18 0 0 0 16.7 4.631c7.103 0 13.683-2.371 19.78-7.115 6.084-4.743 10.033-12.354 11.833-22.846l-1.192-.298Zm90.345 27.291v.745h-40.156v-.745a6.19 6.19 0 0 0 3.365-3.377 16.933 16.933 0 0 0 .981-6.382V70.829c0-2.98-.596-5.252-1.801-6.817a6.085 6.085 0 0 0-5.103-2.334 8.592 8.592 0 0 0-7.351 3.75v54.087a16.9 16.9 0 0 0 .969 6.382 6.186 6.186 0 0 0 3.365 3.378v.745h-40.131v-.745c4.892-2.099 7.338-5.849 7.338-11.237V72.046c0-3.6-.546-6.295-1.651-8.083-1.105-1.8-2.993-3.092-5.687-3.9v-.744l35.81-10.207v13.646a19.55 19.55 0 0 1 7.859-10.107c3.639-2.347 8.009-3.526 13.113-3.526 6.891 0 12.23 1.9 16.03 5.687 3.799 3.799 5.699 9.138 5.711 16.03v47.208c.013 5.376 2.459 9.126 7.339 11.212Zm45.78.746v-.745c-4.892-2.087-7.338-5.849-7.338-11.262V49.1l-35.81 10.206v.745c2.707.808 4.607 2.099 5.699 3.9 1.105 1.787 1.652 4.482 1.652 8.083v45.991c0 5.389-2.446 9.139-7.339 11.238v.745h43.136Zm80.324-4.557a14.764 14.764 0 0 0 5.538 3.824v.745h-35.81v-13.497a23.102 23.102 0 0 1-7.413 11.287c-3.551 2.98-7.859 4.47-12.938 4.47-6.494 0-11.597-1.9-15.31-5.687-3.712-3.8-5.562-9.834-5.55-18.129V67.986c0-3.688-.546-6.457-1.651-8.295-1.093-1.837-2.993-3.153-5.687-3.96v-.783l35.81-5.848v59.625c0 2.794.596 4.93 1.8 6.382 1.192 1.453 2.943 2.173 5.24 2.173 2.595 0 4.495-1.055 5.687-3.141v-46.29c0-3.787-.373-6.643-1.118-8.53a7.008 7.008 0 0 0-3.973-4.048v-.77l33.562-5.389v68.901c.025 3.514.621 5.997 1.813 7.438Zm8.704-3.825a46.26 46.26 0 0 0 13.857 7.786 47.106 47.106 0 0 0 16.254 2.856c7.202 0 13.274-1.453 18.24-4.371a28.91 28.91 0 0 0 11.163-11.275 30.987 30.987 0 0 0 3.75-14.912c0-9.685-4.657-16.725-13.944-21.121l-22.015-10.207a11.844 11.844 0 0 1-4.756-3.8 8.005 8.005 0 0 1-1.564-4.643 6.132 6.132 0 0 1 2.396-4.954c1.602-1.28 4.098-1.913 7.5-1.913 4.507 0 8.878 1.478 13.112 4.42 4.234 2.944 7.711 8.109 10.405 15.51l.894.148 9.288-17.383a42.13 42.13 0 0 0-13.038-6.519 50.724 50.724 0 0 0-14.676-2.16c-7.512.012-13.783 1.403-18.824 4.197-5.041 2.793-8.766 6.32-11.163 10.566a26.033 26.033 0 0 0-3.576 12.963c0 10.194 4.892 17.582 14.677 22.177l23.219 10.79c3.489 1.49 5.24 3.998 5.24 7.487a7.935 7.935 0 0 1-2.545 5.923c-1.701 1.651-4.446 2.471-8.245 2.471-5.6 0-10.815-2.322-15.658-6.966a37.01 37.01 0 0 1-10.107-17.148l-.894-.149-8.99 20.227Z" fill="#fff"/><path d="M326.954 38.099V22.007h9.71v1.726h-7.76v5.438h7.264v1.726h-7.264v5.464h7.884v1.726h-9.834v.012ZM341.706 22.006l4.147 6.693h.124l4.147-6.693h2.297l-5.066 8.046 5.066 8.047h-2.297l-4.147-6.569h-.124l-4.147 6.569h-2.298l5.191-8.047-5.191-8.046h2.298ZM355.215 38.099V22.006h5.439c1.266 0 2.297.224 3.104.683.807.447 1.403 1.068 1.788 1.838s.583 1.627.583 2.583c0 .943-.198 1.813-.583 2.582-.385.77-.981 1.391-1.776 1.85-.807.46-1.825.683-3.079.683h-3.899v-1.738h3.837c.869 0 1.564-.149 2.086-.447a2.7 2.7 0 0 0 1.142-1.217c.236-.509.36-1.093.36-1.738 0-.646-.124-1.217-.36-1.726-.236-.51-.621-.907-1.155-1.205-.534-.285-1.229-.434-2.111-.434h-3.427v14.366h-1.949v.013ZM369.507 38.099V22.006h9.71v1.726h-7.761v5.439h7.264v1.726h-7.264v5.463h7.885v1.726h-9.834v.013ZM382.979 38.099V22.006h5.438c1.254 0 2.285.211 3.092.646.807.435 1.403 1.018 1.788 1.75.385.746.584 1.59.584 2.534 0 .944-.199 1.788-.584 2.52-.385.733-.981 1.304-1.788 1.726-.807.423-1.825.621-3.067.621h-4.395V30.04h4.333c.857 0 1.552-.124 2.074-.372.521-.249.906-.609 1.142-1.068.236-.46.36-1.019.36-1.664 0-.646-.124-1.205-.36-1.689s-.621-.857-1.155-1.117c-.534-.261-1.229-.398-2.098-.398h-3.427V38.1h-1.937Zm7.574-7.227 3.961 7.227h-2.26l-3.899-7.227h2.198ZM399.319 22.006V38.1h-1.949V22.006h1.949ZM403.454 38.099V22.006h9.71v1.726h-7.761v5.439h7.264v1.726h-7.264v5.463h7.885v1.726h-9.834v.013ZM429.691 22.006V38.1h-1.888l-8.766-12.64h-.161v12.64h-1.95V22.006h1.888l8.803 12.665h.162V22.006h1.912ZM446.789 27.035h-1.95a4.02 4.02 0 0 0-.596-1.478 4.053 4.053 0 0 0-1.043-1.067 4.732 4.732 0 0 0-1.353-.659 5.312 5.312 0 0 0-1.54-.223c-.968 0-1.863.248-2.645.732-.794.497-1.415 1.217-1.875 2.173-.459.956-.695 2.136-.695 3.527 0 1.39.236 2.57.695 3.526.46.956 1.093 1.689 1.875 2.173.782.497 1.664.733 2.645.733.534 0 1.043-.075 1.54-.224a4.43 4.43 0 0 0 1.353-.658c.41-.286.758-.646 1.043-1.08.286-.422.484-.919.596-1.478h1.95c-.149.82-.41 1.565-.808 2.21a5.944 5.944 0 0 1-1.44 1.652 6.307 6.307 0 0 1-1.937 1.03 7.27 7.27 0 0 1-2.285.348c-1.378 0-2.595-.335-3.663-1.006-1.067-.67-1.912-1.626-2.52-2.855-.609-1.242-.919-2.707-.919-4.396s.31-3.166.919-4.396c.608-1.241 1.453-2.185 2.52-2.855 1.068-.67 2.285-1.006 3.663-1.006.808 0 1.577.112 2.285.348.72.235 1.366.583 1.937 1.03a5.944 5.944 0 0 1 1.44 1.652c.385.682.659 1.415.808 2.247ZM450.166 38.099V22.006h9.71v1.726h-7.761v5.439h7.264v1.726h-7.264v5.463H460v1.726h-9.834v.013ZM121.581 21.919V38.01h-1.949V21.92h1.949ZM126.026 21.92h2.322l5.464 13.36h.186l5.463-13.36h2.322v16.092h-1.825v-12.23h-.161l-5.029 12.23h-1.763l-5.029-12.23h-.162v12.23h-1.825V21.92h.037ZM146.253 21.92h2.322l5.464 13.36h.186l5.463-13.36h2.322v16.092h-1.825v-12.23h-.161l-5.029 12.23h-1.763l-5.029-12.23h-.162v12.23h-1.825V21.92h.037ZM166.48 38.012V21.92h9.71v1.726h-7.76v5.438h7.264v1.726h-7.264v5.464h7.884V38h-9.834v.012ZM180.275 38.012V21.92h5.439c1.254 0 2.284.211 3.092.646.807.422 1.403 1.018 1.788 1.75.385.745.583 1.59.583 2.533 0 .944-.198 1.788-.583 2.521-.385.733-.981 1.304-1.788 1.726-.808.422-1.826.62-3.067.62h-4.396v-1.762h4.334c.856 0 1.552-.125 2.073-.373.522-.248.907-.608 1.142-1.068.236-.46.361-1.018.361-1.664 0-.645-.125-1.204-.361-1.688-.235-.485-.62-.857-1.154-1.118-.534-.26-1.23-.397-2.099-.397h-3.427v14.366h-1.937Zm7.574-7.227 3.961 7.227h-2.259l-3.899-7.227h2.197ZM203.768 25.943c-.1-.795-.472-1.416-1.143-1.85-.67-.435-1.49-.658-2.47-.658-.708 0-1.329.112-1.863.347-.534.236-.944.547-1.242.956a2.26 2.26 0 0 0-.447 1.379c0 .434.1.794.311 1.105.211.31.472.559.794.757.323.199.671.373 1.019.497.347.124.683.236.981.31l1.639.435c.422.112.881.26 1.403.46.521.198 1.005.459 1.49.794.471.335.869.757 1.179 1.279.311.521.46 1.155.46 1.912a4.23 4.23 0 0 1-.683 2.36c-.447.707-1.118 1.253-1.975 1.676-.869.41-1.912.62-3.153.62-1.155 0-2.148-.186-2.993-.558-.844-.373-1.502-.894-1.974-1.553-.484-.67-.745-1.44-.807-2.321h2.011c.05.608.261 1.105.621 1.502s.82.683 1.366.882c.546.198 1.142.285 1.788.285.745 0 1.416-.124 1.999-.36.596-.248 1.056-.584 1.403-1.018.348-.435.522-.944.522-1.54 0-.534-.149-.968-.447-1.303-.298-.336-.696-.609-1.18-.82a11.165 11.165 0 0 0-1.577-.546l-1.974-.572c-1.254-.36-2.247-.881-2.98-1.552-.733-.67-1.105-1.552-1.105-2.632 0-.906.248-1.689.732-2.36.485-.67 1.155-1.191 1.975-1.576.819-.385 1.763-.559 2.781-.559 1.043 0 1.962.186 2.769.559.807.372 1.453.87 1.925 1.515.471.633.72 1.366.745 2.173h-1.9v-.025ZM211.578 21.92v16.092h-1.949V21.92h1.949ZM216.694 21.92l4.78 13.547h.186l4.781-13.547h2.049l-5.911 16.092h-2.011l-5.911-16.092h2.037ZM231.544 38.012V21.92h9.71v1.726h-7.76v5.438h7.263v1.726h-7.263v5.464h7.884V38h-9.834v.012Z" fill="#fff"/><path d="M250.318 26.452c5.526 1.155 9.834 2.26 13.286 3.626h31.737c3.452-1.366 7.773-2.471 13.286-3.626-11.522-2.434-17.818-4.619-21.903-9.486h-14.515c-4.085 4.867-10.368 7.052-21.891 9.486ZM278.393 45.71h6.183c2.496-6.804 5.749-10.467 11.945-13.111h-30.073c6.196 2.632 9.461 6.307 11.945 13.112ZM266.448 32.598h30.073c.273-.111.546-.223.832-.335h-31.737c.285.1.558.211.832.335ZM280.479 59.22c.968-4.359 1.899-7.935 2.967-10.927h-5.947c1.08 2.992 2.011 6.568 2.98 10.927ZM278.517 46.046h5.947c.038-.112.075-.223.124-.335h-6.183c.025.112.074.223.112.335Z" fill="#314D9C"/><path d="M273.513 18.803h13.944c-2.471-3.092-4.123-7.227-5.662-13.112h-2.62c-1.552 5.885-3.204 10.02-5.662 13.112ZM274.233 19.139h14.515c-.099-.112-.199-.223-.285-.335h-13.944c-.1.112-.199.223-.286.335ZM279.473.24c-.571 2.558-.497 2.322-1.217 5.104h2.446c-.41-1.577-.819-3.266-1.229-5.104Z" fill="#314D9C"/><path d="M261.071 37.54c5.526 1.155 9.834 2.26 13.286 3.626h31.737c3.452-1.365 7.773-2.47 13.286-3.625-11.523-2.434-17.818-4.62-21.903-9.487h-14.515c-4.073 4.855-10.368 7.053-21.891 9.487ZM283.347 54.279h6.183c2.496-6.805 5.749-10.468 11.945-13.113h-30.073c6.196 2.645 9.461 6.308 11.945 13.113Z" fill="#E6096F"/><path d="M286.973 64.2c.968-4.36 1.899-7.935 2.967-10.928h-5.948c1.081 2.993 2.012 6.581 2.981 10.927ZM282.254 27.706h13.944c-2.471-3.091-4.122-7.226-5.662-13.112h-2.62c-1.552 5.886-3.191 10.033-5.662 13.112ZM281.969 28.054h14.515a6.545 6.545 0 0 1-.286-.335h-13.944a7.059 7.059 0 0 1-.285.335ZM286.699 5.729a149.095 149.095 0 0 1-1.217 5.103h2.447c-.423-1.577-.82-3.266-1.23-5.103Z" fill="#E6096F"/><path d="M254.801 35.094c5.525 1.155 9.834 2.26 13.286 3.626h31.737c3.452-1.366 7.773-2.47 13.286-3.626-11.523-2.433-17.818-4.619-21.903-9.486h-14.503c-4.085 4.867-10.381 7.053-21.903 9.486ZM281.609 51.907h6.183c2.496-6.805 5.749-10.468 11.945-13.113h-30.073c6.196 2.633 9.461 6.308 11.945 13.113Z" fill="#F9AF03"/><path d="M285.11 62.088c.969-4.358 1.9-7.934 2.968-10.927h-5.948c1.068 2.993 1.999 6.569 2.98 10.927ZM277.734 25h13.944c-2.47-3.093-4.122-7.227-5.662-13.113h-2.619c-1.553 5.886-3.192 10.02-5.663 13.112ZM282.006 6.424c-.41 1.838-.807 3.526-1.217 5.103h2.446a126.15 126.15 0 0 1-1.229-5.103Z" fill="#F9AF03"/><path d="M251.548 29.99c5.525 1.155 9.834 2.26 13.285 3.626h31.738c3.452-1.366 7.773-2.47 13.286-3.626-11.523-2.433-17.818-4.619-21.904-9.486h-14.515c-4.072 4.867-10.368 7.053-21.89 9.486ZM282.639 47.076h6.184c2.495-6.804 5.749-10.467 11.945-13.112h-30.074c6.196 2.633 9.462 6.308 11.945 13.112ZM270.694 33.952h30.074c.273-.112.546-.224.831-.336h-31.737c.286.112.571.224.832.336ZM283.719 58.338c.969-4.358 1.9-7.934 2.968-10.926h-5.948c1.081 2.992 2.012 6.568 2.98 10.926ZM282.763 47.411h5.948c.037-.111.074-.223.124-.335h-6.184c.025.112.075.224.112.335Z" fill="#39AA35"/><path d="M274.469 20.542h13.944c-2.471-3.092-4.122-7.227-5.662-13.112h-2.62c-1.552 5.885-3.204 10.032-5.662 13.112Z" fill="#39AA35"/><path d="M261.891 31.878c4.768 1.105 8.48 2.173 11.46 3.477h27.367c2.98-1.317 6.693-2.372 11.461-3.477-9.934-2.334-15.36-4.433-18.886-9.102h-12.516c-3.527 4.67-8.953 6.768-18.886 9.102ZM282.006 48.479h5.563c2.235-6.805 5.165-10.468 10.74-13.112h-27.044c5.575 2.632 8.506 6.307 10.741 13.112Z" fill="#fff"/><path d="M282.018 59.22c.869-4.36 1.714-7.935 2.67-10.928h-5.339c.956 2.993 1.788 6.569 2.669 10.927ZM275.748 22.776h12.541c-2.223-3.092-3.7-7.226-5.091-13.112h-2.359c-1.391 5.886-2.869 10.033-5.091 13.112Z" fill="#fff"/><path d="M282.515 2.55c-.41 1.837-.807 3.526-1.217 5.103h2.446c-.422-1.565-.819-3.266-1.229-5.104Z" fill="#39AA35"/></svg>