<svg xmlns="http://www.w3.org/2000/svg" viewBox="0 0 1000 633.59" fill="#fff"><path d="M162.76 137.35a23.13 23.13 0 0 0-11.16 9.39 28.3 28.3 0 0 0-3.87 15v38.75q-11.28 8-28.89 12.8a133.1 133.1 0 0 1-35.23 4.82q-25.6 0-44.39-10.34a71.2 71.2 0 0 1-29-29.35Q0 159.42 0 133.82 0 107 11.86 86.73a79.81 79.81 0 0 1 33.59-31.35q21.72-11 50.61-11A111.21 111.21 0 0 1 150.31 58l-17.38 47.45h-1.17q-1.65-25.6-10.92-37.7c-6.19-8.06-15.31-11.56-27.37-11.56-25.52 0-38.28 21.39-38.28 65.23a182.07 182.07 0 0 0 5.29 45.44q5.28 20.55 14.44 32.41t20.2 11.86q4 0 5.64-1.41v-45.6q0-12.21-4.23-18.32t-14.09-8.45v-1.18h80.32ZM258.58 179a27.61 27.61 0 0 0 11.27-9.51l1.88.47q-4.23 24.66-18.55 35.82t-31 11.15a50.59 50.59 0 0 1-26.18-7.25q-12.33-7.27-19.85-21.49t-7.51-33.93q0-19.5 7.16-34.88t19.73-24.07a48.6 48.6 0 0 1 28.3-8.69 53.7 53.7 0 0 1 22.55 4.93q10.78 4.94 18.31 17.26t7.52 33h-67.65q2.58 19.73 12.57 29.94t26 10.22a37.74 37.74 0 0 0 15.45-2.97Zm-51.08-75.83q-3.88 8.83-3.88 24.83a64.49 64.49 0 0 0 .24 6.58H233q0-22.31-3.53-31.24t-10.8-8.92q-7.29-.05-11.17 8.75ZM411.47 212.27v1.17h-62.94v-1.17a9.74 9.74 0 0 0 5.28-5.29 26.35 26.35 0 0 0 1.53-10v-76.31q0-7-2.82-10.68a9.51 9.51 0 0 0-8-3.65 13.45 13.45 0 0 0-11.52 5.88V197a26.35 26.35 0 0 0 1.53 10 9.68 9.68 0 0 0 5.28 5.29v1.17H276.9v-1.17q11.5-4.94 11.51-17.62v-72.1q0-8.46-2.59-12.68t-8.92-6.11v-1.17l56.13-16V108a30.62 30.62 0 0 1 12.33-15.85q8.56-5.52 20.55-5.52 16.2 0 25.13 8.92t8.96 25.12v74q0 12.67 11.47 17.6ZM482.63 212.27v1.17H415v-1.17q11.5-4.94 11.51-17.62v-72.1q0-8.46-2.58-12.68t-8.93-6.11v-1.17l56.14-16v108q-.01 12.75 11.49 17.68ZM607.34 206.28a23.23 23.23 0 0 0 8.69 6v1.17H559.9V192.3a36.23 36.23 0 0 1-11.62 17.7q-8.34 7-20.28 7-15.27 0-24-8.92t-8.7-28.42v-63.45q0-8.68-2.58-13T483.81 97v-1.22l56.13-9.16v93.47q0 6.58 2.82 10c1.88 2.27 4.61 3.41 8.22 3.41q6.1 0 8.92-4.93V116c0-5.94-.59-10.41-1.76-13.38a11 11 0 0 0-6.22-6.34v-1.21l52.61-8.45v108q0 8.27 2.81 11.66ZM638.93 212.5a72.59 72.59 0 0 1-21.73-12.21l14.1-31.71 1.41.24a58 58 0 0 0 15.85 26.89q11.38 10.92 24.54 10.92 8.92 0 12.92-3.87a12.5 12.5 0 0 0 4-9.28q0-8.22-8.22-11.74l-36.4-16.91q-23-10.8-23-34.76a40.89 40.89 0 0 1 5.6-20.32q5.64-10 17.5-16.56t29.5-6.57A79.22 79.22 0 0 1 698 90a66 66 0 0 1 20.43 10.22l-14.56 27.24-1.41-.23q-6.35-17.39-16.32-24.31T665.59 96q-8 0-11.75 3a9.58 9.58 0 0 0-3.75 7.76 12.57 12.57 0 0 0 2.46 7.28A18.56 18.56 0 0 0 660 120l34.52 16q21.85 10.34 21.85 33.11a48.65 48.65 0 0 1-5.87 23.37 45.33 45.33 0 0 1-17.5 17.67Q681.33 217 664.41 217a74.41 74.41 0 0 1-25.48-4.5Z"/><path class="cls-1" d="M443.79 100.11c-8.63-35.94-15.62-42.26-55.4-50 39.78-7.8 46.77-14.12 55.4-50.06 8.64 35.94 15.63 42.26 55.41 50.06-39.78 7.74-46.77 14.06-55.41 50ZM605.88 281.74v-1.32c-.32.43-.65.87-1 1.32ZM15.55 402.74v-213.9h19.38v213.9ZM71.46 266.81v24.42c6.29-18.12 19.38-27.94 37.26-27.94 18.13 0 31 9.82 36.26 27.44 7.55-18.13 20.9-27.44 38.77-27.44 24.68 0 38.78 17.37 38.78 47.08v82.33H204.9v-80.82c0-21.4-9.06-33-26.44-33-19.13 0-31 14.1-31 37.26v76.56h-17.34v-81.83c0-20.39-9.57-32-26.18-32-19.14 0-31.48 15.61-31.48 40.28v77.54H55.09V266.81ZM257.28 266.81v24.42c6.29-18.12 19.39-27.94 37.26-27.94 18.13 0 31 9.82 36.26 27.44 7.55-18.13 20.9-27.44 38.77-27.44 24.68 0 38.78 17.37 38.78 47.08v82.33h-17.63v-80.82c0-21.4-9.06-33-26.43-33-19.14 0-31 14.1-31 37.26v76.56h-17.35v-81.83c0-20.39-9.57-32-26.18-32-19.14 0-31.48 15.61-31.48 40.28v73.55h-17.37V266.81ZM532 334.29h-91.4c.26 28.45 15.87 45.82 40.29 45.82 17.62 0 30.21-9.81 35.5-26.94l14.86 6.05c-7.81 23.41-26.19 36.51-51.62 36.51-35.75 0-56.65-22.92-56.65-65.22 0-41.29 21.15-66.72 55.9-66.72 33.73 0 53.12 20.14 53.12 58.41Zm-17.88-16.62c0-25.93-13.09-39.78-35.5-39.78-23.41 0-37.51 16.11-38 42.05h73.52Z"/><path class="cls-1" d="M601.94 263.79a30.83 30.83 0 0 1 4.79.25v17.12h-2c-12.08 0-20.65 3.53-26.94 9.57-11.58 11.58-13.85 28.45-13.85 44.32v57.65h-17.39V266.81h16.37v30.72c5.79-19.39 19.63-33.74 39.02-33.74ZM603.93 353.68l17.62-3c3.28 20.39 15.87 30.46 36.26 30.46 18.38 0 28.45-8.06 28.45-21.65s-7-19.89-22.41-21.91l-20.14-2.26c-24.17-3-35.75-16.12-35.75-35.25 0-22.41 17.62-36.26 46.33-36.26 28 0 46.83 14.35 49.35 38.78l-17.38 3.52c-2.77-17.62-13.84-27.95-32.22-27.95-18.13 0-28.71 7.81-28.71 21.15 0 11.84 7.3 18.89 23.92 20.9l20.15 2.52c24.42 3 34.49 15.61 34.49 35.25 0 23.41-17.37 37.77-46.83 37.77-29.71-.02-49.06-14.63-53.13-42.07ZM714 226.49h19.89v27.7H714Zm1.26 40.32h17.37V392.7h-17.41ZM739.12 266.81h19.14l31.22 89.13c2.26 7.05 4 12.84 5.28 18.64h.76c1.26-5.8 3.27-11.59 5.54-18.64l31.22-89.13h19.13L804.84 392.7H785.7ZM954.37 334.29H863c.25 28.45 15.86 45.82 40.28 45.82 17.63 0 30.21-9.81 35.5-26.94l14.86 6.05c-7.81 23.41-26.19 36.51-51.62 36.51-35.75 0-56.65-22.92-56.65-65.22 0-41.29 21.15-66.72 55.9-66.72 33.74 0 53.12 20.14 53.12 58.41Zm-17.87-16.62c0-25.93-13.1-39.78-35.5-39.78-23.42 0-37.52 16.11-38 42.05h73.5ZM126.23 558.87v16.62H3.44V396.72h109v16.62H22.83v62.19h85.36v16.62H22.83v66.72Z"/><path class="cls-1" d="m156.53 510.28-43.06-60.68h20.9l24.43 36.25c4.28 6.55 6.79 10.83 8.56 14.1h.25a130.09 130.09 0 0 1 8.31-14.1l23.16-36.25h21.66l-42.3 61.94L224 575.49h-20.9l-28-40.54a117.47 117.47 0 0 1-7.8-13.59h-.25c-1.52 2.77-4 7.3-8.31 13.84l-27.7 40.29H110.2ZM229.79 449.6h16.62v26.69c7.55-18.89 23.16-29.71 43-29.71 31 0 51.12 26.43 51.12 66 0 40-21.41 66-52.38 66-20.39 0-35.25-11.58-41-26.69v76.66l-17.37 5.11Zm92.15 62.94c0-31.22-13.59-50.35-36.76-50.35-23.66 0-38.27 19.64-38.27 47.33v5.54c0 28.2 14.1 47.84 37.27 47.84 23.41 0 37.76-19.14 37.76-50.36Z"/><path class="cls-1" d="M441.06 517.08h-91.39c.25 28.45 15.86 45.82 40.28 45.82 17.63 0 30.22-9.82 35.5-26.94l14.86 6c-7.81 23.42-26.19 36.51-51.62 36.51-35.75 0-56.65-22.91-56.65-65.21 0-41.29 21.15-66.72 55.9-66.72 33.74 0 53.12 20.14 53.12 58.41Zm-17.87-16.62c0-25.94-13.1-39.78-35.5-39.78-23.42 0-37.52 16.11-38 42h73.52ZM508.55 446.58h9.06V464h-6.3c-12.08 0-20.64 3.52-26.94 9.57-11.58 11.58-13.84 28.45-13.84 44.31v57.66h-17.38V449.6h16.37v30.72c5.79-19.39 19.64-33.74 39.03-33.74ZM516.35 409.28h19.89V437h-19.89Zm1.26 37.3H535v128.91h-17.39ZM654.83 517.08h-91.4c.25 28.45 15.86 45.82 40.29 45.82 17.62 0 30.21-9.82 35.5-26.94l14.85 6c-7.8 23.42-26.18 36.51-51.61 36.51-35.76 0-56.65-22.91-56.65-65.21 0-41.29 21.15-66.72 55.89-66.72 33.74 0 53.13 20.14 53.13 58.41ZM637 500.46c0-25.94-13.09-39.78-35.5-39.78-23.42 0-37.52 16.11-38 42H637ZM666.91 449.6h16.62v27.69c7.56-20.64 22.16-31.22 43.06-31.22 28.2 0 42.8 17.63 42.8 51.62v77.8h-17.62V498.7c0-24.43-10.58-37-30.47-37-22.66 0-37 18.13-37 47.59v66.22h-17.39ZM778.7 512.54c0-41 21.91-66 57.16-66 28.7 0 47.83 16.87 50.86 45.57l-17.88 2c-2.52-20.89-14.6-32.23-33.74-32.23-23.41 0-37.77 18.89-37.77 50.36 0 32.23 14.36 50.86 38.53 50.86 18.88 0 30.71-11.33 34-32.23l16.87 2.52c-4.54 28.45-23.17 45.07-50.86 45.07-35.01.05-57.17-25.38-57.17-65.92ZM1000 517.08h-91.4c.26 28.45 15.86 45.82 40.29 45.82 17.62 0 30.21-9.82 35.5-26.94l14.86 6c-7.81 23.42-26.19 36.51-51.62 36.51-35.75 0-56.65-22.91-56.65-65.21 0-41.29 21.15-66.72 55.89-66.72 33.74 0 53.13 20.14 53.13 58.41Zm-17.88-16.62c0-25.94-13.09-39.78-35.5-39.78-23.41 0-37.51 16.11-38 42h73.52Z"/></svg>