<svg width="460" height="133" viewBox="0 0 460 133" fill="none" xmlns="http://www.w3.org/2000/svg">
<path fill-rule="evenodd" clip-rule="evenodd" d="M96.785 87.455C98.4488 84.7482 100.945 82.6497 103.9 81.4702V80.7251H52.6683V81.4826C56.8651 82.4759 59.8576 84.2763 61.658 86.8714C63.4584 89.4665 64.3524 93.3654 64.3524 98.5556V127.648C63.6571 128.256 62.4527 128.554 60.7516 128.554C56.058 128.554 51.7618 126.034 47.863 120.993C43.9641 115.951 40.8972 109.06 38.6497 100.319C36.303 90.8324 35.173 81.0976 35.2724 71.3257C35.2724 43.3631 43.4178 29.7171 59.6961 29.7171C67.3821 29.7171 73.2056 31.9521 77.1541 37.0927C81.1026 42.2456 83.4246 50.2544 84.1199 61.1439H84.8649L95.9531 30.8719C85.3492 25.0732 73.4291 22.0808 61.3476 22.1801C49.0674 22.1801 38.3021 24.5145 29.064 29.1956C20.1115 33.616 12.6615 40.5818 7.63267 49.199C2.59146 57.8162 0.0708618 67.8241 0.0708618 79.2351C0.0708618 90.1122 2.24379 99.5986 6.58966 107.682C10.7741 115.616 17.206 122.135 25.0906 126.406C33.087 130.802 42.5238 133 53.4133 133C61.0123 132.975 68.5741 131.944 75.8876 129.92C83.3749 127.872 89.5212 125.152 94.3141 121.75V97.0284C94.2396 93.6634 95.0839 90.3481 96.785 87.455ZM127.963 75.5105C127.963 68.7061 128.783 63.4165 130.434 59.6667C132.086 55.9292 134.457 54.0667 137.562 54.0916C140.653 54.0791 142.95 55.9789 144.453 59.7784C145.943 63.578 146.7 70.2209 146.7 79.7073H128.112C127.988 78.3167 127.939 76.9136 127.963 75.5105ZM170.205 101.971C168.405 104.615 165.921 106.714 163.016 108.042C159.899 109.359 156.547 110.004 153.157 109.917C146.34 109.917 140.815 107.744 136.568 103.399C132.322 99.0651 129.64 92.6953 128.547 84.3015H171.708C171.72 75.5105 170.118 68.495 166.915 63.2551C163.711 58.0153 159.812 54.3399 155.231 52.2415C150.711 50.1679 145.806 49.0876 140.84 49.1C134.395 49.0255 128.075 50.9625 122.786 54.6379C117.434 58.3381 113.237 63.4538 110.195 69.9974C107.153 76.5411 105.626 83.9539 105.626 92.2483C105.626 100.63 107.215 107.844 110.419 113.891C113.622 119.938 117.844 124.507 123.084 127.599C128.125 130.641 133.899 132.243 139.784 132.23C146.887 132.23 153.467 129.859 159.564 125.115C165.648 120.372 169.597 112.761 171.397 102.269L170.205 101.971ZM260.55 129.262V130.007H220.394V129.262C221.921 128.629 223.138 127.412 223.759 125.885C224.491 123.836 224.827 121.676 224.74 119.503V70.8291C224.74 67.8491 224.144 65.5768 222.939 64.0123C221.722 62.4478 219.81 61.5786 217.836 61.6779C214.906 61.591 212.137 63.0065 210.485 65.4278V119.515C210.398 121.688 210.721 123.849 211.454 125.897C212.075 127.425 213.291 128.642 214.819 129.275V130.02H174.688V129.275C179.58 127.176 182.026 123.426 182.026 118.038V72.0459C182.026 68.4451 181.48 65.7506 180.375 63.9626C179.27 62.1622 177.382 60.8708 174.688 60.0638V59.3188L210.498 49.1122V62.7582C211.913 58.5986 214.682 55.035 218.357 52.651C221.996 50.3042 226.366 49.1246 231.47 49.1246C238.361 49.1246 243.7 51.0244 247.5 54.8115C251.299 58.611 253.199 63.9502 253.211 70.8415V118.05C253.224 123.426 255.67 127.176 260.55 129.262ZM306.33 130.008V129.263C301.438 127.176 298.992 123.414 298.992 118.001V49.0999L263.182 59.3065V60.0515C265.889 60.8586 267.789 62.1499 268.881 63.9504C269.986 65.7384 270.533 68.4328 270.533 72.0337V118.025C270.533 123.414 268.087 127.164 263.194 129.263V130.008H306.33ZM386.654 125.451C388.181 127.139 390.081 128.443 392.192 129.275V130.02H356.382V116.523C355.091 120.943 352.508 124.867 348.969 127.81C345.418 130.79 341.11 132.28 336.031 132.28C329.537 132.28 324.434 130.38 320.721 126.593C317.009 122.793 315.159 116.759 315.171 108.464V67.9858C315.171 64.298 314.625 61.5291 313.52 59.6914C312.427 57.8537 310.527 56.5376 307.833 55.7305V54.9482L343.643 49.0999V108.725C343.643 111.519 344.239 113.655 345.443 115.107C346.635 116.56 348.386 117.28 350.683 117.28C353.278 117.28 355.178 116.225 356.37 114.139V67.8492C356.37 64.0621 355.997 61.2063 355.252 59.3189C354.557 57.4688 353.117 56.0036 351.279 55.271V54.5012L384.841 49.1123V118.013C384.866 121.527 385.462 124.01 386.654 125.451ZM395.358 121.626C399.493 125.004 404.187 127.636 409.215 129.412C414.418 131.311 419.919 132.28 425.469 132.268C432.671 132.268 438.743 130.815 443.709 127.897C448.403 125.252 452.277 121.353 454.872 116.622C457.355 112.041 458.647 106.912 458.622 101.71C458.622 92.0248 453.965 84.9845 444.678 80.589L422.663 70.3824C420.776 69.5505 419.136 68.2467 417.907 66.5829C416.914 65.2419 416.368 63.6153 416.343 61.939C416.318 60.002 417.199 58.1643 418.739 56.9847C420.341 55.7058 422.837 55.0725 426.239 55.0725C430.746 55.0725 435.117 56.5501 439.351 59.4929C443.585 62.4357 447.062 67.601 449.756 75.0014L450.65 75.1504L459.938 57.767C456.002 54.849 451.594 52.6513 446.9 51.2482C442.132 49.8078 437.19 49.0877 432.224 49.0877C424.712 49.1001 418.441 50.4907 413.4 53.2845C408.359 56.0783 404.634 59.6046 402.237 63.8512C399.928 67.7873 398.698 72.2573 398.661 76.8143C398.661 87.0084 403.553 94.3964 413.338 98.9906L436.557 109.781C440.046 111.271 441.797 113.779 441.797 117.268C441.822 119.516 440.903 121.664 439.252 123.191C437.551 124.842 434.806 125.662 431.007 125.662C425.407 125.662 420.192 123.34 415.349 118.696C410.482 114.015 406.98 108.08 405.242 101.548L404.348 101.399L395.358 121.626Z" fill="white"/>
<path d="M326.954 38.099V22.0068H336.664V23.7328H328.904V29.1713H336.168V30.8972H328.904V36.3606H336.788V38.0865H326.954V38.099Z" fill="white"/>
<path d="M341.706 22.0063L345.853 28.699H345.977L350.124 22.0063H352.421L347.355 30.0524L352.421 38.0985H350.124L345.977 31.53H345.853L341.706 38.0985H339.408L344.599 30.0524L339.408 22.0063H341.706Z" fill="white"/>
<path d="M355.215 38.0985V22.0063H360.654C361.92 22.0063 362.951 22.2298 363.758 22.6893C364.565 23.1363 365.161 23.7571 365.546 24.5269C365.931 25.2968 366.129 26.1535 366.129 27.1096C366.129 28.0533 365.931 28.9225 365.546 29.6923C365.161 30.4622 364.565 31.083 363.77 31.5424C362.963 32.0018 361.945 32.2253 360.691 32.2253H356.792V30.487H360.629C361.498 30.487 362.193 30.338 362.715 30.04C363.236 29.742 363.621 29.3322 363.857 28.8231C364.093 28.3141 364.217 27.7305 364.217 27.0848C364.217 26.4391 364.093 25.868 363.857 25.3589C363.621 24.8498 363.236 24.4524 362.702 24.1544C362.168 23.8689 361.473 23.7199 360.591 23.7199H357.164V38.0861H355.215V38.0985Z" fill="white"/>
<path d="M369.507 38.0985V22.0063H379.217V23.7323H371.456V29.1708H378.72V30.8967H371.456V36.3601H379.341V38.0861H369.507V38.0985Z" fill="white"/>
<path d="M382.979 38.0985V22.0063H388.417C389.671 22.0063 390.702 22.2174 391.509 22.652C392.316 23.0866 392.912 23.6702 393.297 24.4028C393.682 25.1478 393.881 25.9921 393.881 26.9358C393.881 27.8795 393.682 28.7238 393.297 29.4564C392.912 30.189 392.316 30.7602 391.509 31.1823C390.702 31.6045 389.684 31.8032 388.442 31.8032H384.047V30.04H388.38C389.237 30.04 389.932 29.9158 390.454 29.6675C390.975 29.4192 391.36 29.0591 391.596 28.5996C391.832 28.1402 391.956 27.5815 391.956 26.9358C391.956 26.2901 391.832 25.7314 391.596 25.2471C391.36 24.7629 390.975 24.3904 390.441 24.1296C389.907 23.8689 389.212 23.7323 388.343 23.7323H384.916V38.0985H382.979ZM390.553 30.8719L394.514 38.0985H392.254L388.355 30.8719H390.553Z" fill="white"/>
<path d="M399.319 22.0063V38.0985H397.37V22.0063H399.319Z" fill="white"/>
<path d="M403.454 38.0985V22.0063H413.164V23.7323H405.403V29.1708H412.667V30.8967H405.403V36.3601H413.288V38.0861H403.454V38.0985Z" fill="white"/>
<path d="M429.691 22.0063V38.0985H427.803L419.037 25.4582H418.876V38.0985H416.926V22.0063H418.814L427.617 34.6714H427.779V22.0063H429.691Z" fill="white"/>
<path d="M446.789 27.0349H444.839C444.727 26.4762 444.529 25.9795 444.243 25.5573C443.958 25.1352 443.61 24.7751 443.2 24.4895C442.79 24.2039 442.343 23.9804 441.847 23.8314C441.35 23.6824 440.841 23.6079 440.307 23.6079C439.339 23.6079 438.444 23.8562 437.662 24.3405C436.868 24.8372 436.247 25.5573 435.787 26.5134C435.328 27.4695 435.092 28.6491 435.092 30.0398C435.092 31.4305 435.328 32.6101 435.787 33.5662C436.247 34.5222 436.88 35.2548 437.662 35.7391C438.444 36.2358 439.326 36.4717 440.307 36.4717C440.841 36.4717 441.35 36.3972 441.847 36.2482C442.343 36.0992 442.79 35.8881 443.2 35.5901C443.61 35.3045 443.958 34.9444 444.243 34.5098C444.529 34.0877 444.727 33.591 444.839 33.0322H446.789C446.64 33.8517 446.379 34.5967 445.981 35.2424C445.597 35.8881 445.112 36.4468 444.541 36.8938C443.97 37.3408 443.324 37.6885 442.604 37.9244C441.884 38.1603 441.127 38.2721 440.319 38.2721C438.941 38.2721 437.724 37.9368 436.656 37.2663C435.589 36.5958 434.744 35.6397 434.136 34.4105C433.527 33.1688 433.217 31.7036 433.217 30.015C433.217 28.3263 433.527 26.8487 434.136 25.6194C434.744 24.3777 435.589 23.4341 436.656 22.7636C437.724 22.0931 438.941 21.7578 440.319 21.7578C441.127 21.7578 441.896 21.8696 442.604 22.1055C443.324 22.3414 443.97 22.6891 444.541 23.1361C445.112 23.5831 445.597 24.1418 445.981 24.7875C446.366 25.4704 446.64 26.203 446.789 27.0349Z" fill="white"/>
<path d="M450.166 38.0985V22.0063H459.876V23.7323H452.115V29.1708H459.379V30.8967H452.115V36.3601H460V38.0861H450.166V38.0985Z" fill="white"/>
<path d="M121.581 21.9189V38.0111H119.632V21.9189H121.581Z" fill="white"/>
<path d="M126.026 21.9199H128.348L133.812 35.2804H133.998L139.461 21.9199H141.783V38.012H139.958V25.7815H139.797L134.768 38.012H133.005L127.976 25.7815H127.814V38.012H125.989V21.9199H126.026Z" fill="white"/>
<path d="M146.253 21.9199H148.575L154.039 35.2804H154.225L159.688 21.9199H162.01V38.012H160.185V25.7815H160.024L154.995 38.012H153.232L148.203 25.7815H148.041V38.012H146.216V21.9199H146.253Z" fill="white"/>
<path d="M166.48 38.012V21.9199H176.19V23.6459H168.43V29.0844H175.694V30.8103H168.43V36.2737H176.314V37.9996H166.48V38.012Z" fill="white"/>
<path d="M180.275 38.012V21.9199H185.714C186.968 21.9199 187.998 22.131 188.806 22.5656C189.613 22.9878 190.209 23.5838 190.594 24.3164C190.979 25.0614 191.177 25.9057 191.177 26.8494C191.177 27.793 190.979 28.6374 190.594 29.37C190.209 30.1026 189.613 30.6737 188.806 31.0959C187.998 31.5181 186.98 31.7167 185.739 31.7167H181.343V29.9536H185.677C186.533 29.9536 187.229 29.8294 187.75 29.5811C188.272 29.3327 188.657 28.9726 188.892 28.5132C189.128 28.0538 189.253 27.495 189.253 26.8494C189.253 26.2037 189.128 25.645 188.892 25.1607C188.657 24.6764 188.272 24.3039 187.738 24.0432C187.204 23.7824 186.508 23.6459 185.639 23.6459H182.212V38.012H180.275ZM187.849 30.7855L191.81 38.012H189.551L185.652 30.7855H187.849Z" fill="white"/>
<path d="M203.768 25.9429C203.668 25.1482 203.296 24.5274 202.625 24.0928C201.955 23.6582 201.135 23.4347 200.155 23.4347C199.447 23.4347 198.826 23.5465 198.292 23.7824C197.758 24.0183 197.348 24.3287 197.05 24.7385C196.752 25.1482 196.603 25.5952 196.603 26.1167C196.603 26.5513 196.703 26.9114 196.914 27.2218C197.125 27.5322 197.386 27.7806 197.708 27.9792C198.031 28.1779 198.379 28.3517 198.727 28.4759C199.074 28.6001 199.41 28.7118 199.708 28.7863L201.347 29.2209C201.769 29.3327 202.228 29.4817 202.75 29.6803C203.271 29.879 203.755 30.1398 204.24 30.475C204.711 30.8103 205.109 31.2324 205.419 31.7539C205.73 32.2754 205.879 32.9087 205.879 33.6661C205.879 34.5353 205.655 35.3175 205.196 36.0253C204.749 36.7331 204.078 37.2794 203.221 37.7016C202.352 38.1113 201.309 38.3224 200.068 38.3224C198.913 38.3224 197.92 38.1361 197.075 37.7636C196.231 37.3911 195.573 36.8696 195.101 36.2115C194.617 35.541 194.356 34.7712 194.294 33.8896H196.305C196.355 34.498 196.566 34.9947 196.926 35.392C197.286 35.7894 197.746 36.075 198.292 36.2736C198.838 36.4723 199.434 36.5592 200.08 36.5592C200.825 36.5592 201.496 36.435 202.079 36.1991C202.675 35.9508 203.135 35.6155 203.482 35.181C203.83 34.7464 204.004 34.2373 204.004 33.6413C204.004 33.1074 203.855 32.6728 203.557 32.3375C203.259 32.0023 202.861 31.7291 202.377 31.518C201.893 31.3069 201.359 31.1207 200.8 30.9717L198.826 30.4005C197.572 30.0404 196.579 29.5189 195.846 28.8484C195.113 28.1779 194.741 27.2963 194.741 26.2161C194.741 25.3096 194.989 24.5274 195.473 23.8569C195.958 23.1864 196.628 22.6649 197.448 22.2799C198.267 21.895 199.211 21.7212 200.229 21.7212C201.272 21.7212 202.191 21.9074 202.998 22.2799C203.805 22.6524 204.451 23.1491 204.923 23.7948C205.394 24.428 205.643 25.1606 205.668 25.9677H203.768V25.9429Z" fill="white"/>
<path d="M211.578 21.9199V38.012H209.629V21.9199H211.578Z" fill="white"/>
<path d="M216.694 21.9199L221.474 35.4666H221.66L226.441 21.9199H228.49L222.579 38.012H220.568L214.657 21.9199H216.694Z" fill="white"/>
<path d="M231.544 38.012V21.9199H241.254V23.6459H233.494V29.0844H240.757V30.8103H233.494V36.2737H241.378V37.9996H231.544V38.012Z" fill="white"/>
<path d="M250.318 26.4522C255.844 27.607 260.152 28.7121 263.604 30.0779H295.341C298.793 28.7121 303.114 27.607 308.627 26.4522C297.105 24.0185 290.809 21.8332 286.724 16.9658H272.209C268.124 21.8332 261.841 24.0185 250.318 26.4522Z" fill="#314D9C"/>
<path d="M278.393 45.7107H284.576C287.072 38.9063 290.325 35.2434 296.521 32.5986H266.448C272.644 35.231 275.909 38.9063 278.393 45.7107Z" fill="#314D9C"/>
<path d="M266.448 32.5984H296.521C296.794 32.4867 297.067 32.3749 297.353 32.2632H265.616C265.901 32.3625 266.174 32.4743 266.448 32.5984Z" fill="#314D9C"/>
<path d="M280.479 59.2197C281.447 54.8614 282.378 51.2854 283.446 48.293H277.499C278.579 51.2854 279.51 54.8614 280.479 59.2197Z" fill="#314D9C"/>
<path d="M278.517 46.0462H284.464C284.502 45.9344 284.539 45.8227 284.588 45.7109H278.405C278.43 45.8227 278.479 45.9344 278.517 46.0462Z" fill="#314D9C"/>
<path d="M273.513 18.803H287.457C284.986 15.7112 283.334 11.5765 281.795 5.69092H279.175C277.623 11.5765 275.971 15.7112 273.513 18.803Z" fill="#314D9C"/>
<path d="M274.233 19.139H288.748C288.649 19.0272 288.549 18.9155 288.463 18.8037H274.519C274.419 18.9155 274.32 19.0272 274.233 19.139Z" fill="#314D9C"/>
<path d="M279.473 0.240234C278.902 2.79809 278.976 2.56217 278.256 5.34352H280.702C280.292 3.76659 279.883 2.07791 279.473 0.240234Z" fill="#314D9C"/>
<path d="M261.071 37.5406C266.597 38.6954 270.905 39.8005 274.357 41.1663H306.094C309.546 39.8005 313.867 38.6954 319.38 37.5406C307.857 35.1069 301.562 32.9216 297.477 28.0542H282.962C278.889 32.9092 272.594 35.1069 261.071 37.5406Z" fill="#E6096F"/>
<path d="M283.347 54.2786H289.53C292.026 47.4742 295.279 43.8113 301.475 41.1665H271.402C277.598 43.8113 280.863 47.4742 283.347 54.2786Z" fill="#E6096F"/>
<path d="M286.973 64.1992C287.941 59.8409 288.872 56.2649 289.94 53.2725H283.992C285.073 56.2649 286.004 59.8533 286.973 64.1992Z" fill="#E6096F"/>
<path d="M282.254 27.7063H296.198C293.727 24.6146 292.076 20.4798 290.536 14.5942H287.916C286.364 20.4798 284.725 24.627 282.254 27.7063Z" fill="#E6096F"/>
<path d="M281.969 28.054H296.484C296.384 27.9423 296.285 27.8305 296.198 27.7188H282.254C282.167 27.8305 282.068 27.9423 281.969 28.054Z" fill="#E6096F"/>
<path d="M286.699 5.72852C286.29 7.5662 285.892 9.25488 285.482 10.8318H287.929C287.506 9.25488 287.109 7.5662 286.699 5.72852Z" fill="#E6096F"/>
<path d="M254.801 35.0943C260.326 36.2491 264.635 37.3542 268.087 38.72H299.824C303.276 37.3542 307.597 36.2491 313.11 35.0943C301.587 32.6606 295.292 30.4753 291.207 25.6079H276.704C272.619 30.4753 266.323 32.6606 254.801 35.0943Z" fill="#F9AF03"/>
<path d="M281.609 51.9065H287.792C290.288 45.1021 293.541 41.4392 299.737 38.7944H269.664C275.86 41.4268 279.125 45.1021 281.609 51.9065Z" fill="#F9AF03"/>
<path d="M285.11 62.0879C286.079 57.7296 287.01 54.1536 288.078 51.1611H282.13C283.198 54.1536 284.129 57.7296 285.11 62.0879Z" fill="#F9AF03"/>
<path d="M277.734 24.9993H291.678C289.208 21.9075 287.556 17.7728 286.016 11.8872H283.397C281.844 17.7728 280.205 21.9075 277.734 24.9993Z" fill="#F9AF03"/>
<path d="M282.006 6.42383C281.596 8.26151 281.199 9.95019 280.789 11.5271H283.235C282.813 9.95019 282.416 8.26151 282.006 6.42383Z" fill="#F9AF03"/>
<path d="M251.548 29.9903C257.073 31.1451 261.382 32.2502 264.833 33.616H296.571C300.023 32.2502 304.344 31.1451 309.857 29.9903C298.334 27.5566 292.039 25.3713 287.953 20.5039H273.438C269.366 25.3713 263.07 27.5566 251.548 29.9903Z" fill="#39AA35"/>
<path d="M282.639 47.0764H288.823C291.318 40.2721 294.572 36.6091 300.768 33.9644H270.694C276.89 36.5967 280.156 40.2721 282.639 47.0764Z" fill="#39AA35"/>
<path d="M270.694 33.9515H300.768C301.041 33.8397 301.314 33.728 301.599 33.6162H269.862C270.148 33.728 270.433 33.8397 270.694 33.9515Z" fill="#39AA35"/>
<path d="M283.719 58.3384C284.688 53.9801 285.619 50.4041 286.687 47.4116H280.739C281.82 50.4041 282.751 53.9801 283.719 58.3384Z" fill="#39AA35"/>
<path d="M282.763 47.4114H288.711C288.748 47.2997 288.785 47.1879 288.835 47.0762H282.651C282.676 47.1879 282.726 47.2997 282.763 47.4114Z" fill="#39AA35"/>
<path d="M274.469 20.5418H288.413C285.942 17.45 284.291 13.3152 282.751 7.42969H280.131C278.579 13.3152 276.927 17.4624 274.469 20.5418Z" fill="#39AA35"/>
<path d="M261.891 31.8779C266.659 32.9829 270.371 34.0508 273.351 35.3545H300.718C303.698 34.0384 307.411 32.9829 312.179 31.8779C302.245 29.5435 296.819 27.4451 293.293 22.7764H280.777C277.25 27.4451 271.824 29.5435 261.891 31.8779Z" fill="white"/>
<path d="M282.006 48.4788H287.569C289.804 41.6744 292.734 38.0115 298.309 35.3667H271.265C276.84 37.9991 279.771 41.6744 282.006 48.4788Z" fill="white"/>
<path d="M282.018 59.2192C282.887 54.8609 283.732 51.2849 284.688 48.2925H279.349C280.305 51.2849 281.137 54.8609 282.018 59.2192Z" fill="white"/>
<path d="M275.748 22.7762H288.289C286.066 19.6844 284.589 15.5496 283.198 9.66406H280.839C279.448 15.5496 277.97 19.6968 275.748 22.7762Z" fill="white"/>
<path d="M282.515 2.54932C282.105 4.387 281.708 6.07567 281.298 7.6526H283.744C283.322 6.08809 282.925 4.387 282.515 2.54932Z" fill="#39AA35"/>
</svg>
