<svg width="56" height="52" viewBox="0 0 56 52" fill="none" xmlns="http://www.w3.org/2000/svg">
<path d="M0 21.3108C4.4804 22.2496 7.97412 23.1481 10.7731 24.2586H36.5077C39.3067 23.1481 42.8105 22.2496 47.2808 21.3108C37.9374 19.3322 32.8328 17.5554 29.5203 13.5981H17.7505C14.438 17.5554 9.3434 19.3322 0 21.3108Z" fill="#314D9C"/>
<path d="M22.7645 36.9685H27.7785C29.8022 31.4364 32.4401 28.4584 37.4642 26.3081H13.0788C18.1029 28.4483 20.7508 31.4364 22.7645 36.9685Z" fill="#314D9C"/>
<path d="M13.0788 26.307H37.4642C37.6857 26.2164 37.9072 26.1258 38.1388 26.0352H12.4042C12.6357 26.1157 12.8572 26.2063 13.0788 26.307Z" fill="#314D9C"/>
<path d="M24.456 47.9515C25.2413 44.4082 25.9964 41.5008 26.8623 39.0679H22.0396C22.9155 41.5008 23.6706 44.4082 24.456 47.9515Z" fill="#314D9C"/>
<path d="M22.8651 37.2406H27.6879C27.7181 37.15 27.7483 37.0594 27.7886 36.9688H22.7745C22.7947 37.0594 22.8349 37.15 22.8651 37.2406Z" fill="#314D9C"/>
<path d="M18.8076 15.0921H30.1144C28.1108 12.5784 26.7717 9.21671 25.5232 4.43164H23.3988C22.1403 9.21671 20.8011 12.5784 18.8076 15.0921Z" fill="#314D9C"/>
<path d="M19.3916 15.3641H31.1614C31.0809 15.2735 31.0003 15.1829 30.9299 15.0923H19.6232C19.5426 15.1829 19.462 15.2735 19.3916 15.3641Z" fill="#314D9C"/>
<path d="M23.6404 0C23.1773 2.07959 23.2377 1.88778 22.6537 4.14908H24.6372C24.3049 2.86701 23.9727 1.49407 23.6404 0Z" fill="#314D9C"/>
<path d="M8.71915 30.3259C13.1995 31.2648 16.6933 32.1632 19.4923 33.2737H45.2269C48.0259 32.1632 51.5296 31.2648 56 30.3259C46.6566 28.3473 41.5519 26.5706 38.2395 22.6133H26.4696C23.1672 26.5605 18.0625 28.3473 8.71915 30.3259Z" fill="#E6096F"/>
<path d="M26.7817 43.9343H31.7958C33.8195 38.4022 36.4574 35.4242 41.4815 33.2739H17.096C22.1201 35.4242 24.7681 38.4022 26.7817 43.9343Z" fill="#E6096F"/>
<path d="M29.7217 51.9999C30.507 48.4565 31.2621 45.5491 32.128 43.1162H27.3053C28.1812 45.5491 28.9364 48.4666 29.7217 51.9999Z" fill="#E6096F"/>
<path d="M25.8957 22.3303H37.2024C35.1988 19.8167 33.8597 16.455 32.6113 11.6699H30.4868C29.2283 16.455 27.8993 19.8268 25.8957 22.3303Z" fill="#E6096F"/>
<path d="M25.6642 22.6122H37.434C37.3534 22.5216 37.2729 22.4309 37.2024 22.3403H25.8957C25.8252 22.4309 25.7447 22.5216 25.6642 22.6122Z" fill="#E6096F"/>
<path d="M29.5002 4.46191C29.1679 5.95599 28.8457 7.32892 28.5135 8.611H30.4969C30.1546 7.32892 29.8324 5.95599 29.5002 4.46191Z" fill="#E6096F"/>
<path d="M3.6347 28.3372C8.11511 29.276 11.6088 30.1745 14.4078 31.2849H40.1424C42.9414 30.1745 46.4452 29.276 50.9155 28.3372C41.5721 26.3585 36.4675 24.5818 33.155 20.6245H21.3952C18.0827 24.5818 12.9781 26.3585 3.6347 28.3372Z" fill="#F9AF03"/>
<path d="M25.3722 42.0056H30.3862C32.41 36.4735 35.0479 33.4955 40.072 31.3452H15.6865C20.7106 33.4854 23.3585 36.4735 25.3722 42.0056Z" fill="#F9AF03"/>
<path d="M28.2115 50.2836C28.9969 46.7402 29.752 43.8328 30.6178 41.3999H25.7951C26.661 43.8328 27.4161 46.7402 28.2115 50.2836Z" fill="#F9AF03"/>
<path d="M22.2309 20.1297H33.5376C31.534 17.616 30.1949 14.2543 28.9464 9.46924H26.822C25.5635 14.2543 24.2345 17.616 22.2309 20.1297Z" fill="#F9AF03"/>
<path d="M25.6944 5.02734C25.3622 6.52142 25.04 7.89435 24.7077 9.17642H26.6912C26.3488 7.89435 26.0267 6.52142 25.6944 5.02734Z" fill="#F9AF03"/>
<path d="M0.996765 24.1873C5.47717 25.1261 8.97087 26.0246 11.7699 27.135H37.5045C40.3035 26.0246 43.8073 25.1261 48.2776 24.1873C38.9342 22.2086 33.8296 20.4319 30.5171 16.4746H18.7472C15.4448 20.4319 10.3402 22.2086 0.996765 24.1873Z" fill="#39AA35"/>
<path d="M26.2078 38.0789H31.2219C33.2456 32.5468 35.8835 29.5687 40.9076 27.4185H16.5221C21.5462 29.5586 24.1942 32.5468 26.2078 38.0789Z" fill="#39AA35"/>
<path d="M16.5221 27.4071H40.9076C41.1291 27.3165 41.3506 27.2259 41.5822 27.1353H15.8476C16.0791 27.2259 16.3107 27.3165 16.5221 27.4071Z" fill="#39AA35"/>
<path d="M27.0838 47.2347C27.8691 43.6914 28.6243 40.784 29.4902 38.3511H24.6674C25.5434 40.784 26.2985 43.6914 27.0838 47.2347Z" fill="#39AA35"/>
<path d="M26.3085 38.3505H31.1313C31.1615 38.2598 31.1917 38.1692 31.232 38.0786H26.2179C26.2381 38.1692 26.2783 38.2598 26.3085 38.3505Z" fill="#39AA35"/>
<path d="M19.5829 16.5056H30.8896C28.886 13.992 27.5469 10.6303 26.2985 5.84521H24.1741C22.9155 10.6303 21.5764 14.002 19.5829 16.5056Z" fill="#39AA35"/>
<path d="M9.3837 25.7215C13.2499 26.6199 16.2604 27.4881 18.6768 28.5481H40.8673C43.2837 27.478 46.2942 26.6199 50.1604 25.7215C42.1057 23.8236 37.7059 22.1175 34.8465 18.3218H24.6976C21.8382 22.1175 17.4384 23.8236 9.3837 25.7215Z" fill="white"/>
<path d="M25.6944 39.2185H30.2049C32.0172 33.6864 34.3934 30.7084 38.914 28.5581H16.9852C21.5059 30.6983 23.8821 33.6864 25.6944 39.2185Z" fill="white"/>
<path d="M25.7044 47.9506C26.4092 44.4072 27.0938 41.4998 27.8691 39.0669H23.5397C24.315 41.4998 24.9896 44.4072 25.7044 47.9506Z" fill="white"/>
<path d="M20.6199 18.322H30.7889C28.9867 15.8084 27.7886 12.4467 26.6609 7.66162H24.748C23.6203 12.4467 22.4222 15.8185 20.6199 18.322Z" fill="white"/>
<path d="M26.1072 1.87744C25.7749 3.37151 25.4527 4.74444 25.1205 6.02652H27.1039C26.7616 4.75454 26.4394 3.37151 26.1072 1.87744Z" fill="#39AA35"/>
</svg>
