<svg width="334" height="566" viewBox="0 0 334 566" fill="none" xmlns="http://www.w3.org/2000/svg">
<path d="M8.82476 557C8.82476 557 -0.34375 455.321 42.4578 415.264C48.1171 374.779 59.6399 334.293 94.3858 314.118" stroke="url(#paint0_linear_929_286)" stroke-width="16" stroke-linecap="round" stroke-linejoin="round"/>
<path d="M141.961 277.811C141.961 277.811 141.746 287.712 141.746 300.802C126.745 301.713 114.001 304.617 103.15 309.11" stroke="url(#paint1_linear_929_286)" stroke-width="8" stroke-linecap="round" stroke-linejoin="round"/>
<path d="M110.661 170.142C110.661 170.142 110.661 224.403 114.534 235.183C118.406 245.962 134.685 279.821 148.637 279.05C162.588 278.28 175.764 265.992 175.764 265.992" stroke="url(#paint2_linear_929_286)" stroke-width="8" stroke-linecap="round" stroke-linejoin="round"/>
<path d="M110.135 557L325.77 553.893C325.77 553.893 329.632 474.302 305.674 406.295C281.716 338.288 239.977 314.354 239.977 314.354C239.977 314.354 221.428 213.176 215.245 177.999C209.062 142.822 172.922 135.087 163.874 135.087C142.597 135.087 93.1339 150.931 93.1339 224.143C93.1339 259.497 104.726 278.83 104.726 278.83C104.726 278.83 83.8562 335.863 110.135 349.059C136.414 362.255 169.801 362.124 169.801 362.124" stroke="url(#paint3_linear_929_286)" stroke-width="16" stroke-linecap="round" stroke-linejoin="round"/>
<path d="M209.567 329.142C209.567 329.142 199.489 217.367 195.619 178.139C191.749 138.911 126.937 150.437 126.937 150.437" stroke="url(#paint4_linear_929_286)" stroke-width="16" stroke-linecap="round" stroke-linejoin="round"/>
<path d="M114.417 464.354C114.417 464.354 131.528 413.798 164.48 371.497C197.431 329.195 240.866 315.37 240.866 315.37" stroke="url(#paint5_linear_929_286)" stroke-width="16" stroke-linecap="round" stroke-linejoin="round"/>
<path d="M62.2648 557C62.2648 557 55.4985 518.23 95.6378 510.677" stroke="url(#paint6_linear_929_286)" stroke-width="16" stroke-linecap="round" stroke-linejoin="round"/>
<path d="M249.63 367.953C197.254 416.678 204.957 491.898 204.957 491.898" stroke="url(#paint7_linear_929_286)" stroke-width="16" stroke-linecap="round" stroke-linejoin="round"/>
<path d="M151.976 205.197C154.053 203.019 156.834 201.69 159.8 201.458C164.67 201.144 170.756 205.197 170.756 205.197" stroke="url(#paint8_linear_929_286)" stroke-width="8" stroke-linecap="round" stroke-linejoin="round"/>
<path d="M110.661 201.441L132.937 203.239L129.691 232.74H149.472" stroke="url(#paint9_linear_929_286)" stroke-width="8" stroke-linecap="round" stroke-linejoin="round"/>
<path d="M41.1772 71.2362C59.5004 71.2362 74.3543 56.3822 74.3543 38.059C74.3543 19.7358 59.5004 4.88184 41.1772 4.88184C22.8539 4.88184 8 19.7358 8 38.059C8 56.3822 22.8539 71.2362 41.1772 71.2362Z" stroke="url(#paint10_linear_929_286)" stroke-width="8" stroke-linecap="round" stroke-linejoin="round"/>
<path d="M100.854 24.0535H223.547" stroke="url(#paint11_linear_929_286)" stroke-width="16" stroke-linecap="round" stroke-linejoin="round"/>
<path d="M100.854 56.6045H178.476" stroke="url(#paint12_linear_929_286)" stroke-width="8" stroke-linecap="round" stroke-linejoin="round"/>
<path d="M290.945 22.4094L326 57.4645" stroke="url(#paint13_linear_929_286)" stroke-width="8" stroke-linecap="round" stroke-linejoin="round"/>
<path d="M326 22.4094L290.945 57.4645" stroke="url(#paint14_linear_929_286)" stroke-width="8" stroke-linecap="round" stroke-linejoin="round"/>
<path d="M227.094 488.142L168.252 498.158" stroke="url(#paint15_linear_929_286)" stroke-width="16" stroke-linecap="round" stroke-linejoin="round"/>
<path d="M93.771 464.354C93.771 464.354 68.2057 491.838 88.349 503.463C108.492 515.088 110.037 534.464 142.575 534.464C175.113 534.464 188.283 520.512 188.283 520.512C188.283 520.512 156.521 483.31 146.446 477.886C136.371 472.461 93.771 464.354 93.771 464.354Z" stroke="url(#paint16_linear_929_286)" stroke-width="16" stroke-linecap="round" stroke-linejoin="round"/>
<defs>
<linearGradient id="paint0_linear_929_286" x1="8" y1="314.118" x2="46.8267" y2="315.104" gradientUnits="userSpaceOnUse">
<stop stop-color="#80FF98"/>
<stop offset="1" stop-color="#FFC700"/>
</linearGradient>
<linearGradient id="paint1_linear_929_286" x1="103.15" y1="277.811" x2="120.469" y2="279.344" gradientUnits="userSpaceOnUse">
<stop stop-color="#80FF98"/>
<stop offset="1" stop-color="#FFC700"/>
</linearGradient>
<linearGradient id="paint2_linear_929_286" x1="110.661" y1="170.142" x2="139.888" y2="171.389" gradientUnits="userSpaceOnUse">
<stop stop-color="#80FF98"/>
<stop offset="1" stop-color="#FFC700"/>
</linearGradient>
<linearGradient id="paint3_linear_929_286" x1="93.1339" y1="135.087" x2="197.702" y2="139.207" gradientUnits="userSpaceOnUse">
<stop stop-color="#80FF98"/>
<stop offset="1" stop-color="#FFC700"/>
</linearGradient>
<linearGradient id="paint4_linear_929_286" x1="126.937" y1="148.858" x2="164.06" y2="150.073" gradientUnits="userSpaceOnUse">
<stop stop-color="#80FF98"/>
<stop offset="1" stop-color="#FFC700"/>
</linearGradient>
<linearGradient id="paint5_linear_929_286" x1="114.417" y1="315.37" x2="171.079" y2="318.803" gradientUnits="userSpaceOnUse">
<stop stop-color="#80FF98"/>
<stop offset="1" stop-color="#FFC700"/>
</linearGradient>
<linearGradient id="paint6_linear_929_286" x1="61.8347" y1="510.677" x2="76.9963" y2="511.467" gradientUnits="userSpaceOnUse">
<stop stop-color="#80FF98"/>
<stop offset="1" stop-color="#FFC700"/>
</linearGradient>
<linearGradient id="paint7_linear_929_286" x1="204.559" y1="367.953" x2="224.816" y2="368.479" gradientUnits="userSpaceOnUse">
<stop stop-color="#80FF98"/>
<stop offset="1" stop-color="#FFC700"/>
</linearGradient>
<linearGradient id="paint8_linear_929_286" x1="151.976" y1="201.441" x2="159.468" y2="204.115" gradientUnits="userSpaceOnUse">
<stop stop-color="#80FF98"/>
<stop offset="1" stop-color="#FFC700"/>
</linearGradient>
<linearGradient id="paint9_linear_929_286" x1="110.661" y1="201.441" x2="127.981" y2="202.974" gradientUnits="userSpaceOnUse">
<stop stop-color="#80FF98"/>
<stop offset="1" stop-color="#FFC700"/>
</linearGradient>
<linearGradient id="paint10_linear_929_286" x1="8" y1="4.88184" x2="37.6913" y2="7.00148" gradientUnits="userSpaceOnUse">
<stop stop-color="#80FF98"/>
<stop offset="1" stop-color="#FFC700"/>
</linearGradient>
<linearGradient id="paint11_linear_929_286" x1="100.854" y1="24.0535" x2="101.564" y2="30.2723" gradientUnits="userSpaceOnUse">
<stop stop-color="#80FF98"/>
<stop offset="1" stop-color="#FFC700"/>
</linearGradient>
<linearGradient id="paint12_linear_929_286" x1="100.854" y1="56.6045" x2="101.955" y2="62.7057" gradientUnits="userSpaceOnUse">
<stop stop-color="#80FF98"/>
<stop offset="1" stop-color="#FFC700"/>
</linearGradient>
<linearGradient id="paint13_linear_929_286" x1="290.945" y1="22.4094" x2="306.631" y2="23.5292" gradientUnits="userSpaceOnUse">
<stop stop-color="#80FF98"/>
<stop offset="1" stop-color="#FFC700"/>
</linearGradient>
<linearGradient id="paint14_linear_929_286" x1="290.945" y1="22.4094" x2="306.631" y2="23.5292" gradientUnits="userSpaceOnUse">
<stop stop-color="#80FF98"/>
<stop offset="1" stop-color="#FFC700"/>
</linearGradient>
<linearGradient id="paint15_linear_929_286" x1="168.252" y1="488.142" x2="190.757" y2="497.581" gradientUnits="userSpaceOnUse">
<stop stop-color="#80FF98"/>
<stop offset="1" stop-color="#FFC700"/>
</linearGradient>
<linearGradient id="paint16_linear_929_286" x1="80.6142" y1="464.354" x2="128.463" y2="469.6" gradientUnits="userSpaceOnUse">
<stop stop-color="#80FF98"/>
<stop offset="1" stop-color="#FFC700"/>
</linearGradient>
</defs>
</svg>
