<svg width="306" height="518" viewBox="0 0 306 518" fill="none" xmlns="http://www.w3.org/2000/svg">
<path d="M8.75214 509.88C8.75214 509.88 0.39092 416.829 39.4237 380.171C44.5848 343.121 55.093 306.071 86.7795 287.608" stroke="url(#paint0_linear_929_286)" stroke-width="16" stroke-linecap="round" stroke-linejoin="round"/>
<path d="M130.165 254.381C130.165 254.381 129.97 263.442 129.97 275.421C116.289 276.255 104.667 278.912 94.7717 283.024" stroke="url(#paint1_linear_929_286)" stroke-width="8" stroke-linecap="round" stroke-linejoin="round"/>
<path d="M101.622 155.848C101.622 155.848 101.622 205.506 105.154 215.37C108.685 225.235 123.531 256.221 136.254 255.516C148.977 254.81 160.992 243.566 160.992 243.566" stroke="url(#paint2_linear_929_286)" stroke-width="8" stroke-linecap="round" stroke-linejoin="round"/>
<path d="M101.142 509.88L297.791 507.036C297.791 507.036 301.313 434.199 279.464 371.963C257.616 309.727 219.551 287.823 219.551 287.823C219.551 287.823 202.635 195.231 196.997 163.039C191.358 130.847 158.4 123.768 150.149 123.768C130.746 123.768 85.6378 138.268 85.6378 205.268C85.6378 237.622 96.2093 255.313 96.2093 255.313C96.2093 255.313 77.177 307.507 101.142 319.583C125.107 331.66 155.554 331.54 155.554 331.54" stroke="url(#paint3_linear_929_286)" stroke-width="16" stroke-linecap="round" stroke-linejoin="round"/>
<path d="M191.819 301.356C191.819 301.356 182.628 199.066 179.099 163.167C175.57 127.268 116.465 137.816 116.465 137.816" stroke="url(#paint4_linear_929_286)" stroke-width="16" stroke-linecap="round" stroke-linejoin="round"/>
<path d="M105.047 425.096C105.047 425.096 120.651 378.83 150.702 340.117C180.752 301.405 220.362 288.753 220.362 288.753" stroke="url(#paint5_linear_929_286)" stroke-width="16" stroke-linecap="round" stroke-linejoin="round"/>
<path d="M57.4868 509.88C57.4868 509.88 51.3162 474.4 87.9212 467.488" stroke="url(#paint6_linear_929_286)" stroke-width="8" stroke-linecap="round" stroke-linejoin="round"/>
<path d="M228.354 336.874C180.59 381.465 187.615 450.302 187.615 450.302" stroke="url(#paint7_linear_929_286)" stroke-width="8" stroke-linecap="round" stroke-linejoin="round"/>
<path d="M139.299 187.929C141.193 185.935 143.729 184.719 146.434 184.507C150.875 184.22 156.425 187.929 156.425 187.929" stroke="url(#paint8_linear_929_286)" stroke-width="8" stroke-linecap="round" stroke-linejoin="round"/>
<path d="M101.622 184.491L121.936 186.137L118.976 213.135H137.016" stroke="url(#paint9_linear_929_286)" stroke-width="8" stroke-linecap="round" stroke-linejoin="round"/>
<path d="M38.2559 65.3355C54.9658 65.3355 68.5118 51.742 68.5118 34.9736C68.5118 18.2053 54.9658 4.61182 38.2559 4.61182C21.546 4.61182 8 18.2053 8 34.9736C8 51.742 21.546 65.3355 38.2559 65.3355Z" stroke="url(#paint10_linear_929_286)" stroke-width="8" stroke-linecap="round" stroke-linejoin="round"/>
<path d="M92.678 22.1562H204.568" stroke="url(#paint11_linear_929_286)" stroke-width="16" stroke-linecap="round" stroke-linejoin="round"/>
<path d="M92.678 51.9456H163.465" stroke="url(#paint12_linear_929_286)" stroke-width="8" stroke-linecap="round" stroke-linejoin="round"/>
<path d="M266.031 20.6516L298 52.7322" stroke="url(#paint13_linear_929_286)" stroke-width="8" stroke-linecap="round" stroke-linejoin="round"/>
<path d="M298 20.6516L266.031 52.7322" stroke="url(#paint14_linear_929_286)" stroke-width="8" stroke-linecap="round" stroke-linejoin="round"/>
<path d="M207.803 446.865L154.142 456.031" stroke="url(#paint15_linear_929_286)" stroke-width="8" stroke-linecap="round" stroke-linejoin="round"/>
<path d="M86.2188 425.095C86.2188 425.095 62.9046 450.247 81.2743 460.885C99.6439 471.524 101.052 489.257 130.726 489.257C160.399 489.257 172.409 476.488 172.409 476.488C172.409 476.488 143.443 442.443 134.256 437.479C125.068 432.514 86.2188 425.095 86.2188 425.095Z" stroke="url(#paint16_linear_929_286)" stroke-width="16" stroke-linecap="round" stroke-linejoin="round"/>
<defs>
<linearGradient id="paint0_linear_929_286" x1="8" y1="287.608" x2="43.4081" y2="288.504" gradientUnits="userSpaceOnUse">
<stop stop-color="#80FF98"/>
<stop offset="1" stop-color="#FFC700"/>
</linearGradient>
<linearGradient id="paint1_linear_929_286" x1="94.7717" y1="254.381" x2="110.567" y2="255.774" gradientUnits="userSpaceOnUse">
<stop stop-color="#80FF98"/>
<stop offset="1" stop-color="#FFC700"/>
</linearGradient>
<linearGradient id="paint2_linear_929_286" x1="101.622" y1="155.848" x2="128.275" y2="156.981" gradientUnits="userSpaceOnUse">
<stop stop-color="#80FF98"/>
<stop offset="1" stop-color="#FFC700"/>
</linearGradient>
<linearGradient id="paint3_linear_929_286" x1="85.6378" y1="123.768" x2="181" y2="127.512" gradientUnits="userSpaceOnUse">
<stop stop-color="#80FF98"/>
<stop offset="1" stop-color="#FFC700"/>
</linearGradient>
<linearGradient id="paint4_linear_929_286" x1="116.465" y1="136.371" x2="150.319" y2="137.474" gradientUnits="userSpaceOnUse">
<stop stop-color="#80FF98"/>
<stop offset="1" stop-color="#FFC700"/>
</linearGradient>
<linearGradient id="paint5_linear_929_286" x1="105.047" y1="288.753" x2="156.721" y2="291.873" gradientUnits="userSpaceOnUse">
<stop stop-color="#80FF98"/>
<stop offset="1" stop-color="#FFC700"/>
</linearGradient>
<linearGradient id="paint6_linear_929_286" x1="57.0945" y1="467.488" x2="70.9214" y2="468.206" gradientUnits="userSpaceOnUse">
<stop stop-color="#80FF98"/>
<stop offset="1" stop-color="#FFC700"/>
</linearGradient>
<linearGradient id="paint7_linear_929_286" x1="187.252" y1="336.874" x2="205.725" y2="337.352" gradientUnits="userSpaceOnUse">
<stop stop-color="#80FF98"/>
<stop offset="1" stop-color="#FFC700"/>
</linearGradient>
<linearGradient id="paint8_linear_929_286" x1="139.299" y1="184.491" x2="146.136" y2="186.923" gradientUnits="userSpaceOnUse">
<stop stop-color="#80FF98"/>
<stop offset="1" stop-color="#FFC700"/>
</linearGradient>
<linearGradient id="paint9_linear_929_286" x1="101.622" y1="184.491" x2="117.417" y2="185.885" gradientUnits="userSpaceOnUse">
<stop stop-color="#80FF98"/>
<stop offset="1" stop-color="#FFC700"/>
</linearGradient>
<linearGradient id="paint10_linear_929_286" x1="8" y1="4.61182" x2="35.0779" y2="6.53815" gradientUnits="userSpaceOnUse">
<stop stop-color="#80FF98"/>
<stop offset="1" stop-color="#FFC700"/>
</linearGradient>
<linearGradient id="paint11_linear_929_286" x1="92.678" y1="22.1562" x2="93.4545" y2="28.3589" gradientUnits="userSpaceOnUse">
<stop stop-color="#80FF98"/>
<stop offset="1" stop-color="#FFC700"/>
</linearGradient>
<linearGradient id="paint12_linear_929_286" x1="92.678" y1="51.9456" x2="93.8777" y2="58.0081" gradientUnits="userSpaceOnUse">
<stop stop-color="#80FF98"/>
<stop offset="1" stop-color="#FFC700"/>
</linearGradient>
<linearGradient id="paint13_linear_929_286" x1="266.031" y1="20.6516" x2="280.337" y2="21.6693" gradientUnits="userSpaceOnUse">
<stop stop-color="#80FF98"/>
<stop offset="1" stop-color="#FFC700"/>
</linearGradient>
<linearGradient id="paint14_linear_929_286" x1="266.031" y1="20.6516" x2="280.337" y2="21.6693" gradientUnits="userSpaceOnUse">
<stop stop-color="#80FF98"/>
<stop offset="1" stop-color="#FFC700"/>
</linearGradient>
<linearGradient id="paint15_linear_929_286" x1="154.142" y1="446.865" x2="174.687" y2="455.452" gradientUnits="userSpaceOnUse">
<stop stop-color="#80FF98"/>
<stop offset="1" stop-color="#FFC700"/>
</linearGradient>
<linearGradient id="paint16_linear_929_286" x1="74.2205" y1="425.095" x2="117.86" y2="429.863" gradientUnits="userSpaceOnUse">
<stop stop-color="#80FF98"/>
<stop offset="1" stop-color="#FFC700"/>
</linearGradient>
</defs>
</svg>
