<svg width="48" height="48" viewBox="0 0 48 48" fill="none" xmlns="http://www.w3.org/2000/svg">
<path fill-rule="evenodd" clip-rule="evenodd" d="M41.22 28.2793C41.9219 27.1129 42.9328 26.2485 44.2528 25.6862L44.256 25.3611H35.2802C37.2063 17.6251 39.0471 16.1677 48 14.3833C38.712 12.5362 37.0784 11.0369 35.0632 2.51172C35.063 2.51247 35.0629 2.51322 35.0627 2.51396C34.9149 2.43032 34.7567 2.33542 34.5855 2.23268C33.1712 1.38401 30.8647 0 26.1176 0C20.8803 0 16.2933 1.01605 12.3568 3.04815C8.41867 5.08566 5.37467 7.97345 3.2248 11.7115C1.07493 15.4496 0 19.7836 0 24.7135C0 29.4272 0.925867 33.5353 2.7776 37.0377C4.62933 40.5407 7.25813 43.2435 10.664 45.1461C14.0699 47.0487 18.0928 48 22.7328 48C25.9701 47.9938 29.1919 47.5464 32.312 46.6697C35.5045 45.7861 38.1227 44.6073 40.1664 43.1332V32.431C40.1669 30.8296 40.5181 29.4457 41.22 28.2793ZM33.5647 7.54224C33.3433 7.15136 33.1063 6.78857 32.8536 6.45385C31.1736 4.22726 28.6936 3.48615 25.4136 3.48615C18.4744 3.48615 15.0048 9.16801 15.0048 21.2753C15.0048 25.8601 15.4848 30.044 16.4448 33.827C17.4048 37.6101 18.7139 40.5938 20.372 42.7781C22.0328 44.9624 23.8624 45.6816 25.864 45.6816C26.5872 45.6816 27.0981 45.5518 27.3968 45.2923V33.0811C27.3968 30.8333 27.0136 29.1469 26.2472 28.0217C25.4808 26.8965 24.2037 26.118 22.416 25.6862V25.3611H34.8462C32.9202 17.6251 31.0793 16.1677 22.1264 14.3833C29.182 12.9783 31.8206 11.7754 33.5647 7.54224Z" fill="white"/>
</svg>
