<svg width="289" height="241" viewBox="0 0 289 241" fill="none" xmlns="http://www.w3.org/2000/svg">
<path d="M4 241V54C4 36.3269 18.3269 22 36 22H236C253.673 22 268 36.3269 268 54V241" stroke="green" stroke-width="8" stroke-linejoin="round"/>
<path d="M285 36C285 53.6731 270.673 68 253 68C235.327 68 221 53.6731 221 36C221 18.3269 235.327 4 253 4C270.673 4 285 18.3269 285 36Z" fill="#191919" stroke="green" stroke-width="8" stroke-linecap="round" stroke-linejoin="round"/>
<path d="M51 68H221" stroke="green" stroke-width="8" stroke-linecap="round" stroke-linejoin="round"/>
<path d="M45.8881 152.545V170H49.4677V158.597H49.6126L54.1296 169.915H56.5671L61.0842 158.639H61.229V170H64.8086V152.545H60.2575L55.4506 164.273H55.2461L50.4393 152.545H45.8881ZM82.8576 170L84.1531 166.02H90.4514L91.7468 170H95.7014L89.6843 152.545H84.9286L78.9031 170H82.8576ZM85.0906 163.139L87.2383 156.534H87.3746L89.5224 163.139H85.0906ZM113.493 152.545H109.802V170H113.493V152.545ZM128.529 170H139.702V166.957H132.219V152.545H128.529V170ZM154.146 170H161.603C165.524 170 167.612 167.955 167.612 165.176C167.612 162.594 165.762 161.034 163.777 160.94V160.77C165.592 160.361 166.93 159.074 166.93 157.02C166.93 154.403 164.987 152.545 161.135 152.545H154.146V170ZM157.836 166.983V162.347H160.93C162.703 162.347 163.802 163.369 163.802 164.81C163.802 166.122 162.907 166.983 160.845 166.983H157.836ZM157.836 159.849V155.528H160.64C162.277 155.528 163.206 156.372 163.206 157.634C163.206 159.014 162.081 159.849 160.572 159.849H157.836ZM198.053 161.273C198.053 155.562 194.507 152.307 189.88 152.307C185.226 152.307 181.706 155.562 181.706 161.273C181.706 166.957 185.226 170.239 189.88 170.239C194.507 170.239 198.053 166.983 198.053 161.273ZM194.311 161.273C194.311 164.972 192.556 166.974 189.88 166.974C187.195 166.974 185.448 164.972 185.448 161.273C185.448 157.574 187.195 155.571 189.88 155.571C192.556 155.571 194.311 157.574 194.311 161.273ZM215.45 152.545H211.265L216.626 161.273L211.163 170H215.39L218.97 164.043H219.106L222.686 170H226.93L221.484 161.273L226.811 152.545H222.643L219.106 158.494H218.97L215.45 152.545Z" fill="green"/>
<path d="M256.137 26.5455H252.669L248.348 29.2812V32.554L252.345 30.0483H252.447V44H256.137V26.5455Z" fill="green"/>
<defs>
<linearGradient id="paint0_linear_744:291" x1="4" y1="22" x2="121.86" y2="32.1429" gradientUnits="userSpaceOnUse">
<stop stop-color="#80FF98"/>
<stop offset="1" stop-color="#FFC700"/>
</linearGradient>
<linearGradient id="paint1_linear_744:291" x1="221" y1="4" x2="249.638" y2="6.04444" gradientUnits="userSpaceOnUse">
<stop stop-color="#80FF98"/>
<stop offset="1" stop-color="#FFC700"/>
</linearGradient>
<linearGradient id="paint2_linear_744:291" x1="51" y1="68" x2="51.5156" y2="74.2574" gradientUnits="userSpaceOnUse">
<stop stop-color="#80FF98"/>
<stop offset="1" stop-color="#FFC700"/>
</linearGradient>
<linearGradient id="paint3_linear_744:291" x1="44" y1="147" x2="112.665" y2="178.102" gradientUnits="userSpaceOnUse">
<stop stop-color="#80FF98"/>
<stop offset="1" stop-color="#FFC700"/>
</linearGradient>
<linearGradient id="paint4_linear_744:291" x1="247" y1="21" x2="252.392" y2="21.1593" gradientUnits="userSpaceOnUse">
<stop stop-color="#80FF98"/>
<stop offset="1" stop-color="#FFC700"/>
</linearGradient>
</defs>
</svg>
