<svg width="370" height="92" viewBox="0 0 370 92" fill="none" xmlns="http://www.w3.org/2000/svg">
<path fill-rule="evenodd" clip-rule="evenodd" d="M82.5052 0H75.5481V44.6366H82.5668V41.1272H82.7515C84.8448 43.6515 87.9847 45.006 91.3094 44.8213C99.4979 44.8213 103.377 38.6029 103.377 31.5842V31.2148C103.377 24.0114 97.7124 18.3472 90.6937 18.1625C87.5538 18.3472 84.6601 19.517 82.5052 21.6718V0ZM89.093 25.1812C92.787 25.1812 95.7423 28.1364 95.7423 31.8305C95.7423 35.5245 92.8486 38.4182 89.093 38.4798C85.2142 38.4798 82.259 35.5245 82.259 31.8305C82.259 28.1364 85.3989 25.1812 89.093 25.1812ZM12.8722 44.8823C15.8274 44.8823 18.7211 43.7125 20.876 41.5577V44.6976H28.5104V0.0610642H20.876V21.3019H20.6913C18.5364 19.147 15.6427 17.9773 12.6875 17.9773C4.68367 17.9773 0.00453211 24.6266 0.00453211 31.6453C0.00453211 38.664 4.68367 44.8823 12.8722 44.8823ZM14.5961 24.4419C18.5364 24.6266 21.4301 27.7665 21.2454 31.6453C21.2454 31.83 21.2454 32.0147 21.0607 32.0147C21.0607 35.524 18.1054 38.4793 14.5961 38.4793C10.7173 38.4793 7.57735 35.524 7.39265 31.6453C7.57735 27.7665 10.7173 24.6266 14.5961 24.4419ZM188.586 69.0791V47.0378H181.568V91.305H188.586V79.6072C188.586 76.6519 189.571 71.7881 194.066 71.7881C198.56 71.7881 198.745 75.6668 198.745 78.8068V91.305H206.133V75.4821C206.133 69.4485 203.793 64.954 196.59 64.954C193.45 65.385 190.741 66.7395 188.771 69.0791H188.586ZM67.6674 91.7354C70.6227 91.9201 73.3316 90.7503 75.3018 88.5954V88.657H75.4249V91.1813H83.0593V47.0988H75.8559V68.3397H75.6712C73.5163 66.1848 70.6227 65.015 67.6674 65.015H67.0517C60.033 65.1997 54.6151 71.0486 54.9845 78.0674C54.9845 84.9014 59.4789 91.7354 67.6674 91.7354ZM69.6376 71.6028C73.1469 71.6028 76.1022 74.7427 76.1022 78.2521V78.4367C76.1022 82.1308 73.3316 85.0861 69.6376 85.2708C65.7588 85.2708 62.6189 82.1308 62.6189 78.2521V78.0674C62.6189 74.558 65.7588 71.6028 69.4529 71.6028H69.6376ZM27.8947 91.1207H20.876V88.1655H20.6913C18.7211 90.5051 15.8274 91.8596 12.8722 91.8596C4.68368 91.8596 0.00453523 85.2102 0.00453523 78.1915C-0.180168 71.1728 5.29935 65.1392 12.3181 64.9545H12.6875C15.8274 65.1392 18.5364 66.309 20.6913 68.4638V65.7549H27.71L27.8947 91.1207ZM21.0607 78.4378C21.0607 74.7437 18.1054 71.7885 14.4114 71.7885C10.7173 71.7885 7.57736 74.7438 7.39265 78.6225C7.20795 82.3166 10.1016 85.4565 13.611 85.6412C17.736 85.4565 21.0607 82.3166 21.0607 78.4378ZM36.6989 65.9375V79.6055C36.6989 82.5607 37.684 85.4544 41.7474 85.4544C45.8109 85.4544 46.6113 82.4992 46.6113 79.6055V65.9375L53.9994 65.7528V80.5906C53.9994 87.9787 49.8744 91.7343 41.6859 91.7343C33.4974 91.7343 29.3723 87.8555 29.3723 80.5906V65.7528C29.4339 65.7528 36.6989 65.9375 36.6989 65.9375ZM92.8486 55.5943C92.8486 57.9339 90.8784 60.0887 88.5388 60.0887C86.1992 60.0887 84.0444 58.1186 84.0444 55.779C84.0444 53.4394 86.0145 51.2846 88.3541 51.2846C90.8784 51.3461 92.8486 53.2547 92.8486 55.5943ZM84.8448 91.3036V65.9377H92.2329V91.3036H84.8448ZM107.255 91.921C115.444 91.921 121.108 86.2568 121.108 78.4377C121.108 70.6186 115.444 64.9544 107.255 65.016H106.64C99.2517 65.2622 93.4028 71.2959 93.5875 78.4993V79.8538C94.0184 87.0572 100.237 92.2904 107.255 91.921ZM107.686 85.2717C103.808 85.2717 100.852 82.1318 100.668 78.4377C100.668 78.4377 100.668 77.4526 100.729 77.4526C101.099 73.7586 104.239 70.8649 107.933 71.2343C111.627 71.6037 114.336 74.7436 114.151 78.4377C114.151 82.1318 111.381 85.087 107.686 85.2717ZM130.282 91.3033H123.263V71.7864H120.308V66.1222H123.263V57.749H130.282V66.1222H134.776V71.7864H130.282V91.3033ZM141.611 80.5299C141.676 83.6124 144.176 86.071 147.274 86.071H147.89C150.599 86.071 152.939 84.7165 154.539 82.3769L159.588 85.5169C156.879 90.196 153.37 91.9815 147.705 91.9815C140.871 92.3509 134.838 87.1176 134.468 80.2836V78.7444C134.468 71.11 138.778 65.0764 147.336 65.0764C155.894 65.0764 159.834 71.11 159.834 78.7444V80.5299H141.611ZM147.828 70.2481C150.722 70.4328 152.877 73.1418 152.692 76.097H141.364C141.733 73.3881 143.334 70.2481 147.213 70.2481H147.828ZM180.644 73.5734C179.105 72.2189 177.135 71.4185 175.165 71.6032C171.471 71.7879 168.331 74.9279 168.515 78.6219C168.7 82.316 171.84 85.4559 175.534 85.2712C177.504 85.4559 179.413 84.6555 180.829 83.3011V90.3198C174.179 93.6444 166.176 90.9354 162.913 84.2861C159.588 77.6368 162.297 69.633 168.946 66.37C170.732 65.3849 172.825 65.0155 174.795 65.0155C176.95 65.0155 178.92 65.6311 180.829 66.5546L180.644 73.5734ZM214.937 68.8945C216.907 66.7397 219.616 65.5699 222.325 65.5699C229.713 65.5699 231.868 69.8796 231.868 75.7285V91.3052H224.48V78.9916C224.48 75.8517 224.295 71.9729 219.986 71.9729C215.676 71.9729 214.937 76.6521 214.937 79.6073V91.3052H207.734V65.9393H215.122L214.937 68.8945ZM237.533 60.2735C239.872 60.2735 241.842 58.1187 241.842 55.7791C241.842 53.4395 239.934 51.5309 237.348 51.4694C235.008 51.4694 233.038 53.6242 233.038 55.9638C233.038 58.3034 235.193 60.2735 237.533 60.2735ZM233.715 91.3037H241.103V65.9378H233.715V91.3037ZM250.031 75.6662L259.02 66.1232H268.563L256.495 77.6364L268.563 91.1197H259.389L250.031 80.2222H249.846V91.366H242.827V47.0988H249.846V75.7893H250.031V75.6662ZM57.5703 38.6642C53.6916 41.6194 49.5665 44.6978 45.5031 44.6978C39.2847 44.5131 34.7903 40.5727 34.7903 34.1697C34.7903 29.6753 37.4993 26.3506 41.2549 23.8263L43.9639 22.0409C41.9937 19.5166 41.0086 16.5614 41.0086 13.483C41.0086 7.63404 45.6878 3.93998 51.5367 3.93998C57.3856 3.93998 61.6954 7.07995 61.5107 13.6677C61.5107 17.9774 58.186 21.0558 54.8614 23.3954L59.5405 29.2443L64.5891 25.1193L69.0835 30.5988L63.604 34.7238L71.4231 44.4515H62.6189C62.6189 44.5131 57.5703 38.6642 57.5703 38.6642ZM47.0714 28.406L47.0713 28.4061C44.8386 29.8557 41.9321 31.7428 41.9321 34.1697C41.9321 36.694 44.6411 37.4944 45.8109 37.3097C48.3352 36.5093 50.8595 35.1548 52.8296 33.4309C52.8912 33.3693 48.3968 27.5204 48.3968 27.5204C48.0116 27.7955 47.5575 28.0904 47.0715 28.4059L47.0715 28.4059L47.0714 28.406ZM50.3053 17.9774L52.0908 16.6229C52.3933 16.3617 52.6866 16.1404 52.9597 15.9343C53.9094 15.2175 54.6151 14.685 54.6151 13.2983C54.6151 11.7591 53.4453 10.5893 51.9061 10.343C50.1206 10.343 48.7662 11.6975 48.3968 13.2983C48.3968 14.4681 48.5815 15.4531 49.1971 16.4382C49.1356 16.3767 50.3053 17.9774 50.3053 17.9774ZM322.804 3.93998H280.691V45.8676H322.804V3.93998ZM327.298 3.93998H369.411V45.8676H327.298V3.93998ZM369.411 50.1167H327.298V91.4902H369.411V50.1167ZM322.988 70.8013C322.988 82.4303 313.396 91.8574 301.563 91.8574C289.73 91.8574 280.137 82.4303 280.137 70.8013C280.137 59.1723 289.73 49.7452 301.563 49.7452C313.396 49.7452 322.988 59.1723 322.988 70.8013Z" fill="white"/>
</svg>
