<svg width="269" height="77" viewBox="0 0 269 77" fill="none" xmlns="http://www.w3.org/2000/svg">
<path fill-rule="evenodd" clip-rule="evenodd" d="M6.37248 77C2.84728 77 0 74.1456 0 70.6116V6.38835C0 2.85437 2.84728 0 6.37248 0C9.89768 0 12.745 2.85437 12.745 6.38835V70.6116C12.745 74.1456 9.89768 77 6.37248 77ZM25.0154 61.6408C21.8291 61.6408 19.253 59.0582 19.253 55.8641V21.2039C19.253 18.0097 21.8291 15.4272 25.0154 15.4272C28.2016 15.4272 30.7777 18.0097 30.7777 21.2039V55.8641C30.7777 59.0582 28.2016 61.6408 25.0154 61.6408ZM42.3702 48.8641C39.5229 48.8641 37.218 46.5534 37.218 43.699V33.3689C37.218 30.5146 39.5229 28.2039 42.3702 28.2039C45.2175 28.2039 47.5224 30.5146 47.5224 33.3689V43.699C47.5224 46.5534 45.2175 48.8641 42.3702 48.8641ZM98.7057 48.7272C98.6379 50.0865 98.6379 52.3972 98.6379 54.0962H101.553V14.6787H98.5023V24.4651C98.5023 25.6884 98.5701 30.1739 98.5701 30.1739C96.8753 27.2515 93.689 24.3292 88.4012 24.3292C80.4017 24.3292 75.0461 30.1739 75.0461 39.6205C75.0461 48.7952 79.9272 54.7758 88.1301 54.7758C93.4857 54.7758 97.0787 51.9894 98.7057 48.7272ZM88.5368 52.3292C82.0965 52.3292 78.2324 47.1641 78.2324 39.5525C78.2324 31.669 82.0288 26.8438 88.5368 26.8438C95.1127 26.8438 98.7057 31.669 98.7057 39.5525C98.7057 47.1641 95.1127 52.3292 88.5368 52.3292ZM109.078 54.0962H112.061V25.1447H109.078V54.0962ZM129.212 52.3292C124.06 52.3292 121.484 49.8146 120.603 45.3292V45.2612H117.349C118.433 51.5137 122.162 54.7078 129.144 54.7078C135.449 54.7078 140.059 51.2418 140.059 46.0088C140.059 41.3874 136.33 39.8243 131.246 38.3292L128.602 37.5137C123.382 35.9506 121.484 34.7273 121.484 31.737C121.484 28.6787 124.128 26.7078 128.873 26.7078C133.551 26.7078 135.991 29.3583 136.534 32.6884H139.517C138.907 27.4554 134.975 24.3292 128.941 24.3292C122.908 24.3292 118.501 27.2515 118.501 32.0768C118.501 36.834 121.891 38.5331 127.111 40.0962L129.89 40.9117C134.432 42.2709 137.008 43.3583 137.008 46.6205C137.008 49.8826 134.297 52.3292 129.212 52.3292ZM168.125 46.4166C168.057 47.3001 168.057 48.9991 168.057 50.0865C168.057 56.6787 165.346 62.1156 158.431 62.1156C151.719 62.1156 149.753 57.834 149.008 55.0476H145.889C147.042 60.2127 150.906 64.5622 158.227 64.5622C163.244 64.5622 166.566 62.5913 168.532 59.5331C170.227 56.8146 170.972 53.0768 170.972 48.5234V25.1447H168.125V30.2418C166.498 27.3195 163.312 24.3972 157.821 24.3972C150.024 24.3972 144.601 30.0379 144.601 38.737C144.601 46.8923 149.55 52.601 157.549 52.601C163.041 52.601 166.566 49.4748 167.989 46.4166H168.125ZM157.888 26.8438C164.396 26.8438 168.193 31.737 168.193 38.3972C168.193 45.8049 163.786 50.2224 157.821 50.2904C151.38 50.2904 147.72 45.1933 147.72 38.669C147.72 31.8729 151.584 26.8438 157.888 26.8438ZM199.242 54.0962C199.174 52.601 199.174 51.1739 199.174 49.6787H199.242V25.1447H196.191V43.2904C196.191 48.0476 192.801 52.2612 187.717 52.2612C182.904 52.2612 179.921 49.4069 179.921 42.4748V25.1447H176.87V43.2224C176.87 50.902 180.056 54.8438 186.7 54.8438C192.056 54.8438 194.903 51.8535 196.191 49.4069V54.0962H199.242ZM255.509 52.3972C248.866 52.3972 244.527 47.7078 244.324 40.0282V39.9603H268.932C268.932 39.9603 269 39.3486 269 38.9408C269 31.8049 265.204 24.3972 255.577 24.3972C246.764 24.3972 241.273 30.7175 241.273 39.6205C241.273 48.7952 246.493 54.8438 255.374 54.8438C262.221 54.8438 266.763 50.97 268.458 45.8729H265.543C264.594 48.3195 262.017 52.3972 255.509 52.3972ZM244.459 37.5137C244.934 31.1253 249.069 26.8438 255.509 26.8438C261.746 26.8438 265.746 31.1933 265.949 37.5137H244.459ZM209.004 54.0962V25.1447H205.953V54.0962H209.004ZM226.155 52.3292C221.003 52.3292 218.427 49.8146 217.546 45.3292V45.2612H214.292C215.376 51.5137 219.105 54.7078 226.087 54.7078C232.392 54.7078 237.002 51.2418 237.002 46.0088C237.002 41.3874 233.273 39.8243 228.189 38.3292L225.545 37.5137C220.325 35.9506 218.427 34.7273 218.427 31.737C218.427 28.6787 221.071 26.7078 225.816 26.7078C230.494 26.7078 232.935 29.3583 233.477 32.6884H236.46C235.85 27.4554 231.918 24.3292 225.884 24.3292C219.851 24.3292 215.444 27.2515 215.444 32.0768C215.444 36.834 218.834 38.5331 224.054 40.0962L226.833 40.9117C231.375 42.2709 233.951 43.3583 233.951 46.6205C233.951 49.8826 231.24 52.3292 226.155 52.3292Z" fill="white"/>
</svg>
