<svg width="210" height="19" fill="none" xmlns="http://www.w3.org/2000/svg"><path fill-rule="evenodd" clip-rule="evenodd" d="M5.693 3.904c0-.654.46-.958 1.231-.958.462 0 .846.026 1 .05V.076A10.46 10.46 0 0 0 6.54 0C2.898 0 1.95 1.284 1.95 4.257v.755H0v2.545h2v10.755h3.693V7.557h2.36V5.012h-2.36V3.904Zm6.872 14.583c.565 0 1.128 0 1.692-.024v-2.72c-.23.02-.461.028-.692.023-.615 0-1-.404-1-1.258V.176H8.872v14.861c0 1.813.899 3.45 3.693 3.45M21.31 15.743c-2 0-3.18-1.386-3.18-4.132 0-3.374 1.692-4.106 3.18-4.106 1.895 0 3.178 1.36 3.178 4.157 0 2.593-1.23 4.08-3.179 4.08v.001Zm0-11.285c-4.565 0-7.053 3.023-7.053 7.153 0 4.256 2.641 7.178 7.077 7.178 4.642 0 7.027-3.022 7.027-7.127 0-4.434-2.54-7.204-7.052-7.204ZM33.31 12.04c0-2.696.92-3.804 3.28-3.804.334 0 .642.026 1.05.075V4.583c-.152-.024-.254-.024-.46-.024-1.692 0-2.896.58-4.076 2.67V4.885h-3.54v13.427h3.745v-6.273.001Zm10.306.478.743-.152c.36-.075 1.282-.25 1.539-.328v1.034c-.077 3.073-2.41 3.048-3.026 3.048-1.436-.076-1.666-.883-1.666-1.662 0-1.637 1.486-1.738 2.41-1.94Zm-1.846 6.22c2.64-.075 3.846-1.56 4.257-1.988.076.578.23 1.285.332 1.56h3.59c-.23-.502-.333-1.837-.333-3.525V8.79c-.076-3.65-3.308-4.23-5.795-4.23-3.667 0-5.667 1.56-5.897 4.684h3.564c.23-1.133.693-1.762 2.23-1.762 1.898 0 2.206.604 2.206 1.385v.854c-.565.179-1.616.33-2.283.404l-.973.127c-4.72.604-5.155 2.694-5.155 4.457 0 3.15 2.41 4.03 4.257 4.03v-.001Zm13.103-5.339c0-1.485 1.102-2.292 2.127-2.896l3.283 4.004c-.41.38-1.54 1.21-2.847 1.21-2.153 0-2.563-1.713-2.563-2.318Zm3.41-10.453c1.384 0 1.46 1.108 1.46 1.386 0 1.157-1.024 1.788-1.666 2.216-1.077-1.334-1.255-1.637-1.255-2.19 0-.832.563-1.412 1.46-1.412Zm3.896 13.878 1.232 1.487h4.487l-3.385-3.954c1.95-2.42 2.103-4.435 2.18-5.517h-3.256a5.357 5.357 0 0 1-.975 2.996L59.925 8.74c2.384-1.359 3-2.67 3-4.432-.078-3.225-2.822-4.055-4.59-4.055-2.642 0-4.898 1.309-4.898 4.232 0 1.876 1.387 3.47 1.632 3.708-2.738 1.683-3.89 2.892-3.89 5.31 0 2.417 2.027 5.263 6.027 5.263 3.103 0 4.18-1.26 4.973-1.941v-.001Zm6.693 1.487h3.693V7.557h2.36V5.012h-2.36V3.904c0-.654.46-.958 1.23-.958.462 0 .847.026 1 .05V.076A10.423 10.423 0 0 0 73.412 0c-3.64 0-4.59 1.285-4.59 4.257v.755h-1.95v2.545h2v10.754Zm14.23-5.239c-.075 3.073-2.41 3.048-3.024 3.048-1.437-.076-1.668-.883-1.668-1.662 0-1.638 1.49-1.738 2.41-1.94l.745-.152c.359-.075 1.28-.25 1.538-.328v1.034Zm3.719-4.282c-.077-3.652-3.308-4.231-5.795-4.231-3.667 0-5.667 1.56-5.897 4.684h3.564c.232-1.132.692-1.762 2.23-1.762 1.899 0 2.206.604 2.206 1.385v.855c-.565.178-1.616.329-2.282.402l-.974.128c-4.718.605-5.155 2.695-5.155 4.457 0 3.15 2.41 4.03 4.257 4.03 2.64-.076 3.847-1.56 4.257-1.987.075.577.23 1.284.332 1.56h3.59c-.23-.503-.333-1.838-.333-3.526V8.79Zm6.409 9.823c2.13 0 3.284-.932 4.182-2.192l-.026 1.89h3.64V4.886h-3.794v7.23c0 2.568-.95 3.5-2.744 3.5-1.563 0-2.153-.755-2.153-2.694V4.885h-3.796v8.616c0 3.375 1.538 5.112 4.692 5.112h-.001Zm17.593-14.054c-1.72 0-3.027.73-4.079 2.291V4.911h-3.563v13.4h3.69v-7.204c0-2.946 1.386-3.526 2.718-3.526 1.515 0 2.284.73 2.284 2.594v8.137h3.796V9.243c0-3.25-1.874-4.684-4.846-4.684Zm11.254 11.561c-1.435-.076-1.666-.883-1.666-1.662 0-1.638 1.486-1.739 2.41-1.94l.744-.152c.36-.075 1.281-.25 1.537-.328v1.034c-.076 3.073-2.41 3.048-3.025 3.048Zm3.156.63c.076.578.23 1.285.332 1.56h3.59c-.232-.502-.334-1.837-.334-3.525V8.79c-.076-3.652-3.308-4.231-5.794-4.231-3.668 0-5.668 1.56-5.898 4.684h3.564c.232-1.132.692-1.763 2.232-1.763 1.895 0 2.204.605 2.204 1.386v.855c-.564.178-1.617.329-2.281.402l-.974.128c-4.72.604-5.155 2.695-5.155 4.457 0 3.15 2.41 4.03 4.255 4.03 2.644-.076 3.846-1.56 4.259-1.987v-.001Zm11-2.067-2.771-9.798h-4.128l4.898 13.426h3.898l4.871-13.426h-3.948l-2.82 9.798ZM143.821 3.35h3.744V.05h-3.744v3.3Zm0 14.96h3.744V4.885h-3.744V18.31Zm13.513-8.11-2.333-.555c-1.565-.352-1.975-.628-1.975-1.257 0-.48.384-1.135 2.103-1.135 1.332 0 2.179.43 2.308 1.738h3.718c-.308-3.097-2.36-4.482-6.078-4.482-4 0-5.743 2.416-5.743 4.532 0 2.318 1.308 3.15 4.255 3.88l2.334.58c1.514.403 1.847.604 1.847 1.335 0 .73-.846 1.158-2.207 1.158-2.203 0-2.717-.757-2.87-1.99h-3.77c.052 3.426 2.745 4.76 6.36 4.76 4.281 0 6.23-1.914 6.23-4.534 0-2.317-1.769-3.45-4.179-4.03Zm5.616-6.85h3.743V.05h-3.743v3.3Zm0 14.96h3.743V4.885h-3.743V18.31Zm12.153-2.568c-2.001 0-3.181-1.385-3.181-4.131 0-3.374 1.695-4.106 3.18-4.106 1.898 0 3.18 1.36 3.18 4.157 0 2.593-1.23 4.08-3.18 4.08h.001Zm-.001-11.284c-4.563 0-7.05 3.022-7.05 7.153 0 4.256 2.641 7.178 7.077 7.178 4.642 0 7.026-3.022 7.026-7.127 0-4.434-2.539-7.204-7.052-7.204h-.001Zm15.976.101c-1.717 0-3.025.73-4.078 2.291V4.911h-3.564v13.4h3.694v-7.204c0-2.946 1.383-3.526 2.716-3.526 1.515 0 2.282.73 2.282 2.594v8.137h3.796V9.243c0-3.25-1.872-4.684-4.846-4.684Zm14.411 5.641-2.335-.555c-1.564-.352-1.973-.628-1.973-1.257 0-.48.384-1.135 2.102-1.135 1.333 0 2.178.43 2.308 1.738h3.718c-.309-3.097-2.36-4.482-6.078-4.482-4 0-5.744 2.416-5.744 4.532 0 2.318 1.308 3.15 4.255 3.88l2.336.58c1.513.403 1.845.604 1.845 1.335 0 .73-.847 1.158-2.205 1.158-2.205 0-2.718-.757-2.872-1.99h-3.77c.052 3.426 2.745 4.76 6.361 4.76 4.282 0 6.23-1.914 6.23-4.534 0-2.317-1.768-3.45-4.178-4.03" fill="#fff"/></svg>