<svg width="470" height="97" viewBox="0 0 470 97" fill="none" xmlns="http://www.w3.org/2000/svg">
<path d="M69.1082 48.5397C66.1487 58.4701 61.1096 64.4283 53.9908 64.5872C50.8713 61.3301 46.712 54.4185 46.1521 46.1564H67.9084V43.0582C67.9084 32.4922 63.5892 25.2629 53.5109 25.2629C45.4323 25.2629 38.6334 31.6978 38.6334 42.3432C38.6334 51.7174 41.9929 61.3301 48.5517 67.2883H51.0313C60.5497 67.2883 67.1086 59.7412 69.5882 48.5397H69.1082ZM45.9922 44.0115C46.0722 36.3849 47.5919 28.9173 54.9506 26.2957C59.9898 28.7584 61.1096 34.3989 61.1096 44.0115H45.9922ZM74.3074 88.4202C74.3074 89.8501 73.9874 90.8034 73.0276 90.8034C71.8278 90.8034 70.7879 90.4857 69.5082 89.9296L66.7086 88.6585V89.1351L79.1865 97C79.1865 97 81.4261 95.0934 81.4261 91.439V61.5684L91.4244 67.5266C98.5432 64.0311 102.783 55.2924 102.783 45.362C102.783 34.0016 97.2634 25.2629 90.0647 25.2629C85.9854 25.2629 83.1059 27.0901 81.2662 28.5995L80.9462 23.8329H80.5463L70.7879 29.0762L71.0279 29.3939H71.6678C73.5875 29.3939 74.3074 30.5856 74.3074 32.4128V88.4202ZM81.6661 60.1384V34.3989C83.1059 31.4595 86.4653 27.8845 89.7447 26.9312C94.224 30.4267 95.5837 36.3055 95.5837 44.4881C95.5837 51.3997 93.904 57.8346 90.1447 62.76L81.6661 60.1384ZM142.936 10.1687V63.8722L138.057 66.0966V66.5733H154.134V66.0966L150.134 63.8722V53.068L154.294 45.9976L160.613 63.8722L156.773 66.0966V66.5733H172.211V66.0966L168.051 63.8722L158.693 39.4038L162.452 32.9689C164.452 29.5528 165.652 27.8051 171.811 26.4545V25.9779L163.092 26.7723L150.134 48.8575V0H149.735L138.936 7.14988L139.176 7.46765H140.296C142.216 7.46765 142.936 8.50041 142.936 10.1687ZM178.29 10.2482V63.8722L173.73 66.0966V66.5733H190.608V66.0966L185.009 63.8722V35.3522L193.247 29.3939C195.647 31.8567 197.326 36.3055 197.326 41.6282V63.8722L193.327 66.0966V66.5733H208.525V66.0966L204.285 63.8722V41.6282C204.285 32.81 203.245 29.2351 198.446 25.2629L185.009 31.38V0.0794431H184.609L173.81 7.22932L174.05 7.54709H175.17C177.09 7.54709 177.81 8.57985 178.29 10.2482ZM407.531 10.4865V26.6134C405.771 25.4218 404.091 24.5479 400.012 24.5479C392.013 24.5479 386.174 32.4922 386.174 43.8526C386.174 53.068 389.934 60.9328 394.813 67.3677L407.851 60.059V61.8067C407.851 65.4611 410.09 67.3677 410.09 67.3677L422.568 59.5029V59.0262L419.769 60.2973C418.489 60.8534 417.209 61.1712 416.009 61.1712C415.049 61.1712 414.729 60.2179 414.729 58.7879V0H414.329L403.531 7.14988L403.771 7.46765H404.891C406.811 7.46765 407.531 8.50041 407.531 10.4865ZM427.047 33.0483V63.8722L421.848 66.0966V66.5733H439.125V66.0966L433.926 63.8722V24.4685H433.526L423.768 29.7117L424.008 30.0295H424.648C426.487 30.0295 427.047 31.2211 427.047 33.0483ZM353.38 33.0483V55.0541C353.38 62.3628 355.38 64.9844 357.699 67.3677L370.817 59.9795V61.8067C370.817 65.4611 373.057 67.3677 373.057 67.3677L385.534 59.5029V59.0262L382.735 60.2973C381.455 60.8534 380.175 61.1712 378.975 61.1712C378.016 61.1712 377.696 60.2179 377.696 58.7879V24.4685H377.296L367.537 29.7117L367.777 30.0295H368.417C370.177 30.0295 370.657 31.2211 370.657 33.0483V58.4701L362.258 61.1712C360.979 59.5029 360.259 58.0729 360.259 51.3997V24.4685H359.859L350.1 29.7117L350.34 30.0295H350.98C352.74 30.0295 353.38 31.2211 353.38 33.0483ZM215.163 32.8894V63.8722L209.964 66.0966V66.5733H227.241V66.0966L222.042 63.8722V24.3096H221.642L211.884 29.5528L212.124 29.8706H212.764C214.523 29.8706 215.163 31.0622 215.163 32.8894ZM137.257 48.5397C134.297 58.4701 129.258 64.4283 122.139 64.5872C119.02 61.3301 114.86 54.4185 114.301 46.1564H136.057V43.0582C136.057 32.4922 131.738 25.2629 121.659 25.2629C113.581 25.2629 106.782 31.6978 106.782 42.3432C106.782 51.7174 110.141 61.3301 116.7 67.2883H119.18C128.698 67.2883 135.257 59.7412 137.737 48.5397H137.257ZM114.141 44.0115C114.221 36.3849 115.74 28.9173 123.099 26.2957C128.138 28.7584 129.258 34.3989 129.258 44.0115H114.141ZM6.55888 9.2154L6.39891 63.7134L0 66.0172V66.4939H31.7546L35.114 44.0115H34.6341L25.9956 64.19H15.6773V9.2154L21.3564 6.91155V6.43489H0.719877L0.799864 6.99099L6.55888 9.2154ZM429.367 20.973C431.926 20.973 433.606 18.9075 433.606 16.1269C433.606 13.267 431.926 11.2015 429.367 11.2015C427.127 11.2015 425.448 13.267 425.448 16.1269C425.448 18.9075 427.127 20.973 429.367 20.973ZM448.564 44.4881C448.564 34.7166 451.603 28.5995 454.563 25.9779C459.442 29.8706 463.201 37.3383 463.201 46.3948C463.201 56.0868 460.242 62.2039 457.362 64.9844C452.403 61.0123 448.564 53.6241 448.564 44.4881ZM233.32 32.8894V63.8722L228.761 66.0966V66.5733H244.278V66.0966L240.279 63.8722V35.6699L248.518 29.3939C250.917 31.8567 252.597 36.3055 252.597 41.6282V63.8722L248.598 66.0966V66.5733H263.795V66.0966L259.556 63.8722V41.6282C259.556 32.81 258.516 29.2351 253.717 25.2629L240.279 31.6978V24.3096H239.879L230.121 29.5528L230.361 29.8706H231.001C232.76 29.8706 233.32 31.0622 233.32 32.8894ZM455.842 66.6527C466.001 66.6527 470 53.783 470 44.8853C470 36.3055 466.241 24.3096 456.082 24.3096C445.924 24.3096 441.525 36.2261 441.525 45.2826C441.525 54.498 446.084 66.6527 455.842 66.6527ZM407.611 58.629L398.972 61.3301C395.853 57.1196 393.453 50.6847 393.453 43.7731C393.453 35.5905 395.293 28.9967 400.412 26.0573C403.691 27.0106 406.491 30.3473 407.611 32.8894V58.629ZM333.543 67.05C340.502 65.3022 346.821 58.4701 347.621 51.9558H347.141C345.461 58.5496 340.502 62.2834 337.543 62.6806C336.263 60.774 336.183 57.914 336.183 53.068V28.9173L337.862 29.0762C340.742 29.3145 342.902 30.5061 343.142 34.0811H343.702V26.0573H336.183V18.113H329.064V26.0573H321.785V26.534L329.064 28.3612V55.9279C329.064 61.3301 330.504 64.905 333.543 67.05ZM306.428 67.3677C314.107 67.3677 320.425 61.0917 320.425 52.4324C320.425 44.8853 314.906 38.7682 309.227 33.525L304.988 29.6323C300.269 25.2629 297.149 20.0197 297.149 15.0942C297.149 10.7248 299.709 7.54709 304.188 7.62654C309.307 7.70598 313.547 14.0614 314.906 24.7068L315.706 31.0622H316.186L317.866 7.78542L317.306 7.62654L316.106 10.7248C312.667 6.91155 309.227 5.56102 304.668 5.56102C295.79 5.56102 290.831 12.6314 290.831 20.4169C290.831 26.4545 294.35 31.9361 298.669 36.0672L305.468 42.502C310.907 47.5864 313.147 52.353 313.147 57.199C313.147 61.1712 310.587 65.3817 306.188 65.3022C300.669 65.2228 296.35 59.1057 295.31 49.2547L294.35 40.4365H293.87L290.111 59.7412C294.67 64.5872 299.069 67.3677 306.428 67.3677ZM217.563 20.973C220.123 20.973 221.722 18.9075 221.722 16.1269C221.722 13.267 220.123 11.2015 217.563 11.2015C215.323 11.2015 213.644 13.267 213.644 16.1269C213.644 18.9075 215.323 20.973 217.563 20.973Z" fill="white"/>
</svg>
