<svg width="358" height="55" viewBox="0 0 358 55" fill="none" xmlns="http://www.w3.org/2000/svg">
<path d="M353.639 48.4207C350.763 51.4218 347.502 53.2113 343.412 54.0284C340.652 54.5825 338.234 54.6989 335.428 54.41C331.709 54.0305 328.64 52.8448 325.646 50.622C323.198 48.811 321.445 46.8512 319.914 44.2252C318.732 42.1922 318.044 40.2906 317.662 37.9751C317.125 34.7627 317.266 31.9363 318.118 28.795C320.064 21.6502 325.479 16.5858 332.777 15.0788C336.946 14.2186 340.652 14.307 344.772 15.3634C347.707 16.1158 350.037 17.3835 352.257 19.4338C353.658 20.7231 354.653 22.0188 355.535 23.6962C356.58 25.6797 357.001 27.6071 356.882 29.8407H343.864C343.582 28.1094 342.745 26.7296 341.34 25.6689C339.52 24.2912 337.172 24.1813 335.226 25.3757C333.896 26.1971 333.023 27.3139 332.552 28.795C331.431 32.3243 331.381 35.6079 332.38 39.1717C332.806 40.6701 333.52 41.8451 334.663 42.9144C335.964 44.1476 337.587 44.6543 339.368 44.3934C340.471 44.2339 341.368 43.7552 342.111 42.9252C342.891 42.0693 343.336 41.1508 343.54 40.0146C343.684 39.2148 343.764 38.5378 343.808 37.7272H357.531C357.805 41.8343 356.493 45.4412 353.639 48.4207Z" fill="white"/>
<path d="M301.171 10.4053H315.408V0.42308H301.171V10.4053Z" fill="white"/>
<path d="M301.171 53.3242H315.408V15.5364H301.171V53.3242Z" fill="white"/>
<path d="M271.68 19.5247C273.553 17.8991 275.338 16.7521 277.597 15.7151C281.274 14.0291 284.952 13.7553 288.842 14.8829C293.015 16.0967 296.021 19.0094 297.337 23.1251C297.97 25.1021 298.243 26.8571 298.243 28.9311V53.3193H283.123V31.3868C283.123 30.6537 283.034 30.0328 282.812 29.33C282.426 28.0709 281.587 27.1438 280.362 26.6307C277.682 25.501 274.634 26.5014 273.164 28.9936C272.549 30.0328 272.269 31.0569 272.269 32.2642V53.3193H257.624V15.5297H271.363L271.68 19.5247Z" fill="white"/>
<path d="M103.297 19.5247C105.169 17.8991 106.955 16.7521 109.209 15.7151C112.889 14.0291 116.568 13.7553 120.457 14.8829C124.631 16.0967 127.638 19.0094 128.954 23.1251C129.586 25.1021 129.86 26.8571 129.86 28.9311V53.3193H114.74V31.3868C114.74 30.6537 114.646 30.0328 114.431 29.33C114.04 28.0709 113.202 27.1438 111.974 26.6307C109.296 25.501 106.249 26.5014 104.78 28.9936C104.163 30.0328 103.883 31.0569 103.883 32.2642V53.3193H89.2408V15.5297H102.977L103.297 19.5247Z" fill="white"/>
<path d="M193.031 39.4302C194.122 39.6135 195.034 39.8399 196.081 40.187C196.956 40.4716 197.558 41.1442 197.749 42.0346C197.958 43.007 197.682 43.9297 196.978 44.6304C196.263 45.3484 195.449 45.7623 194.445 45.9175C193.103 46.131 191.912 46.021 190.633 45.5596C190.014 45.3397 189.523 45.0616 189.015 44.6455C188.361 44.0979 187.94 43.4705 187.685 42.6599C187.473 41.9721 187.388 41.3641 187.401 40.644H173.458V41.4504C173.458 42.7526 173.662 43.8564 174.123 45.0745C174.822 46.9071 175.78 48.3236 177.227 49.6603C179.114 51.4131 181.084 52.5061 183.567 53.2111C188.722 54.6686 193.363 54.9575 198.661 54.1511C201.146 53.7738 203.197 53.1098 205.432 51.9607C206.416 51.454 207.204 50.9301 208.054 50.223C211.82 47.0839 213.217 42.2934 211.712 37.6473C211.142 35.8966 210.243 34.547 208.842 33.3397C206.922 31.6882 204.978 30.6361 202.536 29.9289C202.002 29.7759 201.546 29.6465 201.007 29.4999C198.021 28.6763 195.455 28.133 192.388 27.6803C191.567 27.5595 190.876 27.428 190.066 27.2404C189.693 27.1521 189.382 27.0486 189.034 26.8912C188.176 26.5074 187.796 25.5049 188.183 24.6554C188.205 24.6102 188.224 24.5692 188.248 24.5261C188.709 23.709 189.391 23.1765 190.29 22.9156C191.882 22.4585 193.348 22.4973 194.91 23.0255C196.409 23.5322 197.349 24.8969 197.284 26.4686H210.719C210.706 24.8301 210.454 23.446 209.898 21.9066C209.329 20.3457 208.464 19.1577 207.15 18.1294C206.008 17.2282 204.924 16.6159 203.562 16.092C202.237 15.581 201.068 15.2619 199.667 15.0183C196.337 14.4491 193.472 14.2831 190.101 14.4815C188.174 14.5914 186.549 14.8286 184.664 15.2662C182.127 15.8591 180.083 16.8315 178.032 18.4269C176.29 19.783 175.15 21.3676 174.42 23.4416C174.088 24.3816 173.929 25.216 173.886 26.2056C173.81 27.8635 174.051 29.2757 174.67 30.8172C175.778 33.5768 177.746 35.5323 180.53 36.634C181.94 37.1924 183.176 37.5589 184.664 37.8607C187.596 38.4622 190.079 38.9301 193.031 39.4302Z" fill="white"/>
<path d="M26.3683 37.027H16.598V24.6281H22.9472C24.1527 24.6281 25.1737 24.6001 26.3792 24.5332C28.0496 24.4427 29.4376 23.701 30.4324 22.3665C30.9602 21.6572 31.2578 20.9414 31.3838 20.0661C31.4881 19.3288 31.5033 18.6992 31.4294 17.9619C31.1579 15.2023 28.8554 13.1325 26.0642 13.1325H16.598V53.3218H0.424255V0.418839H26.8614C27.9127 0.418839 28.8011 0.438244 29.8503 0.496452C36.8641 0.869434 42.642 4.73507 45.6135 11.052C47.1601 14.3399 47.6857 17.5005 47.2882 21.1096C46.4498 28.7072 41.0955 34.6167 33.5733 36.253C31.0797 36.7963 28.9206 37.027 26.3683 37.027Z" fill="white"/>
<path d="M238.698 14.8102C237.193 14.5731 235.907 14.476 234.384 14.476C232.859 14.476 231.576 14.5731 230.068 14.8102C225.698 15.4893 222.157 17.2335 218.966 20.2734C215.552 23.5311 213.682 27.3859 213.254 32.0665C212.993 34.9404 213.217 37.4176 213.996 40.1966C215.191 44.4611 217.435 47.7554 220.976 50.4461C223.306 52.2247 225.624 53.2898 228.496 53.9107C230.535 54.3548 232.297 54.5381 234.384 54.5381C236.469 54.5381 238.233 54.3548 240.275 53.9107C243.144 53.2898 245.462 52.2247 247.793 50.4461L239.613 41.598C238.311 44.4654 234.923 45.7439 232.032 44.4525C230.7 43.8575 229.755 42.9218 229.154 41.598C228.6 40.3756 228.276 39.2804 228.076 37.9523C227.672 35.2983 227.718 32.9936 228.241 30.3568C228.509 28.9878 228.969 27.871 229.738 26.7046C231.419 24.1585 234.86 23.447 237.43 25.1135C238.101 25.5512 238.592 26.0385 239.028 26.7046C239.799 27.871 240.26 28.9878 240.527 30.3568C241.044 32.9936 241.096 35.2983 240.692 37.9523C240.49 39.2804 240.166 40.3756 239.613 41.598L247.793 50.4461C251.336 47.7554 253.579 44.4611 254.772 40.1966C255.552 37.4176 255.773 34.9404 255.515 32.0665C255.087 27.3859 253.221 23.5311 249.804 20.2734C246.611 17.2292 243.073 15.4893 238.698 14.8102Z" fill="white"/>
<path d="M171.896 50.3608C171.683 47.2476 171.564 44.6109 171.501 41.4869C171.418 37.3819 171.368 33.9195 171.34 29.8167C171.323 27.6025 171.077 25.7333 170.519 23.5903C169.787 20.7811 168.13 18.6467 165.577 17.228C164.035 16.3721 162.621 15.8461 160.896 15.4752C155.405 14.3089 150.559 14.2118 145.027 15.1648C143.471 15.4321 142.186 15.8029 140.726 16.4023C137.355 17.7864 135.033 20.3089 133.951 23.7649C133.536 25.0865 133.425 26.2852 133.584 27.6629C133.614 27.9151 133.677 28.1286 133.792 28.3592L146.604 28.6697C146.571 27.8591 146.678 27.1735 146.953 26.4124C147.373 25.2525 148.198 24.4289 149.367 24.0064C151.085 23.379 152.74 23.3553 154.482 23.9201C155.627 24.2931 156.439 25.1124 156.795 26.2529C157.019 26.9665 156.908 27.6693 156.474 28.2795C156.096 28.8185 155.629 29.1807 155.01 29.4157C154.628 29.5601 154.302 29.6658 153.911 29.7692C152.13 30.2457 150.609 30.5734 148.791 30.8731C147.351 31.1081 146.139 31.3302 144.712 31.6191C142.772 32.0007 141.152 32.4232 139.273 33.0269C137.552 33.5788 136.197 34.3636 134.868 35.5774C133.139 37.1469 132.15 39.0075 131.82 41.3166C131.603 42.8559 131.653 44.1969 131.996 45.7126C132.893 49.6537 135.65 52.5685 139.562 53.6982C143.897 54.9465 147.966 54.7417 152.151 53.0644C154.189 52.2516 155.74 51.124 157.141 49.4467L156.237 42.9508C155.592 43.9425 154.791 44.6195 153.707 45.0938C152.69 45.5401 151.771 45.7751 150.666 45.8872C149.745 45.9778 148.945 45.9109 148.053 45.663C147.327 45.4646 146.76 45.1283 146.245 44.585C145.811 44.1193 145.552 43.6191 145.42 42.9982C145.218 42.0453 145.533 41.129 146.282 40.4973C146.784 40.0726 147.275 39.788 147.89 39.5638C149.378 39.0205 150.648 38.613 152.171 38.184C154.013 37.6687 155.538 37.1103 157.275 36.3169C157.447 37.6989 157.438 38.8825 157.245 40.258C157.104 41.267 156.795 42.097 156.237 42.9508L157.141 49.4467C157.421 50.3694 157.679 51.1413 157.997 52.0446C158.177 52.5513 158.411 52.9437 158.768 53.3382H172.88C172.278 52.4004 171.972 51.4733 171.896 50.3608Z" fill="white"/>
<path d="M86.4226 50.3608C86.2097 47.2476 86.0903 44.6109 86.0273 41.4869C85.9426 37.3819 85.8948 33.9195 85.8665 29.8167C85.8513 27.6025 85.6059 25.7333 85.0455 23.5903C84.3135 20.7811 82.6583 18.6467 80.1038 17.228C78.5616 16.3721 77.1476 15.8461 75.4229 15.4752C69.9317 14.3089 65.0857 14.2118 59.551 15.1648C58.0001 15.4321 56.7099 15.8029 55.2524 16.4023C51.8812 17.7864 49.5592 20.3089 48.4774 23.7649C48.0647 25.0865 47.9518 26.2852 48.1125 27.6629C48.1408 27.9151 48.2038 28.1286 48.3189 28.3592L61.1302 28.6697C61.0998 27.8591 61.204 27.1735 61.4799 26.4124C61.8991 25.2525 62.7245 24.4289 63.8931 24.0064C65.6135 23.379 67.2665 23.3553 69.0064 23.9201C70.1533 24.2931 70.9678 25.1124 71.3262 26.2529C71.5456 26.9665 71.4348 27.6693 71.0004 28.2795C70.6203 28.8185 70.1533 29.1807 69.5364 29.4157C69.1541 29.5601 68.8283 29.6658 68.4351 29.7692C66.6561 30.2457 65.1334 30.5734 63.3175 30.8731C61.8796 31.1081 60.6653 31.3302 59.2361 31.6191C57.2985 32.0007 55.6803 32.4232 53.797 33.0269C52.081 33.5788 50.7256 34.3636 49.3941 35.5774C47.6651 37.1469 46.6789 39.0075 46.3466 41.3166C46.1272 42.8559 46.1793 44.1969 46.5247 45.7126C47.4174 49.6537 50.1782 52.5685 54.0859 53.6982C58.4259 54.9465 62.4899 54.7417 66.6778 53.0644C68.7131 52.2516 70.2684 51.124 71.6694 49.4467L70.7658 42.9508C70.1207 43.9425 69.317 44.6195 68.2309 45.0938C67.2165 45.5401 66.2955 45.7751 65.1943 45.8872C64.2689 45.9778 63.4739 45.9109 62.579 45.663C61.8535 45.4646 61.2866 45.1283 60.7739 44.585C60.3373 44.1193 60.0789 43.6191 59.9464 42.9982C59.7465 42.0453 60.0593 41.129 60.8087 40.4973C61.3083 40.0726 61.7992 39.788 62.4161 39.5638C63.904 39.0205 65.1769 38.613 66.6996 38.184C68.5415 37.6687 70.0642 37.1103 71.8041 36.3169C71.9735 37.6989 71.9648 38.8825 71.7715 40.258C71.6303 41.267 71.3197 42.097 70.7658 42.9508L71.6694 49.4467C71.9475 50.3694 72.2059 51.1413 72.5252 52.0446C72.7034 52.5513 72.9379 52.9437 73.2942 53.3382H87.4066C86.8049 52.4004 86.5008 51.4733 86.4226 50.3608Z" fill="white"/>
</svg>
