<svg width="370" height="52" viewBox="0 0 370 52" fill="none" xmlns="http://www.w3.org/2000/svg">
<path fill-rule="evenodd" clip-rule="evenodd" d="M241.974 34.9448C240.531 40.6113 238.4 45.3156 231.51 45.3156C229.17 45.3156 226.836 44.0866 226.836 41.6292C226.836 35.6994 234.267 34.9448 238.74 34.9448H241.974ZM240.391 45.7921H240.531L239.567 51.183H247.342C247.693 48.3769 248.526 44.2847 249.369 40.1425L249.37 40.1423C250.516 34.5138 251.68 28.793 251.68 26.081C251.68 17.8315 245.001 15.2378 237.916 15.2378C233.786 15.2378 229.792 15.9889 225.872 17.3513L224.563 24.65C228.21 22.9448 232.133 21.9222 236.192 21.9222C239.43 21.9222 243.285 22.9448 243.285 26.4931C243.285 27.5116 243.285 28.5342 243.006 29.4917H239.773C231.101 29.4917 218.025 30.3803 218.025 41.976C218.025 48.4518 222.567 52 228.965 52C234.062 52 237.227 49.7483 240.391 45.7921ZM8.12078 16.0256H1.4454L0 22.71H6.67538L4.0586 34.58C3.44059 37.3736 2.8896 40.0325 2.8896 42.7578C2.8896 49.5134 7.29638 51.9713 13.559 51.9713C14.8578 51.9713 16.2929 51.6484 17.6402 51.3452C17.9368 51.2784 18.2292 51.2126 18.5149 51.1515L20.0956 44.058C18.9266 44.5352 17.2765 44.875 15.6212 44.875C13.559 44.875 12.1136 43.5778 12.1136 41.4643C12.1136 40.1018 12.3193 38.8764 12.5252 38.0572L15.8981 22.71H24.1571L25.6014 16.0256H17.3442L19.6158 5.5902L9.70317 8.79863L8.12078 16.0256ZM32.7626 0.880554H41.9859L40.0589 9.61447H30.835L32.7626 0.880554ZM29.3895 16.0245H38.6135L31.0413 51.1503H21.8162L29.3895 16.0245ZM59.7171 22.3015C62.2656 22.3015 64.6743 22.9132 66.4625 24.0729L68.7341 16.5709C66.2566 15.8235 62.9543 15.2092 59.51 15.2092C46.7791 15.2092 38.5902 24.5531 38.5902 36.8281C38.5902 45.9005 44.5075 51.9713 53.6603 51.9713C56.6886 51.9713 59.7171 51.6969 62.5391 50.3345L63.5729 43.1005C61.1661 44.2614 58.3435 44.875 56.0706 44.875C49.7369 44.875 48.2251 40.304 48.2251 35.7374C48.2251 29.1205 52.3543 22.3015 59.7171 22.3015ZM76.5779 -0.000930786H85.8012L79.6733 28.7797H79.8156L92.6855 16.0245H104.66L87.6625 32.0528L98.3265 51.1503H87.9346L78.7783 32.5306H78.6437L74.6509 51.1503H65.635L76.5779 -0.000930786ZM144.58 16.0256H137.905L136.46 22.71H143.134L140.521 34.58C139.9 37.3736 139.349 40.0325 139.349 42.7578C139.349 49.5134 143.755 51.9713 150.018 51.9713C151.315 51.9713 152.75 51.6487 154.098 51.3457L154.098 51.3456C154.396 51.2787 154.689 51.2128 154.975 51.1515L156.555 44.058C155.386 44.5352 153.735 44.875 152.084 44.875C150.018 44.875 148.574 43.5778 148.574 41.4643C148.574 40.1018 148.778 38.8764 148.985 38.0572L152.358 22.71H160.616L162.063 16.0256H153.804L156.075 5.5902L146.163 8.79863L144.58 16.0256ZM134.82 28.575C134.82 19.6432 129.039 15.2092 120.299 15.2092C108.667 15.2092 100.13 25.7128 100.13 36.6225C100.13 47.0578 107.014 51.9713 117.203 51.9713C120.986 51.9713 124.91 51.0833 128.489 49.9912L129.658 42.7578C126.217 44.3324 122.567 45.2869 118.782 45.2869C112.884 45.2869 109.437 43.2084 108.996 37.6878H108.989C108.983 37.5842 108.977 37.4813 108.97 37.378V37.3778V37.3777V37.3775V37.3773V37.3772C108.955 37.1615 108.941 36.9444 108.941 36.7174L108.941 36.683C108.941 36.6617 108.942 36.6403 108.942 36.619C108.943 36.5864 108.944 36.5538 108.944 36.5216C108.944 36.5029 108.943 36.4866 108.942 36.4703C108.941 36.4541 108.941 36.4378 108.941 36.4191H108.947C108.989 34.0151 109.521 31.6431 110.448 29.4508C112.22 24.9817 114.724 21.8937 120.161 21.8937C124.012 21.8937 126.011 24.0042 126.011 27.7581C126.011 28.575 125.94 29.3261 125.805 30.1431H113.184C112.365 32.9041 112.223 34.7531 112.207 36.4191H133.923C134.475 33.8254 134.82 31.2347 134.82 28.575ZM166.798 16.0245C166.592 17.1194 166.315 18.5499 166.042 19.913L159.573 51.1503H168.793L172.443 34.4413L172.509 34.1729C173.678 29.4566 175.451 22.3003 181.594 22.3003C183.934 22.3003 185.933 23.9349 185.933 26.5287C185.933 28.6392 185.247 31.9159 184.763 34.0299L181.046 51.1503H190.269L193.914 34.4413L193.978 34.1778L194.029 33.9675C195.193 29.1967 196.876 22.3003 203.071 22.3003C205.411 22.3003 207.405 23.9349 207.405 26.5287C207.405 28.6392 206.717 31.9159 206.235 34.0299L202.516 51.1503H211.741L215.458 34.3697C216.211 31.5073 217.043 27.9591 217.043 24.8229C217.043 19.5038 212.496 15.2081 207.198 15.2081C202.247 15.2081 197.084 17.3215 194.742 21.8925H194.604C194.122 17.6619 189.786 15.2081 185.587 15.2081C181.251 15.2081 177.192 17.1194 174.714 20.7298H174.576L175.403 16.0245H166.798ZM279.072 23.1778C278.083 22.6417 275.537 21.8937 272.923 21.8937C270.168 21.8937 266.728 22.6417 266.728 25.4354C266.728 27.2901 268.821 28.6556 271.257 30.2447C274.648 32.4564 278.703 35.1013 278.703 40.1018C278.703 49.2443 270.652 51.9713 262.74 51.9713C259.02 51.9713 255.301 51.426 251.932 49.8543L253.93 42.5581C256.54 43.9868 259.159 45.2869 262.74 45.2869C265.83 45.2869 269.07 44.2614 269.07 41.399C269.07 38.8787 266.696 37.3714 264.063 35.6987C260.78 33.6139 257.093 31.2723 257.093 26.3921C257.093 18.1433 265.146 15.2092 272.439 15.2092C275.815 15.2092 279.257 15.8235 281.071 16.2906L279.072 23.1778ZM291.645 16.0256H284.969L283.52 22.71H290.197L287.583 34.58C286.966 37.3736 286.411 40.0325 286.411 42.7578C286.411 49.5134 290.816 51.9713 297.082 51.9713C298.377 51.9713 299.809 51.649 301.155 51.346C301.453 51.279 301.746 51.2129 302.033 51.1515L303.618 44.058C302.448 44.5352 300.796 44.875 299.145 44.875C297.082 44.875 295.633 43.5778 295.633 41.4643C295.633 40.1018 295.841 38.8764 296.045 38.0572L299.417 22.71H307.681L309.124 16.0256H300.865L303.134 5.5902L293.227 8.79863L291.645 16.0256ZM347.495 20.7298C347.768 19.2323 348.045 17.6619 348.323 16.0245H357.132L355.891 22.6406H356.031C357.686 18.8215 362.223 15.2081 366.491 15.2081C367.663 15.2081 368.899 15.2732 370 15.5472L368.075 24.4802C367.044 24.1399 365.73 23.9349 364.563 23.9349C358.022 23.9349 354.858 29.7336 353.691 35.3952L350.386 51.1503H341.164L347.495 20.7298ZM326.573 15.2092C335.314 15.2092 341.095 19.6432 341.095 28.575C341.095 31.2347 340.751 33.8254 340.199 36.4191H318.477C318.497 34.7531 318.637 32.9041 319.461 30.1431H332.08C332.214 29.3261 332.286 28.575 332.286 27.7581C332.286 24.0042 330.287 21.8937 326.434 21.8937C320.997 21.8937 318.491 24.9817 316.721 29.4508C315.794 31.6431 315.261 34.0151 315.22 36.4191H315.215C315.215 36.4378 315.216 36.4541 315.217 36.4703C315.219 36.4866 315.22 36.5029 315.22 36.5216C315.22 36.5538 315.219 36.5864 315.217 36.619C315.216 36.6518 315.215 36.6846 315.215 36.7174C315.215 36.933 315.228 37.1396 315.241 37.3446C315.249 37.4591 315.256 37.5731 315.261 37.6878H315.267C315.713 43.2084 319.157 45.2869 325.058 45.2869C328.844 45.2869 332.491 44.3324 335.932 42.7578L334.765 49.9912C331.185 51.0833 327.258 51.9713 323.476 51.9713C313.288 51.9713 306.406 47.0578 306.406 36.6225C306.406 25.7128 314.944 15.2092 326.573 15.2092Z" fill="white"/>
</svg>
