<svg width="398" height="198" fill="#fff" xmlns="http://www.w3.org/2000/svg"><path d="M68.922 38.8c-2.304.64-4 1.696-5.088 3.168-1.024 1.472-1.536 3.488-1.536 6.048v16.896C59.162 67.088 55.386 68.784 50.97 70a48.044 48.044 0 01-13.44 1.92c-6.848 0-12.864-1.44-18.048-4.32-5.184-2.88-9.184-6.944-12-12.192-2.816-5.248-4.224-11.36-4.224-18.336 0-7.296 1.536-13.664 4.608-19.104 3.136-5.44 7.584-9.632 13.344-12.576C26.97 2.384 33.658.88 41.274.88c7.68 0 14.848 1.568 21.504 4.704l-4.896 20.064h-.576C56.474 11.632 50.682 4.624 39.93 4.624c-6.08 0-10.784 2.496-14.112 7.488-3.264 4.928-4.896 12.032-4.896 21.312 0 6.784.832 12.928 2.496 18.432 1.728 5.44 4.096 9.728 7.104 12.864 3.008 3.136 6.4 4.704 10.176 4.704 1.408 0 2.72-.192 3.936-.576 1.216-.448 2.08-1.024 2.592-1.728V49.456c0-3.456-.672-5.92-2.016-7.392-1.344-1.536-3.904-2.624-7.68-3.264v-.576h31.392v.576zM113.196 52.624c-1.088 6.464-3.456 11.232-7.104 14.304-3.584 3.008-7.712 4.512-12.384 4.512-3.84 0-7.392-.96-10.656-2.88-3.2-1.984-5.792-4.864-7.776-8.64-1.92-3.776-2.88-8.32-2.88-13.632 0-5.184.896-9.824 2.688-13.92 1.856-4.16 4.448-7.392 7.776-9.696 3.328-2.304 7.136-3.456 11.424-3.456 3.328 0 6.432.736 9.312 2.208 2.88 1.472 5.184 3.84 6.912 7.104 1.792 3.264 2.656 7.392 2.592 12.384H83.532c.448 6.08 2.144 10.784 5.088 14.112 2.944 3.328 6.784 4.992 11.52 4.992 2.88 0 5.344-.544 7.392-1.632 2.048-1.152 3.712-3.136 4.992-5.952l.672.192zm-21.024-30.72c-2.688 0-4.832 1.408-6.432 4.224-1.536 2.752-2.304 6.528-2.304 11.328v1.056h16.608c.064-11.072-2.56-16.608-7.872-16.608zM164.219 63.088c0 1.856.448 3.264 1.344 4.224.96.96 2.4 1.664 4.32 2.112V70h-24.192v-.576c1.6-.384 2.72-.992 3.36-1.824.64-.832.96-2.144.96-3.936v-29.28c0-5.888-2.24-8.832-6.72-8.832-3.2 0-5.6 1.568-7.2 4.704v33.408c0 1.792.32 3.104.96 3.936.64.832 1.76 1.44 3.36 1.824V70h-24.192v-.576c1.92-.448 3.328-1.152 4.224-2.112.96-.96 1.44-2.368 1.44-4.224V32.464c0-2.496-.416-4.224-1.248-5.184-.768-1.024-2.24-1.632-4.416-1.824v-.576l19.872-5.472v9.408c.896-2.944 2.592-5.28 5.088-7.008 2.56-1.728 5.568-2.592 9.024-2.592 4.48 0 7.936 1.312 10.368 3.936 2.432 2.56 3.648 6.112 3.648 10.656v29.28zM184.525 16.144c-2.24 0-4.128-.736-5.664-2.208-1.536-1.536-2.304-3.424-2.304-5.664 0-2.24.768-4.096 2.304-5.568C180.397 1.168 182.285.4 184.525.4c2.24 0 4.096.768 5.568 2.304 1.536 1.472 2.304 3.328 2.304 5.568 0 2.24-.768 4.128-2.304 5.664-1.472 1.472-3.328 2.208-5.568 2.208zm7.584 46.944c0 1.856.448 3.264 1.344 4.224.96.96 2.4 1.664 4.32 2.112V70h-25.536v-.576c1.92-.448 3.328-1.152 4.224-2.112.96-.96 1.44-2.368 1.44-4.224V32.56c0-2.496-.416-4.224-1.248-5.184-.768-.96-2.24-1.536-4.416-1.728v-.576l19.872-5.568v43.584zM246.209 62.416c0 2.304.448 3.936 1.344 4.896.896.96 2.336 1.664 4.32 2.112V70h-19.872v-8.544c-1.024 2.88-2.752 5.28-5.184 7.2-2.368 1.856-5.152 2.784-8.352 2.784-4.352 0-7.744-1.248-10.176-3.744-2.432-2.56-3.648-6.496-3.648-11.808v-25.44c0-2.624-.416-4.416-1.248-5.376-.768-.96-2.24-1.536-4.416-1.728v-.576l19.872-3.36v36.096c0 2.752.608 4.864 1.824 6.336 1.216 1.408 2.912 2.112 5.088 2.112 1.408-.064 2.656-.448 3.744-1.152a6.978 6.978 0 002.496-2.784V30.352c0-2.624-.352-4.416-1.056-5.376-.64-1.024-1.856-1.632-3.648-1.824v-.576l18.912-3.168v43.008zM272.032 71.44c-3.2 0-6.368-.512-9.504-1.536-3.136-1.024-5.888-2.4-8.256-4.128l3.84-13.728.672.096c.896 4.608 2.848 8.416 5.856 11.424 3.072 2.944 6.528 4.416 10.368 4.416 2.752 0 4.8-.64 6.144-1.92 1.408-1.344 2.112-2.944 2.112-4.8 0-1.536-.448-2.816-1.344-3.84-.896-1.088-2.272-1.984-4.128-2.688l-12.768-5.664c-6.144-2.752-9.216-7.264-9.216-13.536 0-2.752.704-5.376 2.112-7.872 1.472-2.496 3.68-4.512 6.624-6.048 3.008-1.6 6.688-2.4 11.04-2.4 2.88 0 5.728.384 8.544 1.152 2.88.768 5.408 1.888 7.584 3.36l-4.032 12h-.672c-1.28-4.8-3.232-8.224-5.856-10.272-2.624-2.048-5.536-3.072-8.736-3.072-2.624 0-4.576.544-5.856 1.632-1.216 1.088-1.824 2.496-1.824 4.224 0 2.88 1.792 5.088 5.376 6.624l12.288 5.472c3.2 1.408 5.568 3.2 7.104 5.376 1.536 2.112 2.304 4.704 2.304 7.776 0 3.264-.768 6.272-2.304 9.024-1.536 2.688-3.808 4.864-6.816 6.528-2.944 1.6-6.496 2.4-10.656 2.4z"/><path d="M17.953 132V63.84h-7.392V132h7.392zM32.364 84v48h6.624v-28.032c0-9.408 4.704-15.36 12-15.36 6.336 0 9.984 4.416 9.984 12.192V132h6.624v-29.184c0-8.832 4.512-14.208 11.808-14.208 6.624 0 10.08 4.416 10.08 12.576V132h6.72v-31.392c0-11.328-5.376-17.952-14.784-17.952-6.816 0-11.904 3.552-14.784 10.464-2.016-6.72-6.912-10.464-13.824-10.464-6.816 0-11.808 3.744-14.208 10.656V84h-6.24zM108.001 84v48h6.624v-28.032c0-9.408 4.704-15.36 12-15.36 6.336 0 9.984 4.416 9.984 12.192V132h6.624v-29.184c0-8.832 4.512-14.208 11.808-14.208 6.624 0 10.08 4.416 10.08 12.576V132h6.72v-31.392c0-11.328-5.376-17.952-14.784-17.952-6.816 0-11.904 3.552-14.784 10.464-2.016-6.72-6.912-10.464-13.824-10.464-6.816 0-11.808 3.744-14.208 10.656V84h-6.24zM220.882 105.12c0-14.592-7.392-22.272-20.256-22.272-13.248 0-21.312 9.696-21.312 25.44 0 16.128 7.968 24.864 21.6 24.864 9.696 0 16.704-4.992 19.68-13.92l-5.664-2.304c-2.016 6.528-6.816 10.272-13.536 10.272-9.312 0-15.264-6.624-15.36-17.472h34.848v-4.608zm-6.816-.864h-28.032c.192-9.888 5.568-16.032 14.496-16.032 8.544 0 13.536 5.28 13.536 15.168v.864zM236.548 95.712V84h-6.24v48h6.624v-21.984c0-6.048.864-12.48 5.28-16.896 2.4-2.304 5.664-3.648 10.272-3.648h.768v-6.528c-.672-.096-1.152-.096-1.824-.096-7.392 0-12.672 5.472-14.88 12.864zM274.432 133.152c11.232 0 17.856-5.472 17.856-14.4 0-7.488-3.84-12.288-13.152-13.44l-7.68-.96c-6.336-.768-9.12-3.456-9.12-7.968 0-5.088 4.032-8.064 10.944-8.064 7.008 0 11.232 3.936 12.288 10.656l6.624-1.344c-.96-9.312-8.16-14.784-18.816-14.784-10.944 0-17.664 5.28-17.664 13.824 0 7.296 4.416 12.288 13.632 13.44l7.68.864c5.856.768 8.544 3.168 8.544 8.352s-3.84 8.256-10.848 8.256c-7.776 0-12.576-3.84-13.824-11.616l-6.72 1.152c1.536 10.464 8.928 16.032 20.256 16.032zM300.946 75.36h7.584V64.8h-7.584v10.56zm.48 56.64h6.624V84h-6.624v48zM331.166 132h7.296l17.76-48h-7.296l-11.904 33.984c-.864 2.688-1.632 4.896-2.112 7.104h-.288c-.48-2.208-1.152-4.416-2.016-7.104L320.702 84h-7.296l17.76 48zM397.413 105.12c0-14.592-7.391-22.272-20.255-22.272-13.248 0-21.312 9.696-21.312 25.44 0 16.128 7.968 24.864 21.6 24.864 9.696 0 16.703-4.992 19.68-13.92l-5.664-2.304c-2.016 6.528-6.817 10.272-13.537 10.272-9.312 0-15.263-6.624-15.359-17.472h34.847v-4.608zm-6.815-.864h-28.032c.191-9.888 5.567-16.032 14.496-16.032 8.544 0 13.536 5.28 13.536 15.168v.864z"/><path d="M27.523 197.632c16.032 0 24.384-8.64 24.384-19.776 0-12.192-8.064-16.8-18.528-18.912l-10.08-2.016c-8.256-1.728-12.096-5.664-12.096-12.48 0-7.584 6.048-12.288 15.264-12.288 10.656 0 16.416 4.992 17.376 15.264l7.488-1.44c-1.152-13.824-11.328-19.776-24.672-19.776-14.208 0-23.136 7.584-23.136 18.912 0 11.04 7.008 16.32 16.8 18.24l10.08 2.016c8.448 1.632 13.824 4.416 13.824 13.248 0 8.928-7.584 12.864-16.416 12.864-12.864 0-18.624-7.776-19.68-16.992l-7.488 1.056c.96 12.672 9.792 22.08 26.88 22.08zM61.234 196h6.624v-25.248c0-11.232 5.472-18.144 14.208-18.144 7.584 0 11.52 4.8 11.52 14.016V196h6.72v-29.76c0-12.864-5.568-19.584-16.032-19.584-7.872 0-13.632 4.032-16.416 11.52V126.4h-6.624V196zM129.772 197.152c13.248 0 21.984-9.504 21.984-25.152 0-15.648-8.736-25.152-21.984-25.152-13.344 0-22.08 9.504-22.08 25.152 0 15.648 8.736 25.152 22.08 25.152zm0-5.856c-9.312 0-14.976-6.816-14.976-19.296s5.664-19.296 14.976-19.296c9.216 0 14.88 6.816 14.88 19.296s-5.664 19.296-14.88 19.296zM167.667 196h7.296l9.984-35.904a103.81 103.81 0 001.152-5.28h.096a103.81 103.81 0 001.152 5.28L197.331 196h7.296l13.824-48h-6.912l-9.504 35.424c-.384 1.728-.864 3.744-1.152 5.76h-.192c-.384-2.016-.96-4.032-1.344-5.76L189.651 148h-7.104l-9.6 35.424c-.48 1.728-1.056 3.744-1.344 5.76h-.192c-.288-2.016-.768-4.032-1.152-5.76L160.755 148h-6.912l13.824 48z"/></svg>