<svg width="33" height="34" viewBox="0 0 33 34" fill="none" xmlns="http://www.w3.org/2000/svg">
<path d="M29.3155 19.6649C29.842 18.9603 30.6628 18.4549 31.7778 18.1486V17.873H16.5858V18.1486C18.4131 18.4549 19.652 18.9757 20.3025 19.7108C20.9529 20.4153 21.2781 21.5946 21.2781 23.2486V31.7027C21.0303 32.0396 20.6122 32.3153 20.0237 32.5297C19.4352 32.7135 18.8003 32.8054 18.1189 32.8054C16.2915 32.8054 14.65 32.055 13.1943 30.5541C11.7386 29.0532 10.5926 27.0009 9.75633 24.3973C8.95105 21.7631 8.54841 18.8225 8.54841 15.5757C8.54841 11.1342 9.3382 7.73421 10.9178 5.37565C12.5284 2.98646 14.8048 1.79186 17.7472 1.79186C23.2222 1.79186 23.7511 3.21293 23.7511 3.21293L24.4444 1.21429C24.4444 1.21429 22.6111 0 17.7472 0C14.0615 0 11.4753 0.719789 8.68778 2.15943C5.90026 3.56844 3.74767 5.57475 2.23002 8.17835C0.743339 10.782 0 13.8297 0 17.3216C0 20.6603 0.681395 23.5856 2.04418 26.0973C3.40697 28.609 5.34275 30.554 7.85152 31.9324C10.3603 33.3108 13.2717 34 16.5858 34C18.7848 34 20.9529 33.6937 23.09 33.0811C25.2271 32.4991 27.0545 31.6874 28.5721 30.6459V22.5595C28.5721 21.3342 28.8199 20.3694 29.3155 19.6649Z" fill="black"/>
<path d="M15.8889 9.71436C22.3056 8.65185 22.3056 7.58935 24.4445 1.21435C26.5834 7.58935 26.5834 8.65185 33 9.71436C26.5834 11.8394 26.5834 12.9019 24.4445 18.2144C22.3056 12.9019 22.3056 11.8394 15.8889 9.71436Z" fill="black"/>
</svg>
