<svg width="460" height="320" fill="none" xmlns="http://www.w3.org/2000/svg"><path d="M219.08 0H16C7.163 0 0 7.163 0 16v288c0 8.837 7.163 16 16 16h428c8.837 0 16-7.163 16-16V16c0-8.837-7.163-16-16-16H219.08ZM297 143.41l.17-.2 32.55 89.42-16 5.81L297 143.41ZM307 240l-15 2.61v-86.84l.18-.15L307 240Zm-6.91-111 .14-.26 52.87 91.57-16.35 9.44L300.09 129Zm.61-16.46.11-.31 75.51 90-16.02 13.4-59.6-103.09Zm-2.51-18.13.06-.36 100 83.91-15 17.85-85.06-101.4ZM292 75v-.4l125.6 72.51-12.94 22.42L292 75Zm-10.58-20-.07-.44 151.43 55.11-9.84 27L281.42 55ZM163 176.59l-.17.21-32.56-89.42 16-5.81L163 176.59Zm-10-96.54 15-2.66v86.85l-.18.15L153 80.05Zm6.91 111-.14.25-52.91-91.52 16.35-9.44 36.7 100.71Zm-.61 16.46-.11.3-75.51-90 16.02-13.43 59.6 103.13Zm2.51 18.12-.06.36-100-83.9 15-17.85 85.06 101.39ZM168 245v.4L42.41 172.91l12.94-22.42L168 245Zm10.57 20 .07.44-151.42-55.12 9.84-27L178.57 265Zm15.53-87.68-8-22 3.41-4.06 4.59 26.06ZM191.83 149l3.65-3.06v23.78L191.83 149Zm2.23 36.85-13-22.49 2.94-5.06 10.06 27.55Zm1.61 9.37-18.54-22.1 2.23-6.14 16.31 28.24Zm3.57 9.95-24.56-20.61 1.26-7.15 23.3 27.76ZM204 134l32.91-39.21 6.91 5.8L204 134Zm42.31-30.72 5.22 6.22L211 132.92l35.31-29.64Zm-37.7 36.09 5.65-1h47.84v37.3l-4.76 2.75-6 2.18-5.65 1h-47.81v-37.29l4.76-2.74 5.97-2.2ZM256 186l-32.93 39.2-6.91-5.8L256 186Zm-42.31 30.73-5.22-6.23L249 187.09l-35.31 29.64ZM199 189.85l-1-5.85h34.1l-33.1 5.85Zm37.91-4-35.07 12.76-2.25-6.18 37.32-6.58Zm5.65 1.1-35.91 20.73-3.65-6.3 39.56-14.43Zm-29.16 38.48-37.19-13.54-1.56-8.84 38.75 22.38Zm11.06 9.36-43.31-7.63-3.41-9.37 46.72 17Zm13.9 8.12H189.5l-5.5-9.59 54.36 9.59ZM235 232.68l-8.68-5L262.94 184h.16L235 232.68Zm35.68-52.75h.17l-21.36 58.66-10.49-3.84 31.68-54.82Zm-6.16-5.93v-23.74l3.65 20.74-3.65 3Zm6-5.34-4.59-26 8 22-3.41 4Zm-4.54-34.58 13 22.49-2.94 5.1-10.06-27.59Zm-1.61-9.37 18.54 22.1-2.27 6.19-16.27-28.29Zm-3.57-9.94 24.56 20.6-1.26 7.16-23.3-27.76Zm.22 15.35 1 5.83H227.9l33.12-5.83Zm-37.91 4 35.07-12.76 2.25 6.18-37.32 6.58Zm-5.65-1.1 35.91-20.73 3.66 6.33-39.57 14.4Zm29.14-38.44 37.19 13.54 1.56 8.83-38.75-22.37Zm-11.06-9.37 43.31 7.64 3.41 9.37-46.72-17.01Zm-13.9-8.11h48.86l5.5 9.59-54.36-9.59ZM225 87.33l8.68 5L197.06 136h-.16L225 87.33Zm-35.68 52.75h-.17l21.36-58.67L221 85.25l-31.68 54.83Zm-7.67 6-.19.07 12-68.32L205.7 80l-24.05 66.08Zm-7.25 8-.19.1V77.1H188l-13.6 76.98Zm30.66 61.32-30.85-17.81v-8.07l30.85 25.88ZM194 284.81l.17.47-176.35-31.09 5.55-31.48L194 284.81Zm-.22-35.7h61.38l-53.47 9.43-7.91-9.43Zm60.53-9.05L278.35 174l.19-.06-12.05 68.32-12.18-2.2Zm31.3-74.12.19-.11v77.08H272l13.61-76.97Zm-30.66-61.33 30.85 17.81v8.08l-30.85-25.89ZM266 35.19l-.17-.47 176.34 31.1-5.55 31.47L266 35.19Zm.22 35.71h-61.37l53.47-9.43 7.9 9.43Zm-80.94-3.55L242 46.72l10.47 8.79-67.19 11.84Zm36-33.62 13.16 7.6-71.24 25.92 58.08-33.52Zm-25.22-10.21 15.86 5.78L139 71.4l57.06-47.88ZM185 20.47 113.34 80.6l53.19-63.39L185 20.47ZM153.84 16 87 95.63 133 16h20.84Zm-34.31 0-58.4 101.15L98 16h21.53Zm-59.71 0h24.34L37 145.69 59.82 16ZM16 16h29.2L16 181.59V16Zm0 288v-35.51l198.68 35 .27.48L16 304Zm202-30.71-10.47-8.79 67.16-11.85L218 273.29Zm20.73 13-13.16-7.59 71.21-25.92-58.05 33.51Zm25.19 10.21-15.86-5.77L321 248.61l-57.08 47.89Zm11.08 3.04 71.66-60.14-53.19 63.39-18.47-3.25Zm31.16 4.46L373 224.38 327 304h-20.84Zm34.31 0 58.4-101.14L362.05 304h-21.58Zm59.71 0h-24.34l47.21-129.69L400.18 304Zm43.82 0h-29.2L444 138.41V304Zm0-252.48-198.68-35-.27-.48H444v35.48Z" fill="url(#a)"/><defs><linearGradient id="a" x1="0" y1="0" x2="204.727" y2="21.01" gradientUnits="userSpaceOnUse"><stop stop-color="#80FF98"/><stop offset="1" stop-color="#FFC700"/></linearGradient></defs></svg>