<svg width="306" height="518" fill="none" xmlns="http://www.w3.org/2000/svg"><path d="M8.752 509.88S.391 416.829 39.424 380.171c5.16-37.05 15.669-74.1 47.355-92.563" stroke="url(#a)" stroke-width="16" stroke-linecap="round" stroke-linejoin="round"/><path d="M130.165 254.381s-.195 9.061-.195 21.04c-13.681.834-25.303 3.491-35.198 7.603" stroke="url(#b)" stroke-width="8" stroke-linecap="round" stroke-linejoin="round"/><path d="M101.622 155.848s0 49.658 3.532 59.522c3.531 9.865 18.377 40.851 31.1 40.146 12.723-.706 24.738-11.95 24.738-11.95" stroke="url(#c)" stroke-width="8" stroke-linecap="round" stroke-linejoin="round"/><path d="m101.142 509.88 196.649-2.844s3.522-72.837-18.327-135.073c-21.848-62.236-59.913-84.14-59.913-84.14s-16.916-92.592-22.554-124.784c-5.639-32.192-38.597-39.271-46.848-39.271-19.403 0-64.511 14.5-64.511 81.5 0 32.354 10.571 50.045 10.571 50.045s-19.032 52.194 4.933 64.27c23.965 12.077 54.412 11.957 54.412 11.957" stroke="url(#d)" stroke-width="16" stroke-linecap="round" stroke-linejoin="round"/><path d="M191.819 301.356s-9.191-102.29-12.72-138.189c-3.529-35.899-62.634-25.351-62.634-25.351" stroke="url(#e)" stroke-width="16" stroke-linecap="round" stroke-linejoin="round"/><path d="M105.047 425.096s15.604-46.266 45.655-84.979c30.05-38.712 69.66-51.364 69.66-51.364" stroke="url(#f)" stroke-width="16" stroke-linecap="round" stroke-linejoin="round"/><path d="M57.487 509.88s-6.17-35.48 30.434-42.392" stroke="url(#g)" stroke-width="8" stroke-linecap="round" stroke-linejoin="round"/><path d="M228.354 336.874c-47.764 44.591-40.739 113.428-40.739 113.428" stroke="url(#h)" stroke-width="8" stroke-linecap="round" stroke-linejoin="round"/><path d="M139.299 187.929a11.03 11.03 0 0 1 7.135-3.422c4.441-.287 9.991 3.422 9.991 3.422" stroke="url(#i)" stroke-width="8" stroke-linecap="round" stroke-linejoin="round"/><path d="m101.622 184.491 20.314 1.646-2.96 26.998h18.04" stroke="url(#j)" stroke-width="8" stroke-linecap="round" stroke-linejoin="round"/><path d="M38.256 65.335c16.71 0 30.256-13.593 30.256-30.361 0-16.769-13.546-30.362-30.256-30.362S8 18.205 8 34.974c0 16.768 13.546 30.361 30.256 30.361Z" stroke="url(#k)" stroke-width="8" stroke-linecap="round" stroke-linejoin="round"/><path d="M92.678 22.156h111.89" stroke="url(#l)" stroke-width="16" stroke-linecap="round" stroke-linejoin="round"/><path d="M92.678 51.946h70.787" stroke="url(#m)" stroke-width="8" stroke-linecap="round" stroke-linejoin="round"/><path d="M266.031 20.652 298 52.732" stroke="url(#n)" stroke-width="8" stroke-linecap="round" stroke-linejoin="round"/><path d="m298 20.652-31.969 32.08" stroke="url(#o)" stroke-width="8" stroke-linecap="round" stroke-linejoin="round"/><path d="m207.803 446.865-53.661 9.166" stroke="url(#p)" stroke-width="8" stroke-linecap="round" stroke-linejoin="round"/><path d="M86.219 425.095s-23.314 25.152-4.945 35.79c18.37 10.639 19.778 28.372 49.452 28.372 29.673 0 41.683-12.769 41.683-12.769s-28.966-34.045-38.153-39.009c-9.188-4.965-48.037-12.384-48.037-12.384Z" stroke="url(#q)" stroke-width="16" stroke-linecap="round" stroke-linejoin="round"/><defs><linearGradient id="a" x1="8" y1="287.608" x2="43.408" y2="288.504" gradientUnits="userSpaceOnUse"><stop stop-color="#80FF98"/><stop offset="1" stop-color="#FFC700"/></linearGradient><linearGradient id="b" x1="94.772" y1="254.381" x2="110.567" y2="255.774" gradientUnits="userSpaceOnUse"><stop stop-color="#80FF98"/><stop offset="1" stop-color="#FFC700"/></linearGradient><linearGradient id="c" x1="101.622" y1="155.848" x2="128.275" y2="156.981" gradientUnits="userSpaceOnUse"><stop stop-color="#80FF98"/><stop offset="1" stop-color="#FFC700"/></linearGradient><linearGradient id="d" x1="85.638" y1="123.768" x2="181" y2="127.512" gradientUnits="userSpaceOnUse"><stop stop-color="#80FF98"/><stop offset="1" stop-color="#FFC700"/></linearGradient><linearGradient id="e" x1="116.465" y1="136.371" x2="150.319" y2="137.474" gradientUnits="userSpaceOnUse"><stop stop-color="#80FF98"/><stop offset="1" stop-color="#FFC700"/></linearGradient><linearGradient id="f" x1="105.047" y1="288.753" x2="156.721" y2="291.873" gradientUnits="userSpaceOnUse"><stop stop-color="#80FF98"/><stop offset="1" stop-color="#FFC700"/></linearGradient><linearGradient id="g" x1="57.094" y1="467.488" x2="70.921" y2="468.206" gradientUnits="userSpaceOnUse"><stop stop-color="#80FF98"/><stop offset="1" stop-color="#FFC700"/></linearGradient><linearGradient id="h" x1="187.252" y1="336.874" x2="205.725" y2="337.352" gradientUnits="userSpaceOnUse"><stop stop-color="#80FF98"/><stop offset="1" stop-color="#FFC700"/></linearGradient><linearGradient id="i" x1="139.299" y1="184.491" x2="146.136" y2="186.923" gradientUnits="userSpaceOnUse"><stop stop-color="#80FF98"/><stop offset="1" stop-color="#FFC700"/></linearGradient><linearGradient id="j" x1="101.622" y1="184.491" x2="117.417" y2="185.885" gradientUnits="userSpaceOnUse"><stop stop-color="#80FF98"/><stop offset="1" stop-color="#FFC700"/></linearGradient><linearGradient id="k" x1="8" y1="4.612" x2="35.078" y2="6.538" gradientUnits="userSpaceOnUse"><stop stop-color="#80FF98"/><stop offset="1" stop-color="#FFC700"/></linearGradient><linearGradient id="l" x1="92.678" y1="22.156" x2="93.454" y2="28.359" gradientUnits="userSpaceOnUse"><stop stop-color="#80FF98"/><stop offset="1" stop-color="#FFC700"/></linearGradient><linearGradient id="m" x1="92.678" y1="51.946" x2="93.878" y2="58.008" gradientUnits="userSpaceOnUse"><stop stop-color="#80FF98"/><stop offset="1" stop-color="#FFC700"/></linearGradient><linearGradient id="n" x1="266.031" y1="20.652" x2="280.337" y2="21.669" gradientUnits="userSpaceOnUse"><stop stop-color="#80FF98"/><stop offset="1" stop-color="#FFC700"/></linearGradient><linearGradient id="o" x1="266.031" y1="20.652" x2="280.337" y2="21.669" gradientUnits="userSpaceOnUse"><stop stop-color="#80FF98"/><stop offset="1" stop-color="#FFC700"/></linearGradient><linearGradient id="p" x1="154.142" y1="446.865" x2="174.687" y2="455.452" gradientUnits="userSpaceOnUse"><stop stop-color="#80FF98"/><stop offset="1" stop-color="#FFC700"/></linearGradient><linearGradient id="q" x1="74.221" y1="425.095" x2="117.86" y2="429.863" gradientUnits="userSpaceOnUse"><stop stop-color="#80FF98"/><stop offset="1" stop-color="#FFC700"/></linearGradient></defs></svg>