<svg width="481" height="278" viewBox="0 0 481 278" fill="none" xmlns="http://www.w3.org/2000/svg">
    <path fill-rule="evenodd" clip-rule="evenodd" d="M132 0C127.582 0 124 3.58173 124 8.00001V270C124 274.418 127.582 278 132 278C136.418 278 140 274.418 140 270V8C140 3.58172 136.418 0 132 0ZM101 16C96.5817 16 93 19.5817 93 24V254C93 258.418 96.5817 262 101 262C105.418 262 109 258.418 109 254V24C109 19.5817 105.418 16 101 16ZM217 41C217 36.5817 220.582 33 225 33C229.418 33 233 36.5817 233 41V237C233 241.418 229.418 245 225 245C220.582 245 217 241.418 217 237V41ZM39 50C34.5817 50 31 53.5817 31 58V220C31 224.418 34.5817 228 39 228C43.4183 228 47 224.418 47 220V58C47 53.5817 43.4183 50 39 50ZM8 92C3.58172 92 0 95.5817 0 100V178C0 182.418 3.58172 186 8 186C12.4183 186 16 182.418 16 178V100C16 95.5817 12.4183 92 8 92ZM287 92C282.582 92 279 95.5817 279 100V178C279 182.418 282.582 186 287 186C291.418 186 295 182.418 295 178V100C295 95.5817 291.418 92 287 92ZM465 100C465 95.5817 468.582 92 473 92C477.418 92 481 95.5817 481 100V178C481 182.418 477.418 186 473 186C468.582 186 465 182.418 465 178V100ZM248 58C248 53.5817 251.582 50 256 50C260.418 50 264 53.5817 264 58V220C264 224.418 260.418 228 256 228C251.582 228 248 224.418 248 220V58ZM411 50C406.582 50 403 53.5817 403 58V220C403 224.418 406.582 228 411 228C415.418 228 419 224.418 419 220V58C419 53.5817 415.418 50 411 50ZM380 33C375.582 33 372 36.5817 372 41V237C372 241.418 375.582 245 380 245C384.418 245 388 241.418 388 237V41C388 36.5817 384.418 33 380 33ZM62 70C62 65.5817 65.5817 62 70 62C74.4183 62 78 65.5817 78 70V208C78 212.418 74.4183 216 70 216C65.5817 216 62 212.418 62 208V70ZM318 62C313.582 62 310 65.5817 310 70V208C310 212.418 313.582 216 318 216C322.418 216 326 212.418 326 208V70C326 65.5817 322.418 62 318 62ZM434 70C434 65.5817 437.582 62 442 62C446.418 62 450 65.5817 450 70V208C450 212.418 446.418 216 442 216C437.582 216 434 212.418 434 208V70ZM194 50C189.582 50 186 53.5817 186 58V220C186 224.418 189.582 228 194 228C198.418 228 202 224.418 202 220V58C202 53.5817 198.418 50 194 50ZM341 58C341 53.5817 344.582 50 349 50C353.418 50 357 53.5817 357 58V220C357 224.418 353.418 228 349 228C344.582 228 341 224.418 341 220V58ZM155 36C155 31.5817 158.582 28 163 28C167.418 28 171 31.5817 171 36V242C171 246.418 167.418 250 163 250C158.582 250 155 246.418 155 242V36Z" fill="url(#paint0_linear_444:483)" />
    <defs>
        <linearGradient id="paint0_linear_444:483" x1="0" y1="0" x2="213.077" y2="26.3191" gradientUnits="userSpaceOnUse">
            <stop offset="20%" stop-color="#80FF98">
                <animate attributeName="stop-color" values="#80FF98; #FFC700; #80FF98" dur="10s" repeatCount="indefinite" />
            </stop>
            <stop offset="100%" stop-color="#FFC700">
                <animate attributeName="stop-color" values="#FFC700; #80FF98; #FFC700;" dur="10s" repeatCount="indefinite" />
            </stop>
        </linearGradient>
    </defs>
</svg>