<svg width="428" height="428" fill="none" xmlns="http://www.w3.org/2000/svg"><circle cx="214" cy="214" r="87" stroke="url(#a)" stroke-width="16"/><path d="M227.423 262.249c-18.235-6.216-29.289-42.687-12.764-45.899 14.935-2.9 15.055 30.632 33.597 18.092" stroke="url(#b)" stroke-width="2" stroke-linecap="round" stroke-linejoin="round"/><path d="M195.027 169.243c4.818-3.048 10.9-5.01 18.611-5.243 6.324.191 11.566 1.547 15.902 3.712" stroke="url(#c)" stroke-width="2" stroke-linecap="round" stroke-linejoin="round"/><path d="M220.573 264.265c-11.018-5.18-23.236-22.309-20.198-40.87 1.186-7.242 6.886-13.018 14.152-13.82 18.915-2.119 18.557 32.166 35.129 16.772" stroke="url(#d)" stroke-width="2" stroke-linecap="round" stroke-linejoin="round"/><path d="M213.036 265c-11.894-7.054-21.896-22.994-18.473-44.164 1.587-9.824 9.362-17.586 19.196-18.715 21.86-2.516 21.077 31.076 36.382 18.227" stroke="url(#e)" stroke-width="2" stroke-linecap="round" stroke-linejoin="round"/><path d="M233.607 258.855c-10.565-3.082-20.996-20.175-20.475-30.925a3.961 3.961 0 0 1 .605-1.892 3.923 3.923 0 0 1 1.446-1.354 3.887 3.887 0 0 1 3.824.061c8.801 5.286 11.466 25.221 27.376 16.19" stroke="url(#f)" stroke-width="2" stroke-linecap="round" stroke-linejoin="round"/><path d="M203.021 263.369c-10.984-9.64-17.337-23.89-15.464-41.4 1.544-14.456 13.167-25.915 27.608-26.659 23.706-1.211 21.679 28.382 35.115 19.19" stroke="url(#g)" stroke-width="2" stroke-linecap="round" stroke-linejoin="round"/><path d="M185.97 250.681c-3.52-7.998-6.293-17.995-4.706-28.676 2.785-18.751 14.597-34.351 33.693-34.351 25.546 0 25.546 23.459 35.181 20.253" stroke="url(#h)" stroke-width="2" stroke-linecap="round" stroke-linejoin="round"/><path d="M177 214.5c1.542-9.836 13.977-38.76 41.754-35.366 16.862 2.061 22.05 16.665 29.77 19.644" stroke="url(#i)" stroke-width="2" stroke-linecap="round" stroke-linejoin="round"/><path d="M179.345 193.223c13.439-26.895 50.195-30.165 67.562-3.569" stroke="url(#j)" stroke-width="2" stroke-linecap="round" stroke-linejoin="round"/><path d="M220.416 234.441c2.861 5.822 9.458 16.397 20.087 17.638" stroke="url(#k)" stroke-width="2" stroke-linecap="round" stroke-linejoin="round"/><circle opacity=".6" cx="214" cy="214" r="130" stroke="url(#l)" stroke-width="12"/><circle opacity=".3" cx="214" cy="214" r="172" stroke="url(#m)" stroke-width="8"/><circle opacity=".1" cx="214" cy="214" r="212" stroke="url(#n)" stroke-width="4"/><defs><linearGradient id="a" x1="127" y1="127" x2="204.859" y2="132.558" gradientUnits="userSpaceOnUse"><stop stop-color="#80FF98"/><stop offset="1" stop-color="#FFC700"/></linearGradient><linearGradient id="b" x1="206.566" y1="216.172" x2="225.238" y2="217.378" gradientUnits="userSpaceOnUse"><stop stop-color="#80FF98"/><stop offset="1" stop-color="#FFC700"/></linearGradient><linearGradient id="c" x1="195.027" y1="164" x2="207.742" y2="169.974" gradientUnits="userSpaceOnUse"><stop stop-color="#80FF98"/><stop offset="1" stop-color="#FFC700"/></linearGradient><linearGradient id="d" x1="199.903" y1="209.48" x2="222.186" y2="210.925" gradientUnits="userSpaceOnUse"><stop stop-color="#80FF98"/><stop offset="1" stop-color="#FFC700"/></linearGradient><linearGradient id="e" x1="193.882" y1="201.985" x2="219.082" y2="203.591" gradientUnits="userSpaceOnUse"><stop stop-color="#80FF98"/><stop offset="1" stop-color="#FFC700"/></linearGradient><linearGradient id="f" x1="213.114" y1="224.212" x2="228.007" y2="225.233" gradientUnits="userSpaceOnUse"><stop stop-color="#80FF98"/><stop offset="1" stop-color="#FFC700"/></linearGradient><linearGradient id="g" x1="187.231" y1="195.273" x2="215.464" y2="197.14" gradientUnits="userSpaceOnUse"><stop stop-color="#80FF98"/><stop offset="1" stop-color="#FFC700"/></linearGradient><linearGradient id="h" x1="180.806" y1="187.654" x2="211.797" y2="190.087" gradientUnits="userSpaceOnUse"><stop stop-color="#80FF98"/><stop offset="1" stop-color="#FFC700"/></linearGradient><linearGradient id="i" x1="177" y1="178.858" x2="208.521" y2="183.374" gradientUnits="userSpaceOnUse"><stop stop-color="#80FF98"/><stop offset="1" stop-color="#FFC700"/></linearGradient><linearGradient id="j" x1="179.345" y1="171.298" x2="208.329" y2="177.673" gradientUnits="userSpaceOnUse"><stop stop-color="#80FF98"/><stop offset="1" stop-color="#FFC700"/></linearGradient><linearGradient id="k" x1="220.416" y1="234.441" x2="229.391" y2="235.171" gradientUnits="userSpaceOnUse"><stop stop-color="#80FF98"/><stop offset="1" stop-color="#FFC700"/></linearGradient><linearGradient id="l" x1="84" y1="84" x2="200.341" y2="92.305" gradientUnits="userSpaceOnUse"><stop stop-color="#80FF98"/><stop offset="1" stop-color="#FFC700"/></linearGradient><linearGradient id="m" x1="42" y1="42" x2="195.928" y2="52.989" gradientUnits="userSpaceOnUse"><stop stop-color="#80FF98"/><stop offset="1" stop-color="#FFC700"/></linearGradient><linearGradient id="n" x1="2" y1="2" x2="191.725" y2="15.544" gradientUnits="userSpaceOnUse"><stop stop-color="#80FF98"/><stop offset="1" stop-color="#FFC700"/></linearGradient></defs></svg>